<svg xmlns="http://www.w3.org/2000/svg" viewBox="0 0 908.84 772.32"><defs><style>.cls-1{fill:#fff;}</style></defs><g id="Capa_2" data-name="Capa 2"><g id="Capa_1-2" data-name="Capa 1"><rect width="908.84" height="772.32"/><path class="cls-1" d="M117.82,251.19H165q24.13,0,35.23,13.46c7.38,9,7.6,20.44,7.6,39.07v9.55c0,12.27.44,26.48-.4,31.12-2.4,13.19-12.6,18.59-23.9,19V364c18.1-.25,24.3,10.75,24.3,46.4v20.46c0,18.41,1.25,36.24-6.8,45.89s-18.52,10.7-34.05,10.7H117.82Zm41.17,102q9.7,0,14.57-6.75t4.86-22.64v-15.5q0-15.09-4-21.85t-12.52-6.75H146.32v73.49Zm4,106.4q7.74,0,11.47-5.89t3.73-20.36V410.12q0-18.25-4.4-25.3t-14.53-7H146.22v81.8Z"/><path class="cls-1" d="M244.67,477.81q-12.55-15.63-12.55-44.17v-125q0-28.53,12.55-44.16t36.2-15.63q23.64,0,36.2,15.63t12.55,44.16v125q0,28.55-12.55,44.17t-36.2,15.62Q257.23,493.43,244.67,477.81Zm52.84-37.47V303.18q0-23.44-16.64-23.44t-16.64,23.44V440.34q0,23.45,16.64,23.44T297.51,440.34Z"/><path class="cls-1" d="M359.37,474.8c-7-13-5.55-39.37-5.55-58.63V402.58h28.66v16.31c0,30.29-1.18,47.59,14.74,47.89,5.14.1,7.33-.82,10-4.55s3.11-15.26,3.11-23.65c0-10-1.11-30.6-21.31-57.8C378,366,370.8,356,365.84,345s-9.45-23.16-9.45-37c0-18.8,1.84-33.45,9.56-43.75s21.57-15.46,36.27-15.46c14.51,0,26,1,34.8,15.46,6.59,10.86,6.65,39.59,6.65,58.84V333H415V320.76c0-8.16,4.82-45.57-14-45.17-13,.27-14.1,10.42-14.1,25.6a61,61,0,0,0,6,25.92c3.77,7.47,7.73,16.53,17.66,27.17,12.67,13.59,21.66,28.52,26.44,39.61S444.22,418,444.22,433q0,29.22-11.72,44.85t-34,15.62C383.77,493.43,365.43,486,359.37,474.8Z"/><path class="cls-1" d="M599,475.91c-8.28-10.45-12.41-21-12.41-40.55v-184h32.5V438.11c0,8.27,1.43,18.69,4.29,22.36S632.88,466,638.2,466s10.95-1.83,13.8-5.51,4.29-14.09,4.29-22.36V251.39h31.32v184c0,19.52-4.13,30.1-12.41,40.55s-22.33,15.67-38.09,15.67S607.3,486.36,599,475.91Z"/><path class="cls-1" d="M713,251.39h78v32.55H746.68v65.15H787v32.38H746.68v74.07H791v32.34H713Z"/><path class="cls-1" d="M552.64,476.07q13.07-15.49,13.07-43.83V308.17q0-28.32-13.07-43.83T515,248.83q-24.62,0-37.68,15.51t-13.06,43.83V432.24q0,28.33,13.06,43.83a41.82,41.82,0,0,0,22.25,13.71c1.31,35.27,14.14,43.6,32.89,43.6h25.8v-28.8h-21.3s-4.4-1-7.1-14.09C538.19,487.92,546.23,483.67,552.64,476.07Zm-18.72-38.22c0,15.51-7.41,25.83-19,25.83s-17.32-9.28-17.32-24.79V302.77c0-15.52,6.59-23.27,18.14-23.27s18.14,6.72,18.14,22.23Z"/><path class="cls-1" d="M476.79,74.73c-27.63,10.41-42.9,26.7-45.6,51,0,0-86.16-5.2-86.4,33.6-.07,11.7,7.72,13.44,12.75,11.7,7.8-2.7,1.95-13.2,29.71-18.57,11.63-2.25,25.86-2.22,43.94-2.83v30.1s.3,13.86,9.3,13.56,7.8-13,7.8-16.86.06-28,.06-28,23.5-.5,46.75-1.24c36.42-1.15,75,3.44,81.63-30.76C584.51,76.28,520.59,58.23,476.79,74.73Zm74.15,42.35c-32.17,12.3-98.85,7.75-98.85,7.75,9-25.6,52.06-30.29,69.2-30.3,17.89,0,27.79,5.46,31.35,10.67C555.66,109.62,555.94,115.16,550.94,117.08Z"/><circle class="cls-1" cx="152.02" cy="611.04" r="10.4"/><circle class="cls-1" cx="756.81" cy="611.04" r="10.4"/><path class="cls-1" d="M226,672.41a31.86,31.86,0,0,1-3.93-.26c-6.53-.8-11.09-3.06-13.94-6.89s-3.85-9.08-3-15.56l6.68-49.22c.88-6.47,3.25-11.29,7-14.31,3-2.39,6.7-3.54,11.38-3.54a31.79,31.79,0,0,1,3.93.25c6.53.81,11.09,3.06,13.94,6.9s3.85,9.08,3,15.55l-1,7.21-9.06-1.12,1.1-8.12c.47-3.43,0-6.22-1.41-8.3s-3.94-3.54-7.25-4a15.39,15.39,0,0,0-1.76-.11c-3.2,0-8.72,1.28-9.89,9.85L214.93,652c-.46,3.39,0,6.15,1.44,8.21s3.94,3.5,7.24,3.91a15.77,15.77,0,0,0,1.79.11c3.18,0,8.69-1.26,9.84-9.72L236.81,643l9.06,1.12-1.42,10.47c-.88,6.48-3.25,11.3-7,14.32C234.43,671.25,230.71,672.41,226,672.41Z"/><polygon class="cls-1" points="257.76 674.96 267.03 588.03 303.11 591.53 302.24 599.67 276.08 597.13 272.96 626.41 293.75 628.43 292.88 636.57 272.09 634.56 268.55 667.78 294.71 670.31 293.84 678.46 257.76 674.96"/><path class="cls-1" d="M339.92,681.93a14.74,14.74,0,0,1-.28-2.08,59.91,59.91,0,0,1,.28-6.79l1.31-16.85c.38-4.85-.25-8.31-1.92-10.59s-4.84-3.78-9.15-4.09L322.3,641l-3.08,39.49-9.94-.7,6.79-87.14L336,594c7.05.49,12.07,2.36,14.9,5.53s4,8.09,3.52,14.57l-.44,5.66c-.67,8.51-3.78,13.51-9.53,15.25l-1.69.52-.3,3.81,1.82.66a9.11,9.11,0,0,1,5.77,5.52c1.13,3,1.5,7.09,1.11,12.15l-1.26,16.19a60.15,60.15,0,0,0-.23,6.68,18.17,18.17,0,0,0,.2,2.06Zm-17-49.12,8.15.58c.47,0,.93.05,1.38.05A11.34,11.34,0,0,0,340,631c2.19-1.85,3.41-4.81,3.74-9l.55-7.11c.31-4-.26-6.88-1.74-9s-4.18-3.49-7.67-3.74l-9.53-.68Z"/><polygon class="cls-1" points="376.24 683.97 366.58 596.07 376.57 596.51 383.09 668.55 387.96 668.75 401.36 597.6 409.97 597.97 391.91 684.65 376.24 683.97"/><polygon class="cls-1" points="420.43 685.64 421.97 598.27 458.23 598.85 458.09 607.04 431.79 606.62 431.27 636.04 452.17 636.38 452.03 644.56 431.13 644.23 430.54 677.61 456.84 678.03 456.69 686.22 420.43 685.64"/><path class="cls-1" d="M490.77,687.28c-6.32,0-11-1.61-14.29-4.92s-5.19-8.46-5.29-15l-.78-49.62c-.1-6.54,1.51-11.63,4.81-15.14s8.08-5.25,14.66-5.34h.53c6.32,0,11,1.62,14.3,4.93s5.18,8.46,5.28,15l.12,7.26-9.14.13-.13-8.18c-.15-9.52-6.44-10.94-10.18-10.94h-.23c-3.83,0-10.22,1.59-10.07,11.23l.82,51.6c.14,9.4,6.44,10.81,10.18,10.81h.23c6.5-.1,10.17-4.14,10.06-11.1l-.18-11.62,9.14-.13.16,10.56c.11,6.53-1.51,11.62-4.81,15.13s-8.08,5.25-14.66,5.35Z"/><polygon class="cls-1" points="522.84 597.85 559.06 596.1 559.5 604.28 533.23 605.55 534.79 634.94 555.66 633.93 556.1 642.11 535.22 643.11 536.99 676.46 563.25 675.2 563.69 683.37 527.47 685.12 522.84 597.85"/><path class="cls-1" d="M571.56,595.28l19.85-1.75c1.31-.11,2.58-.17,3.77-.17,5.18,0,9.18,1.1,11.89,3.28,3.35,2.69,5.37,7.34,6,13.81l.54,5.65c.83,8.51-1.38,13.92-6.75,16.55l-1.58.78.37,3.8,1.92.37a9.28,9.28,0,0,1,6.64,4.53c1.64,2.78,2.72,6.76,3.2,11.81L619,670.11a61.91,61.91,0,0,0,.93,6.61,18.21,18.21,0,0,0,.56,2l-9.89.87a15.68,15.68,0,0,1-.63-2,60.11,60.11,0,0,1-.91-6.75L607.41,654c-.47-4.85-1.69-8.16-3.73-10.15-1.83-1.77-4.46-2.67-7.83-2.67-.6,0-1.24,0-1.9.09l-7.85.69,3.81,39.42-9.92.88Zm21.59,6.38c-.44,0-.9,0-1.36.06l-9.51.84,3,31.27,8.13-.71c3.75-.33,6.58-1.6,8.41-3.76s2.52-5.27,2.12-9.49l-.69-7.1c-.38-3.94-1.46-6.75-3.28-8.57A9.3,9.3,0,0,0,593.15,601.66Z"/><path class="cls-1" d="M625.75,590l9.88-1.23,11.78,86.66-9.88,1.22Zm4.9-22.17,9-1.11L631.2,578l-5.62.7Z"/><path class="cls-1" d="M661.87,585.08l15.92-2.62,30.28,83.69-9.71,1.6-5.3-15.57-4.8,1.13,1.9-2.56-19.29,3.17.5,18.26-8.63,1.42Zm6.93,10.11,1.77,51.14,19.46-3.2-16.45-48.72Z"/></g></g></svg>