<svg xmlns="http://www.w3.org/2000/svg" viewBox="0 0 1235.16 510.28"><defs><style>.cls-1{fill:#d30008;}.cls-2{fill:#fff;}</style></defs><g id="Capa_2" data-name="Capa 2"><g id="Capa_1-2" data-name="Capa 1"><rect class="cls-1" width="1235.16" height="510.28"/><path class="cls-2" d="M694.62,168.76c3.06-2.28,5.51-3.86,7.67-5.75,14.59-12.74,14.93-33.84,1.12-47.42-7.6-7.47-17-9.17-26.93-9.18q-87.86-.14-175.7,0a55.66,55.66,0,0,0-6.95.8v16.87h22.76v92.44h17V124.25h38.09v92.13h55.35v-16.7H589.13V170h29.62V152.91H589V124.65c2.73-.26,4.62-.59,6.52-.6q41.47-.24,83-.39a26.22,26.22,0,0,1,4.86.23c7.72,1.4,12.82,7.37,12.84,14.87s-4.89,13.85-12.89,14.57c-8.29.74-16.7.16-25.49.16-.41-7-.75-13-1.11-19.14H641.42v82.18h15.91V171h18.74l24.14,45.74h18.94C710.68,200.19,702.66,184.51,694.62,168.76Z"/><path class="cls-2" d="M153,314.26l2.72-4.62c19.53-33.3-2.65-72.49-41.15-72.71-8.14-.05-16.28,0-24.41,0H63.72V402.29c21.14,0,41.57.2,62-.06C144.3,402,158,393,166.77,377s7.95-32.51-1.83-48.06C161.71,323.79,157.26,319.42,153,314.26ZM88.86,262.7c10.56,0,20.92-1.07,31,.28,11.17,1.5,18.55,12.53,17.62,23.33a22.25,22.25,0,0,1-21.41,20c-8.68.36-17.39.07-27.16.07Zm58,94.17a22.18,22.18,0,0,1-21.54,19.93c-11.91.32-23.84.07-36.63.07v-44.3c13.94,0,27.83-1.15,41.41.37C141.1,334.16,148.14,346,146.87,356.87Z"/><path class="cls-2" d="M276.76,326.08c19.33-12.21,27.73-33.29,21.76-54.62C292.73,250.74,273.84,237,251,236.93c-13.33,0-26.67,0-40,0H192V401.58h24.68V332.75c8.54,0,15.71-.43,22.77.23,2.64.24,5.9,2.47,7.39,4.76,3.53,5.4,6.16,11.39,9.16,17.14L280.59,402H309.2l-37.6-72.78C274,327.74,275.41,326.94,276.76,326.08ZM253.12,307c-11.66.28-23.32.06-36.26.06V262.7c13.69,0,27-1.08,40,.33,11.79,1.27,18.63,12.14,17.67,24.13C273.61,298.24,264.75,306.71,253.12,307Z"/><path class="cls-2" d="M1165.42,392q-16.11-25.54-32.3-51-30.8-48.54-61.7-97c-1.76-2.75-4.73-6.35-7.41-6.6-8.93-.83-18-.31-27.36-.31V401.8h25V363.89c16.72,0,32.61.25,48.49-.13,5.75-.14,8.91,2.23,11.65,6.82,5.32,8.93,10.83,17.76,16.7,26.32,1.61,2.35,4.69,4.92,7.28,5.14,8,.66,16.07.24,25.69.24C1168.92,397.94,1167.27,394.88,1165.42,392Zm-103.49-54.25v-58.3l1.45-.63,37.38,58.93Z"/><path class="cls-2" d="M420.79,355q-35.19-55.5-70.47-110.93c-1.76-2.76-4.61-6.5-7.25-6.75-8.92-.85-18-.33-27.2-.33V401.76h24.34V364c18.15,0,35-.22,51.84.23,2.52.07,5.7,2.78,7.31,5.13,6.24,9.09,11.77,18.67,18,27.76,1.6,2.32,4.77,4.75,7.39,5,8,.65,16,.23,25.39.23-2.29-4-3.77-6.75-5.45-9.42Q432.8,373.92,420.79,355Zm-80-17.31V279.58l1.49-.64c12.19,19.2,24.37,38.4,37.28,58.76Z"/><path class="cls-2" d="M665.66,306H598.31V237.68H574.16V401.62h24.63V332.76h67.47v68.9h24V237.78h-24.6Z"/><path class="cls-2" d="M743.5,331.69H788V306.8H743.66V261.6h57.71V237.72h-83.2V401.56h83.49V376.9H743.5Z"/><path class="cls-2" d="M454,272.38c-21.26,30.8-18.67,74.62,6,102.09,24.51,27.28,64.74,37.77,91.55,23.79V372.72c-30.75,11.56-56.54,6.3-76-20.07-13.79-18.68-14.2-46.1-.82-65,19.39-27.36,45.56-33.22,77-21.29V240.24C515.78,226.89,476.21,240.17,454,272.38Z"/><path class="cls-2" d="M929.19,262H964v139.7h25.35v-140h34.19V237.49H929.19Z"/><path class="cls-2" d="M817.18,262h34.75V401.92h24.79v-140h34.2V237.51H817.18Z"/><path class="cls-2" d="M356.44,217.09c12.93-.23,22.43-6.67,28-18,5.76-11.79,4.05-23.34-3.75-33.9-1.7-2.29-3.68-4.38-5.71-6.76,1.05-2,2-3.66,2.82-5.38,9.75-20.71-1.87-43.14-24.63-45.74-12.11-1.38-24.51-.24-37.35-.24V217.14C329.86,217.14,343.16,217.32,356.44,217.09ZM332.3,123.71c6.67,0,12.17-.38,17.59.08,8.71.74,14.52,7.34,14.17,15.39-.32,7.46-6.33,13.32-14.68,13.81-5.43.31-10.88.06-17.08.06Zm-.41,46.45c8.84,0,16.32-.31,23.76.08,8.82.46,14.73,6.86,14.62,15.07-.13,8.58-5.71,14.11-14.94,14.53-4.87.21-9.76,0-14.64,0-2.25,0-4.51,0-7.91,0C330.49,190.2,331.75,180.77,331.89,170.16Z"/><path class="cls-2" d="M846.19,216.79a3.33,3.33,0,0,0,.8-.4c0-.63.25-1.41,0-1.86Q814,162.23,780.85,110a9.39,9.39,0,0,0-6.28-3.48c-5-.52-10.16-.17-15.51-.17V216.54h16.06V191.92h37.34c2.8,4.3,6.2,8.07,8,12.5C825.3,216.76,834.52,219.07,846.19,216.79Zm-70.56-43v-36.5l1.68-1,23.83,37.5Z"/><path class="cls-2" d="M415.94,204.22a32.17,32.17,0,0,1,5.78-8.94c1.5-1.7,4-3.46,6.13-3.53,10.67-.35,21.36-.16,34-.16V216.4h15.43V106.94c-2.62-.24-4.53-.3-6.4-.59-9.35-1.42-15.13,1.92-20.3,10.48-18.08,30-37.25,59.24-56,88.79-2.15,3.39-4.16,6.86-6.29,10.39C401.72,219.72,410.92,216.73,415.94,204.22Zm43-68,1.59.35v37.26H435.09Z"/><path class="cls-2" d="M910.52,166.18c-6.11-5-13.92-8-21.2-11.41-5-2.33-10.49-3.46-15.46-5.77-5.77-2.69-10.8-6.4-9.68-14,1-6.47,6.51-11,14.72-11.87,8.6-1,16.71.32,23.42,6.25L914,118.65c-10-14.68-38.79-16.13-52.69-7.48-18.39,11.43-20,36.48-2.16,48.8,6.52,4.51,14.55,6.89,22,10.1,4.74,2.06,9.9,3.34,14.33,5.9,10.44,6.05,10.44,16-.13,21.84-3.79,2.09-8.57,3-13,3.24-8.75.52-15.3-4.29-20.82-10.85l-14.68,5.73c11.88,26.14,51.44,30.25,67.77,7.74C923.53,191.34,922.41,175.85,910.52,166.18Z"/><path class="cls-2" d="M744.92,107.82h-15V216.73h15Z"/></g></g></svg>