<?xml version="1.0" encoding="utf-8"?>
<!-- Generator: Adobe Illustrator 24.3.0, SVG Export Plug-In . SVG Version: 6.00 Build 0)  -->
<svg version="1.1" id="Capa_1" xmlns="http://www.w3.org/2000/svg" xmlns:xlink="http://www.w3.org/1999/xlink" x="0px" y="0px"
	 viewBox="0 0 908.8 772.3" style="enable-background:new 0 0 908.8 772.3;" xml:space="preserve">
<style type="text/css">
	.st0{fill:#FFCF00;}
	.st1{fill:#1E232B;}
	.st2{fill:#FFFFFF;}
</style>
<g id="Capa_2_1_">
	<g id="Capa_1-2">
		<rect class="st0" width="908.8" height="772.3"/>
		<g>
			<path class="st1" d="M685.4,447.6c0.3-8.6-0.1-21.1-0.3-28.2c0-2.2,1.7-4,3.9-4c0.6,0,1.2,0.1,1.7,0.4c2.9,1.3,5.5,3.1,7.8,5.3
				c-1.1-16.4-3.4-32.7-6.8-48.9c-1.9-8.2-2-16.8-0.2-25.1c7-28.7,3.6-58.6-3-71.4c-5.1-9.8-16.3-12.4-23.6-13
				c-4.7-0.4-8.7-3.5-10.2-8c-2.9-9.2-4.4-21.2-5.1-27.9c-0.2-2,1.3-3.8,3.3-4c0.5,0,1.1,0,1.6,0.2c3.2,1.1,6.2,2.4,9.2,3.9
				c-3.3-38.9-34.2-81.6-45.5-96.1c-2.3-2.9-2.9-6.8-1.8-10.3c0.4-1.2,0.6-1.9,0.6-1.9c-20.4,0.8-31.4-14.6-35-21.1
				c-0.5-0.9-0.2-2.1,0.7-2.6c0.2-0.1,0.4-0.2,0.5-0.2c2.2-0.4,3.5-3.2,3.5-3.2c-9.6-4.7-18.7-12.9-33.7-18.7
				c-23.4-9-62.6-16-99.6-16.1c-38.1-0.1-73.9,6.8-98,16.1c-15,5.8-24.1,14-33.7,18.7c0,0,1.3,2.8,3.5,3.2c1,0.2,1.7,1.2,1.5,2.2
				c0,0.2-0.1,0.4-0.2,0.5c-3.7,6.5-14.6,22-35.1,21.1c0,0,0.2,0.8,0.6,1.9c1.2,3.5,0.5,7.4-1.8,10.3
				c-11.3,14.5-42.2,57.1-45.5,96.1c3-1.6,6-2.9,9.2-3.9c1.9-0.7,4,0.3,4.7,2.2c0.2,0.5,0.2,1,0.2,1.6c-0.7,6.8-2.3,18.7-5.2,27.9
				c-1.4,4.5-5.4,7.7-10.1,8c-7.3,0.6-18.5,3.2-23.6,13c-6.7,12.8-10,42.7-3,71.4c1.8,8.3,1.8,16.8-0.1,25.1
				c-3.3,16.1-5.6,32.4-6.7,48.9c2.3-2.2,4.9-4,7.7-5.3c2-0.9,4.3-0.1,5.2,1.9c0.3,0.5,0.4,1.1,0.4,1.7c-0.2,7-0.6,19.6-0.3,28.2
				c0.5,16.5-16.8,56.8-16.8,56.8s8.2-6.1,15.1-8.1c2.1-0.7,4.3,0.5,5,2.6c0,0.1,0.1,0.2,0.1,0.4c1.8,9.1,7.4,32.9,20.3,44.9
				c0-0.6,0.2-1.1,0.4-1.7c0.9-2.5,3.7-3.7,6.1-2.8c1,0.4,1.8,1.1,2.4,2c5.9,9.7,20,34.8,20.8,56.4c0.9-2,2-3.9,3.3-5.7
				c2.3-3.1,6.7-3.6,9.8-1.3c1.1,0.8,1.9,2,2.4,3.3c0.6,2.1,1.1,4.3,1.3,6.4c0.8,8.8,7.6,36.6,21.8,50.1
				c14.2,13.5,31.6,26.5,36.8,35.4c0,0-0.4-3.7-0.6-6.6c-0.1-2.9,2.2-5.4,5.2-5.5c1.3,0,2.5,0.4,3.5,1.2
				c10.3,8.2,30.7,26.7,39.6,40.3c-0.3-6.4-0.3-12.9,0.2-19.3c0.2-2.6,2.5-4.5,5-4.3c0.8,0.1,1.5,0.3,2.2,0.7
				c6.3,4.1,19,9.5,42.5,9.5c29,0,45.7-7,53.1-11.1c2-1.2,4.6-0.5,5.7,1.5c0.3,0.5,0.4,1,0.5,1.5c1.1,8.5,0.4,21.3,0.4,21.3
				c8.9-13.7,29.3-32.1,39.7-40.3c2.3-1.8,5.6-1.5,7.5,0.8c0.8,1,1.2,2.2,1.2,3.5c-0.1,2.8-0.6,6.6-0.6,6.6
				c5.1-8.9,22.6-21.9,36.8-35.4s21-41.4,21.8-50.1c0.2-2.2,0.6-4.3,1.3-6.4c1.2-3.6,5.1-5.6,8.8-4.4c1.3,0.4,2.5,1.3,3.3,2.4
				c1.3,1.8,2.4,3.7,3.3,5.7c0.9-21.6,14.9-46.7,20.8-56.4c1.4-2.2,4.3-2.9,6.6-1.5c0.9,0.6,1.6,1.4,1.9,2.4
				c0.2,0.5,0.3,1.1,0.4,1.7c12.8-12,18.5-35.9,20.3-44.9c0.4-2.1,2.5-3.5,4.7-3.1c0.1,0,0.3,0.1,0.4,0.1c6.9,2,15.1,8.1,15.1,8.1
				S684.9,464.1,685.4,447.6z"/>
			<path class="st2" d="M246.7,328c-8.2,0.6-2.5,11.5-0.3,15.5c4.4,7.5-6.7,20.3-12.4-10.4c-3.1-16.5-0.2-55.6,13-44.5
				c2.2,1.9,3.3,3.6,6.4,2.7c1.1-0.3,2-1.2,2.3-2.4c1.4-4.4-0.9-18.1-14.7-15.1c-17.8,3.9-19.7,34.6-16.1,54.4
				c3.6,19.8,9,48.1,24.1,46.7C264.1,373.5,258.2,327.2,246.7,328z"/>
			<path class="st2" d="M668.6,273.9c-13.8-3-16.1,10.6-14.7,15.1c0.3,1.1,1.2,2,2.3,2.4c3.2,0.9,4.2-0.8,6.4-2.7
				c13.2-11.1,16.1,28,13,44.5c-5.8,30.7-16.8,17.9-12.4,10.4c2.3-3.9,7.9-14.9-0.3-15.5c-11.5-0.9-17.4,45.5-2.3,46.9
				c15.1,1.4,20.5-26.9,24.1-46.7S686.4,277.8,668.6,273.9z"/>
			<path class="st2" d="M359.9,323.3c-0.9,12.1,9.4,19,21.6,19.5c7,0.4,13.6-3,17.4-8.9c-1.3-2.2-6.2-4.2-6.2-4.2
				c-10.3,10-26.9-1.7-21.8-11C371,318.6,360.6,314.5,359.9,323.3z"/>
			<path class="st2" d="M516.4,329.6c0,0-4.9,2.1-6.2,4.2c3.8,5.9,10.5,9.3,17.4,8.9c12.2-0.4,22.5-7.4,21.6-19.5
				c-0.7-8.9-11.1-4.7-11.1-4.7C543.4,328,526.7,339.7,516.4,329.6z"/>
			<path class="st2" d="M610.1,296.3c-1.3,17.5-8.7,19.6-8.7,19.6c7.4-14.6-3.5-27.8-3.5-27.8c-1.6,10-5.8,10.2-5.8,10.2
				c0.3-26.2-24.7-25.8-24.7-25.8c10.1-5.5,28.1,4.2,28.1,4.2c-4.2-7.6-11.1-17.5-28.1-17.5c-17,0-28.1,13.9-35,20.7
				c-6.9,6.8-21.1,10.5-21.1,10.5c2.3-14.9-5.5-19.1-5.5-19.1c-0.6,22.9-18.9,32.2-27.6,34.9c-9.2,2.9-19.2,7-17.2,22.3
				c0.7,6.2,4.1,11.7,9.2,15.2c-1-3.4-1-7.1-0.1-10.5c2.9,5.3,12.7,10.5,12.7,10.5c-3-3.8-3.8-14.7-3.8-14.7
				c10.9,11.3,21.6,4.2,29.2,0.3c13.1-6.7,22.7-15.6,42.2-15.9c11.3-0.2,18.8,4.9,22.9,11.3c0.6-6-0.6-15.3-11.2-21.6
				c0,0,29.1-5,31,28.3c1,17.1-9.3,22-9.3,22s7.8-22.7-3-31.8c0,0,0.9,14.9-2.5,24.5c-2.6,7.2-13.4,18.2-29.9,18.5
				c-12.3,0.2-22.5-6.8-31.6-10.8c-7.3-3.2-34.7-5.6-62.1-5.6c-27.4,0-54.8,2.5-62.1,5.6c-9.2,4-19.3,11-31.6,10.8
				c-16.5-0.3-27.3-11.3-29.9-18.5c-3.5-9.6-2.5-24.5-2.5-24.5c-10.7,9.1-3,31.8-3,31.8s-10.3-4.9-9.3-22c1.9-33.3,31-28.3,31-28.3
				c-10.5,6.3-11.7,15.6-11.2,21.6c4.1-6.4,11.6-11.4,22.9-11.3c19.5,0.3,29.2,9.3,42.2,15.9c7.6,3.9,18.3,10.9,29.2-0.3
				c0,0-0.8,10.9-3.8,14.7c0,0,9.8-5.3,12.7-10.5c0.9,3.5,0.9,7.1-0.1,10.5c5.1-3.5,8.4-9.1,9.1-15.2c2-15.2-8-19.4-17.2-22.3
				c-8.7-2.7-27-12.1-27.6-34.9c0,0-7.8,4.2-5.5,19.1c0,0-14.2-3.7-21-10.5c-6.9-6.8-18-20.7-35-20.7c-17,0-23.9,10-28.1,17.5
				c0,0,18-9.7,28.1-4.2c0,0-24.9-0.3-24.7,25.9c0,0-4.2-0.3-5.8-10.2c0,0-10.9,13.1-3.4,27.8c0,0-7.4-2.1-8.8-19.6
				c0,0-10.6,8.9-8.7,31.2c1.9,22.3,26,31.9,26,31.9s-11.1,0.8-17.8,0c0,0,4.2,34.9,56.2,51.8c9.9,3.2,15.7,13.9,22.7,15.2
				c0,0-7.1-21.9,8.7-40.6c12.5-14.7,48.8-13.4,57.1-2.5c0,0,3.8-14.5-25.6-21.9c0,0,5.1-5.8,36.8-5.8s36.8,5.8,36.8,5.8
				c-29.2,7.3-25.4,21.8-25.4,21.8c8.4-10.9,44.6-12.2,57.1,2.5c15.8,18.7,8.7,40.6,8.7,40.6c7.1-1.3,12.9-12,22.7-15.2
				c52-16.9,56.2-51.8,56.2-51.8c-6.6,0.8-17.8,0-17.8,0s24.1-9.7,26-31.9C620.7,305.2,610.1,296.3,610.1,296.3z"/>
			<path class="st2" d="M488.7,382.9c-13.7,0.6-26.3,7.4-34.4,18.4c-8.1-11-20.8-17.8-34.4-18.4c-20.4-1-32.6,11.3-35.3,24.9
				c-2.3,11.8-3.7,33.4,13.5,39.9c10.3,3.9,15.1-4.3,15.1-4.3c-8.4,1.6-12.4-3.3-9.2-3.3c3.6,0.2,7.1-0.9,9.9-3.1
				c3.4-2.7,14,1.7,14,1.7s-0.2-3.1,5.9-4.6c6.9-1.7,7.3-5.7,7.3-5.7c-15.9-3-21.8,3.4-21.8,3.4s-5.4-6.8-11.7-10.3
				c-6.3-3.5-8,7-8,7s-6.1-3.1-5.7-11.6c0.5-9.9,7.1-15.2,14-16.4c5.9-1.1,11.9,1,15.9,5.5c2.8,3.3,9.7,6.9,17.3,10.8
				c7.6,3.9,6.3,15.5,6.3,15.5H461c0,0-1.2-11.6,6.3-15.5s14.5-7.5,17.3-10.8c4-4.5,10.1-6.6,16-5.4c7,1.2,13.6,6.5,14,16.4
				c0.4,8.5-5.7,11.6-5.7,11.6s-1.6-10.5-8-7c-6.4,3.5-11.7,10.3-11.7,10.3s-5.9-6.5-21.8-3.4c0,0,0.4,4,7.3,5.7
				c6,1.5,5.9,4.6,5.9,4.6s10.7-4.4,14-1.7c2.8,2.2,6.4,3.4,10,3.1c3.2,0-0.9,4.9-9.3,3.3c0,0,4.8,8.2,15.1,4.3
				c17.2-6.5,15.8-28.1,13.5-39.9C521.3,394.1,509.1,381.9,488.7,382.9z"/>
			<path class="st2" d="M359.2,535.8h196.2c3.6,0,6.4,2.9,6.4,6.4v5.4c0,3.6-2.9,6.4-6.4,6.4H359.2c-3.6,0-6.4-2.9-6.4-6.4v-5.4
				C352.7,538.7,355.6,535.8,359.2,535.8z"/>
			<path class="st0" d="M552.7,529H361.9c-5.1,0-9.2,5.1-9.2,0l0,0c0-5.1,4.1-9.2,9.2-9.2h190.8c5.1,0,9.2,4.1,9.2,9.2l0,0l0,0
				C561.8,534.1,557.7,529,552.7,529z"/>
			<path class="st0" d="M561.8,560.8c0,5.1-4.1,9.1-9.2,9.2h-8c-3.4,0-6.1,2.8-6.1,6.1l0,0c0,5.7-4.1,10.3-9.2,10.3H528
				c-5.1,0-9.2-4.6-9.2-10.3l0,0c0-3.4-2.8-6.1-6.1-6.1c-4.1-0.1-6.5,2-8,6.7c0,0-1.1,8.6-1.4,12c-0.4,4.2-2.5,7.7-6.5,7.7
				c-8.1,0-7.5-14-7.5-14c0-6.8-3.7-12.4-10.5-12.4H362c-5,0-9.1-4-9.2-9c0-1.8,0.4-2.4,1.3-2.4c1.6,0,4.5,2.2,7.9,2.2h190.8
				C557.7,560.8,561.8,555.8,561.8,560.8z"/>
			<path class="st2" d="M549.1,498.5c-2.5-9.7-7.4-14.4-7.4-14.4c-4.3-15.9-21.5-22.5-21.5-22.5c-3.5-6.6-16.5-4.2-16.5-4.2
				c-3.2-4.5-10.9-4.5-10.9-4.5c-2.4-2.1-6.3-6.1-12.7-7.4c-1.4-0.3-2.8-0.7-4.2-1.2c-3.1-1.2-6.5-1.4-9.7-0.6
				c-2.1,0.5-4.2,0.8-6,1.1c-4.3,0.6-8.6,0.6-12.8,0c-1.8-0.3-3.9-0.6-6-1.1c-3.2-0.7-6.6-0.5-9.7,0.6c-1.4,0.5-2.7,0.9-4.2,1.2
				c-6.3,1.3-10.3,5.3-12.7,7.4c0,0-7.7,0-10.9,4.5c0,0-13-2.4-16.4,4.2c0,0-17.2,6.6-21.5,22.5c0,0-4.8,4.6-7.4,14.1
				c-0.8,2.8-1.7,5.6-3,8.3c-1.1,2.4,0,5.1,2.4,6.2c0.9,0.4,1.9,0.5,2.9,0.3c4.6-1.1,9.3-1.4,14-1c2.8,0.4,5.7,0.6,8.6,0.6
				c4.6-0.1,10.9-0.6,14.1-1.8c0,0,11.9,4,20.4,0c0,0,22.9,2.7,35.8,1.3c13,1.3,35.8-1.3,35.8-1.3c8.5,4,20.4,0,20.4,0
				c3.2,1.3,9.5,1.7,14.1,1.8c2.9,0,5.8-0.2,8.6-0.6c4.2-0.4,8.4-0.2,12.5,0.7c3,0.6,5.9-1.4,6.5-4.4c0.2-0.9,0.1-1.9-0.2-2.8
				C550.7,503.2,549.7,500.9,549.1,498.5z"/>
			<path class="st2" d="M552.7,578.2h-8c-1.5,0-2.8,1.2-2.8,2.8c0,0,0,0,0,0c0,7.5-5.6,13.6-12.5,13.6H528
				c-6.9,0-12.5-6.1-12.5-13.6c0-1.4-1-2.6-2.4-2.8H513l-0.5-0.1c-1.7,0-3.2,0.3-4.5,4.1c-0.2,1.6-1,8.7-1.3,11.6
				c-0.6,6.5-4.4,10.7-9.8,10.7l0,0c-2.5,0-4.9-1-6.6-2.8c-4.5-4.6-4.3-13.2-4.3-14.5c0-4.4-1.9-9-7.2-9h-60.6h-0.5l-0.3-0.1
				c-7.8-2.2-18.1-0.4-20.3,0l-0.4,0.1l-0.4-0.1c-4.7-0.8-9.5-1.1-14.2-1.1c-3,0-5.9,0.1-8.9,0.4c-5.9,0.3-11.9-0.1-17.8-1.1
				c-2.8-0.5-0.8,6.2,1,10.5c1.6,3.8,4.2,7.1,7.6,9.5c4.4,10.8,22.2,15.2,22.2,15.2c3.6,4.5,17,2.9,17,2.9
				c3.3,3.1,11.2,3.1,11.2,3.1c4,2.6,8.4,4.4,13.2,5.1c1.4,0.2,2.9,0.5,4.3,0.8c3.3,0.8,6.7,0.9,10,0.4c2.2-0.3,4.3-0.5,6.2-0.7
				c4.4-0.4,8.9-0.4,13.3,0c1.9,0.2,4,0.4,6.2,0.7c3.3,0.5,6.7,0.3,10-0.4c1.4-0.3,2.9-0.6,4.3-0.8c4.7-0.7,9.2-2.4,13.2-5
				c0,0,8,0,11.2-3.1c0,0,13.5,1.6,17-2.9c0,0,17.8-4.5,22.2-15.2c3.4-2.4,6-5.7,7.6-9.5C555,582.6,555.8,578.2,552.7,578.2z"/>
		</g>
	</g>
</g>
</svg>
