<svg xmlns="http://www.w3.org/2000/svg" viewBox="0 0 1287.77 412.78"><defs><style>.cls-1{fill:#fff;}</style></defs><g id="Capa_2" data-name="Capa 2"><g id="Capa_1-2" data-name="Capa 1"><rect class="cls-1" width="1287.77" height="412.78"/><path d="M242,328.11s.89-21.56,0-27.95c-.59-4.3-2.35-7.67-7.16-8.06h-.18L219.11,292v36.16H213V253.27h15.4c18.56,0,22.24,5.51,22.24,15.18,0,0,.67,11.44-3.11,16.12-2.09,2.58-5.8,3.43-6.83,4,0,0,9.94,1.9,9.94,14.88v24.63Zm-22.92-42.75H233l.19,0c9.6,0,11-9.8,11-16.76,0-3.48-.81-5.92-2.47-7.45s-2.85-3.2-20.11-3.2h-2.48Z"/><path d="M332.5,328.36c-9.86,0-18.54-4.48-19.1-14.43V296.07c1-22,11.91-22.27,17.59-22.27,9.86,0,17.83,5.44,17.7,15.71l.13,13.9H319.88v6.31c0,12.75,8.09,12.91,12.25,12.91,10.24,0,9.76-12.77,9.76-12.77h6.8S349.93,328.36,332.5,328.36Zm-1.64-49.87c-12.49,0-11,18.26-11,18.26H342S345.79,278.49,330.86,278.49Z"/><path d="M425.77,328.11c-18.92,0-16.83-16.28-16.83-16.28h7.37s-.67,11.39,9.08,11.39c6.19,0,8.28-4.91,8.42-9.53.15-5.14-4-8.63-10.8-11.61-6.48-2.83-11.81-7.11-11.89-14.8-.1-9.41,5.82-14.15,14.87-14.15,16.83,0,14.14,16.75,14.14,16.75h-6.71s1.51-11.16-7.21-11.16c-7.07,0-8.43,5.18-8.43,7.86,0,4,2.81,7.31,9.55,10.39,8,3.68,13.86,7.54,13.85,16.72C441.17,323.81,436.26,328.11,425.77,328.11Z"/><path d="M778.44,328.11V274.23h9v4.71s2.57-4.64,13.33-4.64v6.62c-8.28-.17-13,3.94-13.43,7.79v.12l-.12,39.28Z"/><path d="M872.87,328.11c-5.94,0-16.31-1.85-16.31-16.8a13.9,13.9,0,0,1,5.26-10.89,17.71,17.71,0,0,1,11.43-3.95h12.16l0-7.08a10.4,10.4,0,0,0-2.75-7.18,8,8,0,0,0-6-2.6,10,10,0,0,0-10.29,8h-7.66c0-9.91,8.56-14,17.58-14,9.86,0,15.14,2.87,15.9,14.39v40.09h-6.73v-4.94A18.92,18.92,0,0,1,872.87,328.11Zm2.45-27.24c-4.11,0-10,3-10,11.8,0,7.5,3.7,9.66,8.25,9.66,4.28,0,11.76-3.38,11.76-9.86l0-11.6Z"/><path d="M597.25,328.11c-5.94,0-16.31-1.85-16.31-16.8a13.9,13.9,0,0,1,5.26-10.89,17.71,17.71,0,0,1,11.43-3.95h12.16l0-7.08a10.49,10.49,0,0,0-2.75-7.18,8.07,8.07,0,0,0-6-2.6,10,10,0,0,0-10.29,8H583c0-9.91,8.56-14,17.58-14,9.86,0,15.14,2.87,15.9,14.39v40.09h-6.73v-4.94A18.92,18.92,0,0,1,597.25,328.11Zm2.45-27.24c-4.11,0-10,3-10,11.8,0,7.5,3.7,9.66,8.25,9.66,4.28,0,11.76-3.38,11.76-9.86l0-11.6Z"/><path d="M956.53,328.11V274.23h6.76v6.1s3.07-6.18,12-6.18C982.44,274.15,990,276,990,288v39.85h-6.78V292.82c0-12.49-5.51-13.83-9.44-13.83-5.82,0-9.19,4.65-10.51,14.6l0,.16v34.36Z"/><path d="M714.26,274.3v53.81h-6.34v-6.3S705,328,696.64,328c-6.7,0-13.83-1.86-13.83-13.87V274.55h6.36v34.78c0,12.48,5.17,13.82,8.86,13.82,5.47,0,8.62-4.65,9.87-14.6l0-.16V274.3Z"/><path d="M522.94,328.11c-7.6,0-15.53.36-15.53-13.43V281h-9v-6.7h8.93V263.13H514V274.3h8.94V281h-8.82v33.22l0,.19c0,7.7,8.8,6.58,8.8,6.58Z"/><path d="M1074.77,328.11c-7.59,0-15.52.36-15.52-13.43V281h-9v-6.7h8.94V263.13h6.7V274.3h8.93V281H1066v33.22l0,.19c0,7.7,8.79,6.58,8.79,6.58Z"/><path d="M335.67,194.19H97.21V100.4a13.31,13.31,0,0,0-13.3-13.3h0a13.3,13.3,0,0,0-13.29,13.3V220.77H335.67a13.29,13.29,0,0,0,0-26.58Z"/><path d="M351.24,133.12v43.23c0,21.8,22.72,44.43,44.6,44.43H627.6c21.88,0,44.6-22.63,44.6-44.43V133.12c0-21.8-22.72-44.43-44.6-44.43H395.84C374,88.69,351.24,111.32,351.24,133.12Zm273.15,61.07H399.05a21.08,21.08,0,0,1-21.12-21V136.32a21.08,21.08,0,0,1,21.12-21H624.39a21.08,21.08,0,0,1,21.12,21v36.83A21.08,21.08,0,0,1,624.39,194.19Z"/><path d="M1211.72,198.28,1054.91,84.43h0L901.83,198.28a13.36,13.36,0,0,0-2.9,18.57h0a13.11,13.11,0,0,0,18.41,2.92L1055.1,118.71l141.11,101.06a13.11,13.11,0,0,0,18.41-2.92A13.37,13.37,0,0,0,1211.72,198.28Z"/><path d="M674.86,110.92,831.5,224.77h0L984.42,110.92a13.38,13.38,0,0,0,2.89-18.57h0a13.08,13.08,0,0,0-18.39-2.92L831.31,190.49,690.36,89.43A13.1,13.1,0,0,0,672,92.35,13.38,13.38,0,0,0,674.86,110.92Z"/></g></g></svg>