<svg xmlns="http://www.w3.org/2000/svg" viewBox="0 0 1196.28 517.82"><defs><style>.cls-1{fill:#b375d7;}.cls-2{fill:#fff;}</style></defs><g id="Capa_2" data-name="Capa 2"><g id="Capa_1-2" data-name="Capa 1"><rect class="cls-1" width="1196.28" height="517.82"/><path class="cls-2" d="M256.7,210.39c-4.86-60.1-61.91-69.73-75.61-70.29-5-.2-81-.2-81-.2V339.41h27.17V284.86h61l39,54.55h32.42l-46.38-63.24C232.89,267.88,256.7,249.71,256.7,210.39Zm-62.56,64a57,57,0,0,1-21.57,4.06H127.23V146.27h43.61a58.59,58.59,0,0,1,26.53,6.12c33.63,17.06,31.74,58,31.74,58S233.51,258.37,194.14,274.43Z"/><polygon class="cls-2" points="826.35 339.41 826.35 139.69 799.19 139.69 799.19 139.75 799.16 139.69 734.48 279.57 665.95 139.79 636.45 139.79 636.45 339.83 642.82 339.83 642.82 152.57 724.37 316.27 799.19 158.38 799.19 339.41 826.35 339.41"/><path class="cls-2" d="M1074.73,393.09v0c0,13.73-15.92,16.46-15.92,16.46,10.77,0,15.92,17.4,15.92,16.45v0c0-13.73,15.92-16.45,15.92-16.45C1079.88,409.55,1074.73,392.14,1074.73,393.09Z"/><path class="cls-2" d="M462,393.09v0c0,13.73-15.91,16.46-15.91,16.46,10.76,0,15.91,17.4,15.91,16.45v0c0-13.73,15.92-16.45,15.92-16.45C467.12,409.55,462,392.14,462,393.09Z"/><path class="cls-2" d="M451.54,195.69c-12.16,0-18-19.66-18-18.59v0c0,15.51-18,18.59-18,18.59,12.16,0,18,19.65,18,18.58v0C433.56,198.76,451.54,195.69,451.54,195.69Z"/><path class="cls-2" d="M423.2,222.1c-7.64,0-11.3-12.35-11.3-11.68v0c0,9.75-11.3,11.69-11.3,11.69,7.64,0,11.3,12.35,11.3,11.68v0C411.9,224,423.2,222.1,423.2,222.1Z"/><path class="cls-2" d="M945.27,275.52h95.41l27.2,63.89h28.34l-85.08-199.62,0,0v0h-18l-84.13,200h8.47Zm48.11-111L1038,269.16H948Z"/><path class="cls-2" d="M371,219.38c7-57,48.07-75.45,66.86-78,9.31-1.27,20.16.53,32.15,7.11v-9.13c-10.35-5-24.5-6.09-37.72-4.37-63.84,8.3-85.17,58.28-89.94,87.82-4.25,26.27,3.43,50.16,4.75,54,2.81-3.28,9.73-7.83,26.64-8.47C369.12,256.14,368.41,240.35,371,219.38Z"/><path class="cls-2" d="M491.22,330.18l-14.35-4.91c-12.44,9-26.18,10.55-33,11.06-17.59,1.34-33.25-8.38-39.16-14.22l-18.36,5.62c5.73,2.34,29.27,18,63.88,15.06C466.45,341.42,479.65,337.06,491.22,330.18Z"/><path class="cls-2" d="M540.84,211.6c-4.77-31.28-37.09-55.89-37.09-55.89v30.88c6.05,7.64,9.23,26.11,9.23,26.11Z"/><path class="cls-2" d="M504.74,389.27c-9.61,0-17.44,9.07-17.44,20.21a22.22,22.22,0,0,0,4.33,13.91,17.22,17.22,0,0,0,12.83,6.3h.19l.2.05c.17,0,.76,0,1.23,0a19.67,19.67,0,0,0,10.92-3.2,3.77,3.77,0,0,0,1.64-3.05,2.74,2.74,0,0,0-.52-1.69l-.06-.07,0-.08a3.48,3.48,0,0,0-3-1.54,3.84,3.84,0,0,0-1.93.53,12.74,12.74,0,0,1-7.63,2.05h-.65c-4.86-.19-8.26-2.94-9.83-8l-.84-2.68H518.7a3.57,3.57,0,0,0,3.47-3.58,19.87,19.87,0,0,0-5-13.64A16.36,16.36,0,0,0,504.74,389.27Zm-10.19,15.78,1.69-3.07c2-3.6,5.16-5.75,8.5-5.75a10.06,10.06,0,0,1,9,5.82l1.49,3Z"/><path class="cls-2" d="M555,405.61a34.8,34.8,0,0,0-6.45-2.24h-.07l-.07,0c-4-1.18-5.69-2.72-5.69-5.14,0-1.91,2.6-3.89,6.95-3.89a8,8,0,0,1,4.15,1.18,3.87,3.87,0,0,0,2,.55,3.47,3.47,0,0,0,2.93-1.61,3.51,3.51,0,0,0-1.16-4.9,15.39,15.39,0,0,0-7.88-2.27c-8,0-14,4.7-14,10.94,0,5.79,3.68,9.78,10.94,11.87l0,0,.23.05c2.48.59,8.25,2.69,9.27,5.14l.16.38v.41a5.53,5.53,0,0,1-1.6,4c-1.53,1.75-4,2.67-7.16,2.67-2.42,0-5.54-.92-7-3.52a3.67,3.67,0,0,0-3.09-1.83,3.72,3.72,0,0,0-1.74.48,3.4,3.4,0,0,0-1.74,3,4.14,4.14,0,0,0,.49,1.84,15,15,0,0,0,13.12,7.09,16.47,16.47,0,0,0,12.35-5,12.62,12.62,0,0,0,3.37-8.63v-1C562.9,411.3,560.11,408.07,555,405.61Z"/><path class="cls-2" d="M596.13,389.27h-7.71V370.48a3.48,3.48,0,1,0-7,0v18.79h-7.7a3.53,3.53,0,0,0,0,7.05h7.7v30a3.48,3.48,0,1,0,7,0v-30h7.71a3.53,3.53,0,0,0,0-7.05Z"/><path class="cls-2" d="M639.43,389.27a3.49,3.49,0,0,0-3.48,3.57v21.71a10,10,0,0,1-1.32,4.55c-1.33,2.44-3.76,3.63-7.44,3.63-4.7,0-6.47-1.9-7.49-3.56l-.07-.12a10.86,10.86,0,0,1-1.2-4.5V392.84a3.57,3.57,0,0,0-3.57-3.57,3.49,3.49,0,0,0-3.48,3.57v21.71a16.83,16.83,0,0,0,2,7.46c2.63,5.08,7.41,7.77,13.84,7.77s11.14-2.7,13.84-7.76a17.43,17.43,0,0,0,1.88-7.47V392.84A3.49,3.49,0,0,0,639.43,389.27Z"/><path class="cls-2" d="M691.62,367a3.48,3.48,0,0,0-3.48,3.48v23.4L685,392.05a20,20,0,0,0-10.14-2.78,20.26,20.26,0,0,0,0,40.51,20.64,20.64,0,0,0,10.6-2.95l2-1.2,1,2.12a3.53,3.53,0,0,0,3.18,2,3.49,3.49,0,0,0,3.57-3.48V370.48A3.49,3.49,0,0,0,691.62,367Zm-16.73,55.73a13.21,13.21,0,1,1,13.25-13.16A13.18,13.18,0,0,1,674.89,422.73Z"/><path class="cls-2" d="M710.45,369.87a3.53,3.53,0,0,0,0,7.05,3.53,3.53,0,1,0,0-7.05Z"/><path class="cls-2" d="M710.45,389.27a3.58,3.58,0,0,0-3.48,3.57V426.3a3.48,3.48,0,0,0,3.48,3.48A3.57,3.57,0,0,0,714,426.3V392.84A3.67,3.67,0,0,0,710.45,389.27Z"/><path class="cls-2" d="M746,389.27a20.26,20.26,0,1,0,20.3,20.3A20.28,20.28,0,0,0,746,389.27Zm0,33.46a13.21,13.21,0,1,1,13.25-13.16A13.18,13.18,0,0,1,746,422.73Z"/><path class="cls-2" d="M823.92,389.27a21.18,21.18,0,0,0-10.62,3l-2,1.16-.94-2.1a3.43,3.43,0,0,0-3.18-2,3.48,3.48,0,0,0-3.48,3.48v55.83a3.47,3.47,0,0,0,3.48,3.47,3.57,3.57,0,0,0,3.57-3.47v-23.4l3.12,1.83a19.85,19.85,0,0,0,10,2.77,20.26,20.26,0,1,0,0-40.51Zm0,33.46a13.21,13.21,0,1,1,13.25-13.25A13.22,13.22,0,0,1,823.92,422.73Z"/><path class="cls-2" d="M859.48,369.87a3.53,3.53,0,0,0,0,7.05,3.53,3.53,0,1,0,0-7.05Z"/><path class="cls-2" d="M859.48,389.27a3.57,3.57,0,0,0-3.48,3.57V426.3a3.48,3.48,0,0,0,3.48,3.48,3.57,3.57,0,0,0,3.57-3.48V392.84A3.67,3.67,0,0,0,859.48,389.27Z"/><path class="cls-2" d="M878.31,367a3.48,3.48,0,0,0-3.48,3.48V426.3a3.53,3.53,0,0,0,7,0V370.48A3.49,3.49,0,0,0,878.31,367Z"/><path class="cls-2" d="M928.43,405.18c0-.4-.07-9.77-6.86-13.58a19.63,19.63,0,0,0-9.42-2.23,21.91,21.91,0,0,0-2.3.08,23,23,0,0,0-12.58,5.21,3.56,3.56,0,0,0-.47,4.87,3.51,3.51,0,0,0,2.73,1.29,3.42,3.42,0,0,0,2.23-.79,17.9,17.9,0,0,1,10.58-3.71,12.49,12.49,0,0,1,5.75,1.39l.09.05c2,1.17,2.67,4,2.88,5.12l.53,2.84-2.85-.41a23.34,23.34,0,0,0-3.34-.17c-.7,0-1.37,0-2,.05s-1.4.05-2.13.05c-7.52.28-12.74,2.26-15.52,5.88a9.9,9.9,0,0,0-2.05,6.1,9.73,9.73,0,0,0,.31,2.61l0,.07c1.49,6.31,6.28,9.79,13.47,9.79a26.58,26.58,0,0,0,4.93-.52l.75-.13a22.25,22.25,0,0,0,6-2.08l1.91-1,.92,1.94a3.41,3.41,0,0,0,3.1,1.88,3.51,3.51,0,0,0,3.48-3.44l-.1-6.15ZM920,416.5l0,.1a11.6,11.6,0,0,1-8.12,5.52h0l-.07,0-.27,0a20.18,20.18,0,0,1-4,.42c-5,0-6.18-2.3-6.69-4.33l-.06-.25V418a2.55,2.55,0,0,1-.09-.66,3.08,3.08,0,0,1,.5-1.69l.09-.18.13-.17c1.31-1.68,4.71-2.8,9.1-3,2.33-.1,3.73-.1,5-.1a25.71,25.71,0,0,1,3.54.21l2.64.38Z"/><path class="cls-2" d="M963.1,389.27h-7.71V370.48a3.48,3.48,0,1,0-7,0v18.79h-7.7a3.53,3.53,0,0,0,0,7.05h7.7v30a3.48,3.48,0,0,0,7,0v-30h7.71a3.53,3.53,0,0,0,0-7.05Z"/><path class="cls-2" d="M992,389.27c-9.62,0-17.44,9.07-17.44,20.21a22.22,22.22,0,0,0,4.33,13.91,17.21,17.21,0,0,0,12.83,6.3h.19l.2.05c.17,0,.76,0,1.22,0a19.7,19.7,0,0,0,10.93-3.2,3.76,3.76,0,0,0,1.63-3.05,2.74,2.74,0,0,0-.52-1.69l-.05-.07,0-.08a3.49,3.49,0,0,0-3-1.54,3.82,3.82,0,0,0-1.93.53,12.74,12.74,0,0,1-7.63,2.05h-.65c-4.87-.19-8.26-2.94-9.83-8l-.84-2.68h24.51a3.58,3.58,0,0,0,3.48-3.58,19.83,19.83,0,0,0-5-13.64A16.33,16.33,0,0,0,992,389.27Zm-10.2,15.78,1.69-3.07c2-3.6,5.17-5.75,8.51-5.75a10.06,10.06,0,0,1,9,5.82l1.49,3Z"/><path class="cls-2" d="M1042.23,405.61a34.8,34.8,0,0,0-6.45-2.24h-.07l-.07,0c-4-1.18-5.69-2.72-5.69-5.14,0-1.91,2.6-3.89,6.94-3.89a8,8,0,0,1,4.16,1.18,3.87,3.87,0,0,0,2,.55,3.47,3.47,0,0,0,2.93-1.61,3.51,3.51,0,0,0-1.16-4.9,15.4,15.4,0,0,0-7.89-2.27c-8,0-14,4.7-14,10.94,0,5.79,3.68,9.78,10.93,11.87l.06,0,.23.05c2.47.59,8.25,2.69,9.27,5.14l.16.38v.41a5.53,5.53,0,0,1-1.6,4c-1.54,1.75-4,2.67-7.16,2.67-2.42,0-5.55-.92-7-3.52a3.47,3.47,0,0,0-4.82-1.35,3.38,3.38,0,0,0-1.74,3,4,4,0,0,0,.49,1.84,15,15,0,0,0,13.12,7.09,16.47,16.47,0,0,0,12.35-5,12.61,12.61,0,0,0,3.36-8.63v-1C1050.12,411.3,1047.33,408.07,1042.23,405.61Z"/><path class="cls-2" d="M568.28,307.37c-2.24-.46-4.55-.56-6.79-1a10.17,10.17,0,0,1-3.76-1.45c-1.69-1.2-3-2.89-4.71-4.09-4.78-3.4-6.91-8.22-7.64-13.8-1.06-8.13.17-16,2.39-23.85a1.85,1.85,0,0,1,1.3-1.49c1.1-.36,1.43-1.08,1.33-2.3-.23-2.57-.31-5.16-.29-7.74.06-6.29.34-12.59.28-18.88,0-4.91-2.27-8.63-6.94-10.64a13.51,13.51,0,0,0-6.36-1c-5.69.39-11.35,1.16-17.1.63-7-.65-14,.09-21,.63l-2.33.15c-.05-.35-.09-.51-.1-.67-.56-8.78-1.06-17.57-1.72-26.34a128.51,128.51,0,0,1-.16-21.49c1-10.79,1.91-21.6,2.79-32.4a3.26,3.26,0,0,0-.8-2.35,3.35,3.35,0,0,1-1.13-2.85,10.71,10.71,0,0,0-.14-1.87c-.91-6.61-1.87-13.21-2.72-19.82-.4-3.09-1.36-6.2-.56-9.3a49.35,49.35,0,0,1,2.58-7,4.72,4.72,0,0,0-1.33-6c-4.48-3.91-6.56-9-7.12-14.83-.26-2.65-.69-5.29-1.21-7.91a4.62,4.62,0,0,0-4.2-3.87c-1.34-.19-1.93.19-2,1.54s.07,2.84.07,4.25a56.16,56.16,0,0,1-.14,8.11c-1.3,8.78-1,17.55-.26,26.33.29,3.41,1,6.81.93,10.21-.16,6.83-.74,13.65-1.12,20.47a2.63,2.63,0,0,1-1.07,2.1c-.57.46-1.29,1.37-1.19,1.94a34.77,34.77,0,0,1-.69,13.89c-1.57,7.08-3.13,14.17-3.63,21.44a74.44,74.44,0,0,1-1.14,9c-.7,3.6-1.83,7.11-2.55,10.7A338.77,338.77,0,0,0,463.25,230c-.22,2.23-.21,2.23-2.31,2.88-.52.16-1,.33-1.54.52-5.85,2.1-10.87,5.6-15.8,9.26-1.67,1.24-3.36,2.47-5.14,3.54-2.13,1.28-4.49,2.21-6.55,3.59a85.54,85.54,0,0,0-13.54,10.44,28,28,0,0,1-8.12,5.76,50,50,0,0,0-5.12,3.12,9.45,9.45,0,0,0-4.74,7.65c-.1,1.25-.3,2.49-.43,3.73-.23,2.24-.41,4.48-.68,6.72,0,.32-.37.82-.64.87-2.44.42-4.9.75-7.53,1.14.27-.72.5-1.37.75-2a13.16,13.16,0,0,0,1.13-6.46c-.39-2.88-2.24-4.17-5-3.53-.44.1-.88.22-1.4.35a2.48,2.48,0,0,0-3.52-.83c-1.63.89-1.63.89-2.36-.83s-1.7-1.91-3-.63a10.57,10.57,0,0,0-1,1.08,4.25,4.25,0,0,1-5.47,1.41c-1.65-.76-3.11-1.23-4.88-.53-1.1.43-2.34.5-3.46.89-1.83.66-3.64,1.4-5.42,2.19a7.27,7.27,0,0,0-2,1.27,30.35,30.35,0,0,0-3,3,10.12,10.12,0,0,0-1.5,2.56c-.51,1.27-.85,2.61-1.24,3.92-1.47,5-1.7,9.93,1.12,14.49a82.9,82.9,0,0,0,5.75,7.64c2.75,3.48,6.56,5.08,10.78,6,5.57,1.27,11.2,1,16.81.71a25.34,25.34,0,0,0,7.14-1.63c3.05-1.09,6-2.57,8.94-3.87a15.16,15.16,0,0,1,9-1.07,129.56,129.56,0,0,0,27.89,1.87c8.41-.29,16.73-1.88,25.17-1.63,3.83.11,7.69-.43,11.49-.12a93.8,93.8,0,0,0,17.73.13,55.1,55.1,0,0,1,13.58,0,39.92,39.92,0,0,0,8.09.46c4.8-.3,9.58-.94,14.37-1.5a1.57,1.57,0,0,0,1.09-1,1.6,1.6,0,0,0-.67-1.24,6.19,6.19,0,0,0-2-1c-4.06-1.05-8.13-2.14-12.23-3a25.22,25.22,0,0,0-4.85-.18,28.68,28.68,0,0,1-3.59,0c-2.64-.41-5.23-1.26-7.87-1.44-6.16-.41-12.25-1.27-18.36-2.09-7.09-.94-14.3-.89-21.46-1.28a15.16,15.16,0,0,1-2.24-.19c-4.2-.85-8.38-1.77-12.59-2.61-1.53-.3-3.1-.46-5.13-.75,1.05-1.46,1.68-3,2.81-3.77a32.91,32.91,0,0,0,7.28-7.85c3.11-4.28,6.14-8.62,9.13-13a8.84,8.84,0,0,1,5.56-3.73,25.66,25.66,0,0,1,11.27-.12c8.26,1.71,15.18-.46,20.31-7.43.72-1,1.43-1.95,2.2-2.89a1.84,1.84,0,0,1,1.07-.71,30.44,30.44,0,0,0,9.79-2.45c6.53-2.75,13-5.68,19.46-8.54,1.31-.57,2.61-1.17,4.1-1.83,0,.53-.06.81-.1,1.09a76.86,76.86,0,0,0-.6,16c0,.41.2,1.11.42,1.16,1.14.26,1.23,1.1,1.32,2a240.63,240.63,0,0,1,1.53,30.72,16.91,16.91,0,0,1-.82,3.87c-.57,2.09-1.37,4.13-1.77,6.24-.56,3,.71,4.91,3.55,6.09a8.72,8.72,0,0,0,5.64.07,29.06,29.06,0,0,1,13-.18,29.89,29.89,0,0,0,5.56.7c2.32.05,4.66-.2,7-.34a5.61,5.61,0,0,0,4-1.6C571.26,309.41,570.86,307.89,568.28,307.37Z"/></g></g></svg>