<?xml version="1.0" encoding="utf-8"?>
<!-- Generator: Adobe Illustrator 24.3.0, SVG Export Plug-In . SVG Version: 6.00 Build 0)  -->
<svg version="1.1" id="Capa_1" xmlns="http://www.w3.org/2000/svg" xmlns:xlink="http://www.w3.org/1999/xlink" x="0px" y="0px"
	 viewBox="0 0 908.8 772.3" style="enable-background:new 0 0 908.8 772.3;" xml:space="preserve">
<style type="text/css">
	.st0{fill:#FFFFFF;}
	.st1{fill:#87946B;}
</style>
<g id="Capa_2_1_">
	<g id="Capa_1-2">
		<rect class="st0" width="908.8" height="772.3"/>
		<g>
			<path class="st1" d="M99.3,509.4h27.9l18.1,129.5h0.5l18.1-129.5h25.4l-26.6,167H126L99.3,509.4z"/>
			<path class="st1" d="M224.8,509.4h37.5l28.6,167h-27.6l-5-33.2v0.5h-31.5l-5,32.7h-25.7L224.8,509.4z M255,621l-12.3-82.5h-0.5
				L230.1,621L255,621z"/>
			<path class="st1" d="M299.8,509.4h27.7v143.1H373v23.8h-73.2V509.4z"/>
			<path class="st1" d="M394.5,667.9c-7-7.2-10.5-17.6-10.5-31.1V509.4h27.6v129.3c0,5.7,1.2,9.9,3.6,12.4s5.9,3.8,10.4,3.8
				s8-1.3,10.4-3.8s3.6-6.7,3.6-12.4V509.4h26.6v127.4c0,13.5-3.5,23.9-10.5,31.1c-7,7.2-17.3,10.8-30.7,10.8
				S401.6,675.1,394.5,667.9z"/>
			<path class="st1" d="M481.6,509.4h34.7l26.9,99.9h0.5v-99.9h24.6v167h-28.4l-33.2-121.9h-0.5v121.9h-24.6V509.4z"/>
			<path class="st1" d="M588.5,509.4h27.7v167h-27.7V509.4z"/>
			<path class="st1" d="M658.2,533.2h-28.9v-23.8h85.5v23.8h-28.9v143.1h-27.6V533.2z"/>
			<path class="st1" d="M743.4,509.4h37.4l28.7,167h-27.7l-5-33.2v0.5h-31.4l-5,32.7h-25.7L743.4,509.4z M773.6,621l-12.3-82.5h-0.5
				L748.7,621L773.6,621z"/>
			<path class="st1" d="M674.9,335.3l-56.2-26.1c3.2-13.2,4.8-26.7,4.7-40.2c0-96.8-78.4-175.3-175.2-175.4S272.9,172,272.9,268.9
				c0,96.8,78.4,175.3,175.2,175.4c62.2,0,119.8-32.9,151.3-86.6l53.6,25c3.7,1.7,8.2,0.1,9.9-3.6l15.7-33.8
				C680.3,341.4,678.7,337,674.9,335.3C674.9,335.3,674.9,335.3,674.9,335.3z M448.2,415.9c-81.1,0-146.9-65.8-146.9-146.9
				c0-81.1,65.8-146.9,146.9-146.9c81.1,0,146.9,65.8,146.9,146.9C595.1,350.1,529.4,415.9,448.2,415.9
				C448.3,415.9,448.2,415.9,448.2,415.9L448.2,415.9z"/>
			<path class="st1" d="M543.1,343.2c-1.5,12.9-40.9,47.2-86.8,48.5c-75.1,2-132.7-57.3-132.7-130.4c0-54.7,32-91.9,62.3-95.6
				c-6.1,12.8-14.6,26.5-14.6,59.4c0,70.9,49.2,124.4,125,127.2C513.8,352.8,527.4,349.4,543.1,343.2z"/>
		</g>
	</g>
</g>
</svg>
