<svg xmlns="http://www.w3.org/2000/svg" viewBox="0 0 937.23 945.87"><defs><style>.cls-1{fill:#03033d;}.cls-2{fill:none;stroke:#03033d;stroke-miterlimit:10;stroke-width:11.68px;}.cls-3{fill:#fff;}.cls-4{fill:#0222ca;}.cls-5{fill:#1741f4;}.cls-6{fill:#fdfdfd;}.cls-7{fill:#e3e8e8;}.cls-8{fill:#476dfd;}</style></defs><g id="Capa_2" data-name="Capa 2"><g id="Capa_1-2" data-name="Capa 1"><path class="cls-1" d="M332,516.88c-57-5.39-121.75-76.77-121.75-76.77-.32-.48-7.48-10-7.73-10.48-21.09-24,3.35-33.89,1.05-40.25-3.54-9.79-8.05-21.73-13.85-27.74-6.23-6.44-22.82-12.76-22.82-12.76l-69.6-30.29c-29.49-12.14-46.4-39.66-46.4-75.53V186.63a69.83,69.83,0,0,0-20.36-49.46L13,119.54A24.7,24.7,0,0,1,26.13,77.85V65.34a59.57,59.57,0,0,1,59.5-59.5H857a59.57,59.57,0,0,1,59.51,59.5V79.5a24.71,24.71,0,0,1,7.67,40l-17.48,17.63a69.86,69.86,0,0,0-20.35,49.46v56.43c0,35.35-17.22,63.52-46.06,75.39l-70,30.43A79.68,79.68,0,0,0,745,360.28c1.66,15.44-9.85,43.24-9.85,43.24,13.4,0-2.39,26.41-2.46,26.52C642.74,562.9,389,522.27,332,516.88M906.68,103.93h0Z"/><path class="cls-2" d="M332,516.88c-57-5.39-121.75-76.77-121.75-76.77-.32-.48-7.48-10-7.73-10.48-21.09-24,3.35-33.89,1.05-40.25-3.54-9.79-8.05-21.73-13.85-27.74-6.23-6.44-22.82-12.76-22.82-12.76l-69.6-30.29c-29.49-12.14-46.4-39.66-46.4-75.53V186.63a69.83,69.83,0,0,0-20.36-49.46L13,119.54A24.7,24.7,0,0,1,26.13,77.85V65.34a59.57,59.57,0,0,1,59.5-59.5H857a59.57,59.57,0,0,1,59.51,59.5V79.5a24.71,24.71,0,0,1,7.67,40l-17.48,17.63a69.86,69.86,0,0,0-20.35,49.46v56.43c0,35.35-17.22,63.52-46.06,75.39l-70,30.43A79.68,79.68,0,0,0,745,360.28c1.66,15.44-9.85,43.24-9.85,43.24,13.4,0-2.39,26.41-2.46,26.52C642.74,562.9,389,522.27,332,516.88ZM906.68,103.93h0Z"/><path class="cls-3" d="M60.88,185.51v58.41c0,25.69,10.47,52.22,38.2,63.57l15,6.55c22,9.58,43.28,18.42,66.25,25.45,23.26,7.11,57.84,67.68,57.84,67.68s455.12-4.8,459.5-.42c0,0,34.58-60.57,57.84-67.68,23-7,44.22-15.87,66.25-25.46l15-6.54c27.73-11.35,38.2-37.88,38.2-63.57V185.09A84,84,0,0,1,899.38,126L917,108.23a11.53,11.53,0,0,0-8.19-19.65h-2.87V63.08a46.68,46.68,0,0,0-46.54-46.54h-776A46.67,46.67,0,0,0,36.81,63.08v25.5h-9.4a11.53,11.53,0,0,0-8.19,19.65L36.81,126a84,84,0,0,1,24.34,59.13"/><path class="cls-1" d="M142,134H226l8.06-38.5H73.38a2.93,2.93,0,0,0-2.32,4.73L97.15,134H142Z"/><polygon class="cls-1" points="210.2 158.95 170.96 158.95 136.74 158.95 93.38 158.95 73.35 254.76 116.72 254.76 130 191.26 203.46 191.26 210.2 158.95"/><path class="cls-1" d="M699.66,95.45H618.41L648.15,134h.06l-16.68,79.43a3.09,3.09,0,0,1-3.36,2.88H592.32c-1.18,0-1.67-.59-1.49-1.77l2.38-12H550.73l-6.23,31q-1.86,8.85,3,15t13.73,6.2h77.67q27.42,0,35.09-36.29Z"/><path class="cls-1" d="M851.61,131.73c2.08-10.17,36-36.28,27.08-36.28H735.58a30.82,30.82,0,0,0-30.06,24l-3.24,14.32-25.23,121h43.37l9.06-52.25h62.18l-9.07,52.25H826ZM738.53,165.92l5.89-26.44q1.25-5.53,6.77-5.53h51.12c3.68,0,5.12,1.84,4.29,5.53l-5.9,26.44Z"/><path class="cls-1" d="M502.26,202.54s13.57,1.77,27.82-10.73c7.65-6.71,11.92-15.67,14.06-25.56l7.15-34.51q3.16-15.06-5.1-25.67T522.66,95.45H389.5L422.65,149h42.13L453.5,134h51.14c1.91,0,2.64,1,2.17,2.87l-5.43,26.11a3.08,3.08,0,0,1-3.36,2.88H396L391,196l-12.27,58.72h43.37l10.85-52.22h23.74l32.15,52.22h49.79Z"/><path class="cls-1" d="M387.53,131.73q3.12-15.25-5.12-25.77T358.89,95.45H275.41a37.24,37.24,0,0,0-36.59,30.33l-1.53,8.11-17.56,84.58q-3.34,15.27,5,25.78t23.62,10.51H330a34.88,34.88,0,0,0,25.72-10.51,51.34,51.34,0,0,0,13.79-25.78Zm-63.84,84.53H266.38c-1.92,0-2.71-1-2.39-2.88l16-76.56a3.38,3.38,0,0,1,3.58-2.87h57.31c1.91,0,2.64,1,2.17,2.87l-16,76.56a3.08,3.08,0,0,1-3.36,2.88"/><polygon class="cls-4" points="202.63 175.19 200.13 187.16 126.67 187.16 113.39 250.66 78.39 250.66 94.17 175.19 202.63 175.19"/><path class="cls-4" d="M678.85,175.19,670,217.64c-4.69,22.22-14.85,33-31.08,33H561.26c-4.62,0-8.06-1.51-10.51-4.63s-3.22-7-2.24-11.67l5.58-27.75h34.14l-1.44,7.24a5.37,5.37,0,0,0,5.54,6.5h35.84a7.15,7.15,0,0,0,7.4-6.28l8.16-38.88Z"/><polygon class="cls-4" points="838.37 175.19 822.64 250.66 787.47 250.66 796.53 198.42 726.04 198.42 716.98 250.66 682.09 250.66 697.85 175.1 838.37 175.19"/><path class="cls-4" d="M537.1,175.11a37.23,37.23,0,0,1-9.72,13.62c-10.08,8.85-19.63,9.8-23.27,9.8-.77,0-1.24,0-1.35-.05l-9-1,5.16,7.45,31.88,45.78H491.13L459,198.44H429.61l-10.85,52.22h-35l11.28-54,3.53-21.51Z"/><path class="cls-4" d="M374.35,175.1l-8.83,42.54a47.46,47.46,0,0,1-12.68,23.72,30.68,30.68,0,0,1-22.82,9.3H248.37c-8.94,0-15.62-2.93-20.41-9s-6.19-13.36-4.22-22.35l9.16-44.15h34.89L260,212.54a6.57,6.57,0,0,0,1.24,5.65,6.4,6.4,0,0,0,5.16,2.16H323.7a7.16,7.16,0,0,0,7.4-6.28l8.14-39Z"/><path class="cls-4" d="M107.45,40.72q5.77,2.41,8.09,6.68a21.91,21.91,0,0,1,2.3,10.48,19.51,19.51,0,0,1-2.65,10.29,17.33,17.33,0,0,1-8,6.82,31.39,31.39,0,0,1-13,2.41h-9.6c-3.25,0-6.54,0-9.87-.05q.44-10.45.43-19.47t-.43-19q6.32-.54,17-.53,10,0,15.76,2.41M95.67,66.85q4.93,0,6.58-2.39a11.5,11.5,0,0,0,1.64-6.58,11.22,11.22,0,0,0-1.72-6.52q-1.73-2.51-6.5-2.5a68,68,0,0,0-7.69.32V66.85Z"/><path class="cls-4" d="M134.61,67.7q20.16-.11,29.23-.59a32.67,32.67,0,0,0-.45,4.49c0,1.53-.08,3.47-.08,5.8H122.09q.42-10.29.42-19.25t-.42-19.26h41.22v9.6h-28.7v5.09c1.69,0,4.21.06,7.53.06q8.43,0,17.45-.32v9.12q-9-.31-17.45-.32c-3.32,0-5.84,0-7.53.06Z"/><path class="cls-4" d="M171.08,67.8a49.36,49.36,0,0,0,2.31-5.41,33.46,33.46,0,0,0,8.75,3.4A39.36,39.36,0,0,0,191.42,67a17.55,17.55,0,0,0,6.21-.77c1.2-.51,1.8-1.07,1.8-1.67q0-3.24-9.86-3.24-10.83,0-15.7-2.25T169,51.78a11.33,11.33,0,0,1,6-10.56q5.94-3.39,15.43-3.39a48.44,48.44,0,0,1,11.33,1.4,46,46,0,0,1,10.48,3.85c-1,2.34-2.11,5.18-3.24,8.54-.21.71-.39,1.24-.53,1.59a22.35,22.35,0,0,0-8.17-3.63,38.1,38.1,0,0,0-9.65-1.46q-5.06,0-6.79.66c-1.17.45-1.76,1.09-1.76,1.94s.81,1.53,2.42,2a23.94,23.94,0,0,0,7,.77q11.25,0,16.34,2.57t5.1,7.88q0,7.43-5.41,10.69t-16.4,3.27a57.94,57.94,0,0,1-12-1.3,44.63,44.63,0,0,1-11-3.8,51.8,51.8,0,0,0,3-5"/><path class="cls-4" d="M250.58,77.4q-1-3-2.71-7.58H231l-2.66,7.58H215l14.85-38.51h19.53l15,38.51Zm-5.73-15.86q-2-5.57-4.14-11.14L239.44,47q-1.86,4.83-5.47,14.59Z"/><path class="cls-4" d="M308.51,48.81H279.65v5.57c1.8,0,4.51,0,8.11,0q9.35,0,19-.32v10.4q-9.66-.36-20.38-.37-4.45,0-6.73,0V77.4H267.13q.42-10.29.42-19.25t-.42-19.26h41.38Z"/><path class="cls-4" d="M343.57,49.45q-6.31-.31-9.33-.38V67.22q3.08-.06,9.33-.37V77.4H312.75V66.85q6.11.32,9.28.37V49.07q-3.18.06-9.28.38V38.89h30.82Z"/><path class="cls-4" d="M381.29,77.4q-1-3-2.7-7.58H361.66L359,77.4H345.69l14.86-38.51h19.52L395,77.4Zm-5.73-15.86q-2-5.57-4.14-11.14L370.15,47q-1.86,4.83-5.46,14.59Zm-2.33-24.72h-6.74l1.27-8.22h9.82Z"/><path class="cls-4" d="M454,50q-8.32-.27-16.18-.32V77.4H424.58V49.71q-7.9.06-16.13.32V38.89H454Z"/><path class="cls-4" d="M489.67,38.84h13.16V60a17.59,17.59,0,0,1-5.33,12.89q-5.22,5.1-17.59,5.09t-17.13-4.85q-4.62-4.86-4.51-12.76V38.84h13.15V59.47a17,17,0,0,0,.35,3.8A4.84,4.84,0,0,0,474,66c1.25.85,3.28,1.27,6.07,1.27q4.56,0,6.69-1.3a5.07,5.07,0,0,0,2.52-2.89,17.59,17.59,0,0,0,.39-4.08Z"/><path class="cls-4" d="M510.07,67.8a45.76,45.76,0,0,0,2.31-5.41,33.46,33.46,0,0,0,8.75,3.4A39.44,39.44,0,0,0,530.42,67a17.52,17.52,0,0,0,6.2-.77c1.21-.51,1.81-1.07,1.81-1.67q0-3.24-9.87-3.24-10.81,0-15.7-2.25T508,51.78a11.34,11.34,0,0,1,5.94-10.56q5.94-3.39,15.44-3.39a48.42,48.42,0,0,1,11.32,1.4,45.8,45.8,0,0,1,10.48,3.85c-1,2.34-2.1,5.18-3.24,8.54-.21.71-.39,1.24-.53,1.59a22.27,22.27,0,0,0-8.17-3.63,38.1,38.1,0,0,0-9.65-1.46,22.69,22.69,0,0,0-6.79.66c-1.17.45-1.75,1.09-1.75,1.94s.8,1.53,2.41,2a24,24,0,0,0,7,.77q11.25,0,16.34,2.57T551.85,64q0,7.43-5.41,10.69t-16.39,3.27a57.8,57.8,0,0,1-12-1.3,44.71,44.71,0,0,1-11-3.8,48.06,48.06,0,0,0,3-5"/><path class="cls-4" d="M579.65,66.69q15.38-.1,25.46-.53a28.56,28.56,0,0,0-.85,5.2c-.1,1.66-.16,3.68-.16,6H566.7q.43-10.29.43-19.25t-.43-19.26h12.95Z"/><path class="cls-4" d="M640.18,49.45q-6.31-.31-9.34-.38V67.22q3.07-.06,9.34-.37V77.4H609.35V66.85q6.1.32,9.29.37V49.07q-3.18.06-9.29.38V38.89h30.83Z"/><polygon class="cls-4" points="694.02 38.89 698.16 77.4 684.42 77.4 683.57 49.92 678.27 77.4 664.37 77.4 658.96 50.14 658.16 77.4 644.42 77.4 648.56 38.89 666.6 38.89 671.21 63.98 675.25 38.89 694.02 38.89"/><path class="cls-4" d="M733.23,49.45q-6.32-.31-9.34-.38V67.22q3.08-.06,9.34-.37V77.4H702.41V66.85c4.06.21,7.16.33,9.28.37V49.07c-2.12,0-5.22.17-9.28.38V38.89h30.82Z"/><path class="cls-4" d="M783,50q-8.32-.27-16.18-.32V77.4H753.6V49.71q-7.9.06-16.13.32V38.89H783Z"/><path class="cls-4" d="M799.81,67.7Q820,67.6,829,67.11a32.67,32.67,0,0,0-.45,4.49c-.06,1.53-.08,3.47-.08,5.8H787.29q.42-10.29.42-19.25t-.42-19.26h41.22v9.6h-28.7v5.09q2.54.06,7.53.06,8.43,0,17.45-.32v9.12q-9-.31-17.45-.32-5,0-7.53.06Z"/><path class="cls-4" d="M836.28,67.8a49.36,49.36,0,0,0,2.31-5.41,33.33,33.33,0,0,0,8.75,3.4A39.36,39.36,0,0,0,856.62,67a17.55,17.55,0,0,0,6.21-.77c1.2-.51,1.8-1.07,1.8-1.67q0-3.24-9.86-3.24-10.83,0-15.71-2.25t-4.88-7.3a11.34,11.34,0,0,1,5.94-10.56q6-3.39,15.44-3.39a48.44,48.44,0,0,1,11.33,1.4,46,46,0,0,1,10.48,3.85c-1,2.34-2.11,5.18-3.24,8.54-.21.71-.39,1.24-.53,1.59a22.35,22.35,0,0,0-8.17-3.63,38.11,38.11,0,0,0-9.66-1.46,22.69,22.69,0,0,0-6.79.66c-1.16.45-1.75,1.09-1.75,1.94s.81,1.53,2.42,2a23.94,23.94,0,0,0,7,.77q11.25,0,16.34,2.57t5.1,7.88q0,7.43-5.41,10.69t-16.4,3.27a57.94,57.94,0,0,1-12-1.3,44.49,44.49,0,0,1-11-3.8,51.8,51.8,0,0,0,3-5"/><path class="cls-5" d="M174.89,627.41c.11,2.22.2,4.44.13,6.67-1.46,48.39,27.32,111.11,61.63,138.11a.93.93,0,0,0,1.24-.08.92.92,0,0,0,.07-1.24c-8.06-10.18-14.07-24.94-15.7-38.54-1.77-14.89,1.7-27.13,9.79-34.71.95,16.66,2.9,30.17,6.13,42.36a.92.92,0,0,0,.44.58,1,1,0,0,0,.72.09c2.94-.83,5.74-3.34,8.7-6,2.79-2.5,5.67-5.09,8.76-6.33,20.32,55.55,52.54,105.18,90.77,139.81a.89.89,0,0,0,.58.24,1.93,1.93,0,0,0,1.92-.77c.54-1-.26-2.08-1.36-3.62a15.15,15.15,0,0,1-1.95-3.21s0-.09-.05-.12c-6.84-12.72-12.38-30.94-9.15-42.29,21.32,29.78,50.71,52.57,79.16,74.63l.82.63c31.44,24.13,40.88,40.68,44.91,47.74,1.74,3,2.53,4.43,3.93,4.49h.08c1.44,0,2.51-1.56,5-5.21,3.61-5.23,10.33-15,24.51-29.56,10.89-9.9,22.64-19.31,34-28.41,24.08-19.3,49-39.24,67.36-65.06,1.75,3.33-1.37,26.54-3.37,29.7a.79.79,0,0,0-.15.51c.12,1.77-2.52,6.35-4.63,10-3,5.24-4.56,8-3.86,9.5a1.49,1.49,0,0,0,1.2.84.9.9,0,0,0,.75-.24c41.24-38.89,72.39-87.23,90.09-139.8,1.61,0,7.64,5.13,10.92,7.92,5.49,4.67,6.55,5.46,7.54,4.87a1.1,1.1,0,0,0,.55-1c4.51-14.71,5.83-29.88,6.39-41.86,5.91,5.54,9.32,13,10.13,22.15,1.81,20.25-9.45,43.83-20.67,57.17a.94.94,0,0,0,1.34,1.3c37.35-33.29,65.42-89.42,70-133.24a70.8,70.8,0,0,0-9.32-43.65c-.33-.56-.68-1.13-1-1.69a84.29,84.29,0,0,1,25.14,18.39,1.63,1.63,0,0,0,2.75-1.53c-8.8-37.25-29.47-73.29-58.27-101.65l3.61-1.57c11.91-5.14,26.73-11.54,32.51-20.12a.93.93,0,0,0,.06-.95.94.94,0,0,0-.81-.51c-17.48-.45-35.41-4.7-53.31-12.65,2.21-4,5.55-8,9.07-12.26,3.73-4.49,7.59-9.13,10.23-14,0,0,0-.07,0-.1a1.41,1.41,0,0,0-.2-1.45c-1-1.12-3.53-.69-10.11.72-2.11.45-4.58,1-6.17,1.17l.57-.95c10.66-17.74,23.93-39.82,23.23-63a.94.94,0,0,0-.41-.75.93.93,0,0,0-.84-.1c-2.45.88-5.9,3.65-9.91,6.85-6.75,5.38-15.06,12-20.62,11.18,2.82-40.82.17-76.74-7.88-106.79-10.75-40.1-31-68.65-60.24-84.85a.9.9,0,0,0-.9,0,.94.94,0,0,0-.49.77c-1.23,22.21-10.84,47-25.7,66.39C588.75,302.93,569,315,548.68,316.58c8.21-8.49,18.91-15.79,33.46-22.85a.94.94,0,0,0,0-1.7c-20.19-8.91-50.58-6.52-90.34,7.09-1.6-11.25-7.88-23-17.35-32.49-9.86-9.84-21.57-15.45-32.21-15.45h-.36a1,1,0,0,0-.83.5,1,1,0,0,0,.06,1c4.55,6.64,9.86,17.06,9.3,28.91-1.18,10.64-2.83,16-5.2,17s-6.39-2.46-11.48-6.77c-12.18-10.33-32.56-27.62-66.4-17.49a.93.93,0,0,0-.64.69.91.91,0,0,0,.27.89c28.33,26.69,26.48,36.14,25.23,38.41-1.66,3-6.75,3.7-14,1.86-11-2.81-29.66-12.61-46-31-12.31-13.89-27-37.06-27.14-68.54a.94.94,0,0,0-1.35-.84c-29.41,14.39-49.81,42.53-60.63,83.64-7.85,29.85-10.58,65.85-8.11,107-10-.52-21.14-11-28.57-18.07l-.12-.11a1.64,1.64,0,0,0-1.79-.3,1.61,1.61,0,0,0-1,1.49c-.55,22.8,12,44.71,22.17,62.31l.94,1.63a30.17,30.17,0,0,1-6.3-1.1c-3.83-.93-7.44-1.8-9.24-.05a.91.91,0,0,0-.12,1.16,243.09,243.09,0,0,0,19.14,25.24C218,487.45,201,489.19,189.67,490.35c-8.11.83-12.58,1.29-13,3.8-.53,2.94,4.27,6.68,35.15,22.06-27.07,24.06-47.16,58.92-58.12,100.91a1.62,1.62,0,0,0,2.81,1.46,73.88,73.88,0,0,1,23.92-18.05s-5.89,19.47-5.5,26.88"/><path class="cls-6" d="M635.51,268.12c2.54-5.84,4.17-12,6.33-18a.9.9,0,0,1,1.62-.15c19.14,32.18,27.72,70.86,30.51,107.85,2.82,37.41-6.79,71.76-23.8,102.65a.91.91,0,0,1-1.42.21c-3-2.84-5.65-5.94-8.51-8.86a.88.88,0,0,1,0-1.26,87.28,87.28,0,0,0,17.42-24,.9.9,0,0,0-1.52-.94c-5.82,7.58-13.2,15.56-20.87,21.35-2.34-1.73-4.69-3.45-7-5.21a.89.89,0,0,1,0-1.43c17-12.58,31.3-32.51,35.93-53.3a.9.9,0,0,0-1.68-.59c-6.21,13-14.22,25.64-26.13,33.86a124.9,124.9,0,0,0,19.45-57.87.9.9,0,0,0-1.64-.57c-3.76,5.54-8.77,10.23-15.37,12.18,9.9-10.52,18.79-25.06,18.44-39.93a.9.9,0,0,0-1.77-.17c-1.69,7.9-5.12,15.67-12,20.16,8.71-25.05,9.88-52.65,1.84-78a.9.9,0,0,0-1.75.31c1,31.56-13.06,61.2-26.46,89.15-8.5,17.57-16.3,35.54-26.5,52.21-1.69-12.65,3.73-24.24,9.17-35.3a.89.89,0,0,0-1.51-.94c-7,8.69-9.52,24.11-12.87,34.71-3.13-.15-8.72-6-11.72-6.84a.89.89,0,0,1-.63-.94c1.08-14.37-4-31.13,4.27-43.62,20.81-31.43,44.35-61.22,58.14-96.76M322,326.34c9.8,14.14,18.93,28.75,28.83,42.83,5.17,10,4.64,24.1,5.47,35.11C344.4,379.36,329.79,353,322,326.34M564.22,474.59a25.5,25.5,0,0,1,4.94-1.38c-6.2,7-14,12.48-19.87,19.77,6.46-1.84,12.7-4.46,19.38-5.5-8.92,7.08-17.9,14.79-23.23,25,20.35-9.69,42.55-14.59,63.83-21.79,0,0,0,0,0,0C598,507,585.47,510,570.77,515.85c13.05,1.51,26.22.77,39.21-1-30.26,40.61-44.33,5.23-82.19,65.14h0c-3.87,4.56-12.41,3.26-15.52-1.64a74.65,74.65,0,0,0-3.52-9.12A45.21,45.21,0,0,1,506.08,540c1.44-7.21,5.47-13.43,9.4-19.5-3.37,2-6.91,3.66-10.41,5.38,1.87-7.2,7.24-11.22,12.35-15.94h0a101.53,101.53,0,0,1,13.27-13.28c7.9-11.45,21.13-16.53,33.53-22m-157,22.2c15.41,13.51,28.88,33,29.78,53.88.58,11.5-14.45,39.45-28.18,31.56l-1.65-1.8c-18.5-19.73-15.63-34.5-47.09-43.11l-3.77-.81c15.19-5.1,31.71-1.73,46.35,8.22a1.18,1.18,0,0,0,1.67-1.6c-4.23-6.87-10.64-12.12-16.71-17.39,8.87.24,16.36,5,23.57,9.68a1.91,1.91,0,0,0,2.93-1.95c-2.3-11.71-13.86-21.75-22.31-29.06,8.7.67,17.8,9,25.75,11.51-.13-7.84-6.84-12.76-10.34-19.13m192,37.95c19.15-11.1,59.16,17.49,69.8,41.09a102.43,102.43,0,0,0-31.61-8.5,4.31,4.31,0,0,0-2.7,7.94,109.09,109.09,0,0,1,48.07,67.79c-26.19-7-53.86-5.93-80.58-2.18a1,1,0,0,0,0,1.91c16.91,2.11,34,5.59,48.45,14.94-11.29-1.29-23-1.08-34,2a.78.78,0,0,0,.23,1.53c8.18,0,17.07,1.64,25.12,3.12-8.63,2.78-19,4.81-27.49,8a2.27,2.27,0,0,0,.38,4.36c3.22.58,10.78-1,12.26,4.37-35.56,5.59-57.26,37.23-69.57,67.78,7.21-28.89,21.28-56.24,41.52-78.14a1,1,0,0,0-1.24-1.48c-7,4.61-13.12,10.53-19.15,16.37,6.73-11.71,16.79-20.72,28.26-27.49a1.21,1.21,0,0,0-1-2.2c-22.19,7.42-36.71,28.71-44.57,50.47-9.47,22.22-9.77,52.33-26.7,74.18-.84,1.09,1.68-7.57.88-6.72-3.54,3.74-6.89,7.69-10.81,11-15.62,11-33.28,16.14-58.87,6.63,16.78-4.82,35.56-12.4,47.84-25.32,14.87-19,12.27-47-13.46-53.9,6.46-31.66,12.81-69.37,23.07-100.07a559.37,559.37,0,0,1,26.74,92.37.76.76,0,0,0,1.51-.11c0-2.18-.54-4.3.41-4.86,4.59-15.16,6.81-33.89,13.17-49.3,7-21.73,20.35-37.25,44.79-39.42,24.8-2.21,19.72-.77,4.22-14.22-6.63-6-13.11-12.61-16.55-21-5.26-11.44,4.25-24.9,17-22h0c9.8,1,18.55,5.69,27.68,9.06.65.24,1.08-.44.78-1.07-11.79-24.51-29.26-21.39-43.92-27M367.93,549.9c5.28,2.32,20.05,5.36,10.19,12.66h0c-6.92-.35-10.74-6.07-10.18-12.66M553,557.17a37.45,37.45,0,0,1,12.11-6.69c.82,6.2-3.25,10.43-8.62,12.68a23.65,23.65,0,0,1-3.49-6m-97.52,160s30.15.25,19.5,19.65,34.78,8.95,37.86-.41-.29-19.72-27.9-21.94-29.46,2.7-29.46,2.7"/><path class="cls-7" d="M383.67,492.77c-1.92-.29-17.54-7-15.9-3.43,8.06,6,15.39,13.14,20.62,21.72a.69.69,0,0,1-.89,1c-20-9.47-42.13-13.35-62.56-21.84l.11.64c7,7.38,14.67,14.41,23.83,19,1.39,1.55,14.36,4.54,11.33,6.29a134.91,134.91,0,0,1-33.53-1.13.69.69,0,0,0-.61,1.12c34.72,35.91,34.86,10.4,65.72,23.58,2.33,0,14.46,9.61,14.06,6.11-3.85-7.66-10.24-13.5-16.8-18.8a.69.69,0,0,1,.54-1.2c8.94.9,16.49,6.24,23.88,11a.7.7,0,0,0,1.06-.63c-.33-7.42-4.39-14-8.87-19.77-3.45-4.55-18.35-14.17-1.23-7.35,3,.66,11.25,9.4,13.16,6.78-.64-7.29-7-13-10.34-19.13a14.68,14.68,0,0,0-3.48-3.42,145.64,145.64,0,0,0-39.62-20.67c1.8,1.94,23.9,19.94,19.52,20.07"/><path class="cls-7" d="M513.8,580.43c-23.17-45.25,25.12-80.29-5.87-61.21l-4.52,6.59c-12.64,18-6.57,43.38,10.39,54.62"/><path class="cls-7" d="M517.42,509.89c4.86-6.74,12.24-11.15,17.14-17.77,0-4.08-10.9,7.41-12.37,8.51-4.07,4.37-11,11.78-13.2,17.45,2.27-1.38,6.79-6.07,8.43-8.19"/><path class="cls-7" d="M535.59,773.82c-3.54,3.74-6.89,7.68-10.81,11-15.16,10.76-40.37,13-57.94,7-.09-1.56-.3-3-.93-3.42-23.53-4.86-53-14.14-56-41.22-1-7.53,0-15.6,4.26-22,0,0,11.65-11.38,19.54-11.21l-1-5.93L419.94,640.3c-1.43-8.86-5.93-18.29-8.59-26.86-.22-.62-.9,5.15-1.28,5.69-13.38,19.2-16.06,39.69-21.68,60.06-2.54,8.64-2.6,17.48-4.33,26.32a.69.69,0,0,1-1.36-.1c-.73-20.42-2.8-41.07-9.19-60.57-6.42-26.48-33.1-42.64-59.16-40-1.31-.17-10.37,4.14-8.46,1.54,12.19-7.8,24.42-17.6,30.26-31.21,2.36-6.08,1-13.65-4-18-12.52-9-28.4,1.51-41.06,5.48a.69.69,0,0,1-.78-1.06,93,93,0,0,1,33.3-27.27c1.53-1.56-1.79-1.46-2.69-1.11C297.68,537.55,275.34,553.87,266,574a.69.69,0,0,0,.87,1,92.71,92.71,0,0,1,45.29-7.68c.68.06-5,1.05-5.57,1.36-5.42,2.82-6.8,5.13-11.67,8.87-21.83,15.41-36,38.83-43.54,64.25-.17.52,1.18,1.14,1.71,1,14-3.9,29-2.57,43.48-2.47,13,.32,25.72-1.44,38.49.92a.69.69,0,0,1,0,1.37c-16.44,1.73-34.51,4.26-49,12.66-.62.37.82,1.94,1.54,1.9,1.73-.5,11.2-.39,19.57.42a2.48,2.48,0,0,1-.06,4.94c-6.28.47-14.32,1.18-12.83,2.77,10,2.4,22.2,5.28,31.69,9.3,2.86,2-15.73,2.19-17.47,3.95a.69.69,0,0,0,.07,1.32c24.32,5.18,46.11,25,56.86,46.72,22.27,45.39-1.8-25.88-11-34-4.71-7.27-14.86-16.73-20.59-23.18-.55-4.53,15.62,10.1,16.92,11.64a.69.69,0,0,0,1.05-.89,77.76,77.76,0,0,0-29.58-24.6.69.69,0,0,1,.47-1.29c9.39,2.15,18.56,6.2,25.63,12.7,45.7,42.06,23,135.6,96.83,139.14,8.64-.12,19.72,4,28,1.57a12.12,12.12,0,0,0-1.12-2.35c11.91-.21,27.94-4.43,37.63-6.26,12.52-2.46,27-10.61,27-25.2,0-.4-.73-.3-1,0"/><path class="cls-7" d="M628.56,606.84c-16.6-.65-35-2.93-49.24,7C554,632.51,554.89,670.55,552.07,699c-.09.88,1.43,1.08,1.56.21,6-26.87,11.16-57.14,30.72-77.76,12.07-11.84,30.22-10.07,45.68-12.37,1.57-.65-.61-2.1-1.47-2.23"/><path class="cls-7" d="M513.75,806.1c-4.77,4.1-44,15.61-53.88,15.86s-49.63-20-49.63-20c11.67,37.63,52.75,41.08,67.86,42.72s45.68-36.64,46.18-39.93-5.75-2.79-10.53,1.32"/><path class="cls-7" d="M285.24,459.45c2.34-3.28,7.44-6.16,8.38-9.72A79.91,79.91,0,0,1,276,424.35a.69.69,0,0,1,1.19-.69c4.72,6.39,9.64,12.67,15.85,17.68,3.63,2.72,8.61.7,12.45-.59a.7.7,0,0,0,.19-1.16c-16.9-13.67-31.33-32.38-35.35-54.11a.69.69,0,0,1,1.31-.4c5.56,12.4,13.31,24.35,23.73,33.19a.69.69,0,0,0,1-.91c-10.61-16.8-16.12-36.46-17.78-56.19.31-3.64,6.21,9.12,13.75,11.36a.69.69,0,0,0,.83-1.06c-8.93-10.72-16.43-24.23-15.55-38.58a.69.69,0,0,1,1.37-.05c1.36,7.74,4.54,15.46,10.71,20.37a.69.69,0,0,0,1.08-.77c-8.9-24.6-9-51.9-1.48-76.9a.68.68,0,0,1,1.34.23c1.28,50.79,30.84,96.15,52.49,140.67a.7.7,0,0,0,1.27-.37c.46-12.59-4.58-24.47-9.93-35.74,1.41-5.15,16.35,23.69,16.76,26.27.72,5.72,5.65,3,9.66,2.65.25-12,.69-24,.28-36-11.63-25.07-32.64-44.73-44.61-69.72-9.45-17.21-18.35-34.78-23.89-53.69-15.63,18.73-21.33,50.36-25.62,75.53C261.65,370,262.14,419,284.15,459.34a.68.68,0,0,0,1.09.11m63.53-93.4c4.53,8.46,4.17,18.77,5.07,28.14-1.79,3.44-6.77-12.86-8.51-14.51-7.82-17.71-18.62-34.4-23.29-53.34,9.09,13.11,17.55,26.65,26.73,39.71"/><path class="cls-8" d="M655.5,261.35c30.74,46.51,42.31,154.36,5.47,199.41a.69.69,0,0,1-1.1-.78c28.77-62,22.45-137-4.37-198.63"/><path class="cls-8" d="M598.87,534.89c16-6.22,41.86,12.9,44.25,26.8.11.69-.14,1.32-.79,1.08-8.74-2.89-19.12-8.92-28.84-9.32-10.14-.41-18.46,8.17-16.94,18.21,2.09,13.83,19.51,27.32,30.13,34a.69.69,0,0,1-.33,1.28c-9.48,0-18.46-1.11-28.13-.33-25,2-44.06,21-47.59,45.34-1.38,2.14-1.37,22.58-3.71,18.94-4.63-19.9-7.61-43,5.2-60.54.35-1.62,9.14-7.51,5.7-7.72-36.46,12.47-11.36,74.67-35.62,13.19-14.36-36.4,28.86-5.72,51.07-32,1.38-1.26,13.21-18.41,8.58-16.82-2.17,3.39-4.19,6.89-6.93,9.86-6.66,7.64-16.47,13.29-26.87,11.75a.69.69,0,0,1-.22-1.32c21.83-6.94,24.46-21.85,37-37.19,11.82-12.42,37.91-6.25,14-15.15"/><path class="cls-3" d="M362.48,545.45c7.23-1.2,2.92,9.79,18.06,11,6.31,8.62,9.39,7.26,18.37,3.41,4.18,2,.83,13.1-2.26,15.63-18.41,17.42-40.5-10.89-34.17-30.08"/><path class="cls-3" d="M559.68,549.26c9.93-26.5,13.89,16.15,6.2,23.68-3.78,6.84-13.74,12.56-21.7,9.49-2.28-5.26-8.72-11.65-6.44-16.77,7.61-2,17.25-10.31,21.94-16.4"/><path class="cls-8" d="M487.14,587.39c2.41-3.07,7.3-17.5,9.75-15.42,12.76,10.82,8.71,28.07,10,42.95,2.57,4.05,1.69-20.12,2.95-22.43.08-.48,2-1.07,2.38-.83,6.56,2.21,2.58,7.91,2.24,13.09-6.3,34.78-7.55,72.8-14.65,106.64-12.57-2.46-26.5-5-39.33-4-7.66-.43-17.64,5.18-24.63,3.29-2.33-18.85-3.67-39.24-5.05-58.18-2.36-12.92,4.36-40.23,20.77-23.89,4.78,5.12,7.06,11.74,9.5,18.19a.69.69,0,0,0,1.34-.3c.28-3.58-4.57-34.39-.88-33.09,1.77,1.49,4.23,16.74,6.29,15.18,6.88-13.59,12.63-27.56,19.34-41.23"/><path class="cls-8" d="M477.63,621.16c-6.58,8-7.55,18.52-8.58,28.48,1.72,3.39,3.42-8,4.38-9.26,2.92-9,6.33-18.11,11.71-26-.06-4-6.67,5.74-7.51,6.75"/><path class="cls-8" d="M438,679.19c2.48,7.59,2.5,17.36,6.1,23.93,49.46-9.66,46.67,14.3,50.55-16.89-2.3-4.18-4.41,14.36-8.34,12.92-12,.07-24,0-36,.07-1.35-.16-3.26.24-3.92-1.3-3.37-6-5.13-12.69-8.38-18.73"/><path class="cls-4" d="M269.54,279.24c1.11-1.78,5.3-13.32,6.17-9.39-23.31,60.22-28.43,131.3-.69,190.86-.57,2-3.29-.29-6-3.33a45,45,0,0,1-8.3-14.07c-19.36-51.77-10.94-113.42,8.79-164.07M324,532.73c1.25-.15,14-.84,13,3.11-.4,1.59-13.64,4.24-10.83,4.43,38.25,2.59,25.87,37,60.2,46.83a.69.69,0,0,1-.14,1.35c-15.48,2.16-28.07-9.22-35.09-21.8-.45-.71-1.07-.37-.76.4,3.38,8.26,8,15.39,15,21,21.13,17.62,36-8.44,45.93,30.38.53,2.08-11.42,23.38-12.76,19.53-.49-5.54.88-9.67-1.38-14.79A38.32,38.32,0,0,0,376,602.58c-.7-.28-1,.61-.42,1.14a44.45,44.45,0,0,1,8,9.92c10.51,17.53,8,39,3.33,58a.68.68,0,0,1-1.35-.09c-1.4-15.75-3.73-31.88-12-45.6-11.52-20.46-36.79-23.76-58-18-1.67-.17-11.35,1-9.75-1.67a99.2,99.2,0,0,0,19.83-15.86c8.42-8.35,17.47-23.43,6.4-33.31-12.53-9-28.38,1.54-41.06,5.48a.69.69,0,0,1-.78-1.06c9.37-12.24,19.54-22.67,33.68-28.87m106.71,48.46c1.49-1.73,5.38-10.21,7.31-8.89,6.23,12.83,12.95,24.49,19.42,37.19,1,2.15,4,6.21,4.27,8.63a224.36,224.36,0,0,0,.72,28.41.69.69,0,0,1-1.34.3c-2.44-6.45-5.44-12.82-10.22-18-6-7.86-15.2-5.1-17.91,4.27-5,16.1-.1,32.7.85,49.1.58,9,2.39,16.69,3.42,25.67.45,1.23,3.72,1.49,4.75,1.75-2.24.54-6,4.25-7.55-1.26-9.95-35-9.68-74-16.68-110.09-.81-4.61-.92-4.47,3.94-6.44a.69.69,0,0,1,1,.53c1.08,8.11,2.24,16.2,3.21,24.33a.69.69,0,0,0,1.37,0c1.45-11.7-.1-24.29,3.44-35.52m47,40c.9-1.1,7.39-10.72,7.51-6.75-5.38,7.86-8.46,17-11.71,26-.68,1.87-2.76,12.77-4.38,9.26,1-10,2-20.44,8.58-28.48"/><path class="cls-8" d="M368.35,333.15a146.77,146.77,0,0,0-17.23-11.25c-15-7.78-28.44-18-38.49-31.52,13.85,26.85,34.78,49,50.38,74.71,8.19,13.42,15.29,27.6,20.17,42.57a.69.69,0,0,0,1.31,0c8.23-25.54,8.94-58.21-16.14-74.5"/><path class="cls-8" d="M567.08,332.13a146.65,146.65,0,0,1,17.22-11.25c15-7.78,28.45-18,38.49-31.52-13.85,26.85-34.78,49-50.37,74.71a203.1,203.1,0,0,0-20.18,42.57.69.69,0,0,1-1.31,0c-8.23-25.54-8.93-58.21,16.15-74.5"/><path class="cls-8" d="M230.89,426.19c1.81.22,8.77,4.43,9.58,2.42-.07-1.25-2.06-3.08-3.39-3.57-2.09-.48-14.05-8-13.94-5,6.48,13.26,15,26.13,26,36.08.56-5.58-22.59-28.12-18.26-30"/><path class="cls-8" d="M306.64,438.11c-11.65,4.21-25.94-11.34-32.56-18.71,4.32,11,9.35,25.21,18.95,31.74.9-1.32,16.92-12.34,13.61-13"/><path class="cls-8" d="M523,719.72c3.37,1-2-5.52-2.38-6.63-1.76-2.87-2.9-8.66-2.9-12,0-14.63-2,7.69-2.45,8.9-.1,4.5,5.44,6.37,7.73,9.72"/><path class="cls-8" d="M650.15,433c-4.14,4.54-11,7.91-15.77,11.73-1.11.63,6,7.76,6.73,7,7.65-5.05,29.91-45.55,9-18.69"/><path class="cls-8" d="M696.25,425c-1.33.49-3.32,2.31-3.38,3.57.81,2,7.76-2.2,9.58-2.42,4.33,1.84-18.83,24.38-18.26,30,11-9.95,19.52-22.82,26-36.08.1-3-11.85,4.49-14,5"/><path class="cls-8" d="M416.83,701.1c0,3.33-1.14,9.12-2.91,12-.37,1.11-5.74,7.64-2.37,6.63,2.29-3.35,7.83-5.22,7.73-9.72-.46-1.21-2.45-23.53-2.45-8.9"/><path class="cls-8" d="M542.84,839.71c-13.42,10.67-25.58,22.78-38.07,34.49a.7.7,0,0,1-1.12-.73c.42-2.36,6.49-14.68,2.86-14.41-10.59,10-22.48,18.63-31.8,29.85-7.46,9.42-5.83,22.39-7.83,33.61,21.5-37.87,61.35-60.27,89.72-92.47,1-4.51-12,9-13.76,9.66"/><path class="cls-8" d="M467.49,594.72a244.12,244.12,0,0,0,.94-26.51c2.1-31.84,8-63.68,20.44-93.06,5-11.5,11-22.61,18.91-32.37a.69.69,0,0,0-.86-1c-9.05,4.73-16.73,11.54-23.32,19.29a160.42,160.42,0,0,0,1.17-32.5,278.54,278.54,0,0,1,11.53-27.38c1.42-2.79,8.93-15.65,1.16-7.44-12.6,15.52-21.91,33.37-29.33,51.87-7.41-18.5-16.72-36.35-29.32-51.87-7.78-8.21-.26,4.65,1.15,7.44a278.61,278.61,0,0,1,11.54,27.38,161.12,161.12,0,0,0,1.16,32.5c-6.58-7.75-14.26-14.56-23.31-19.29a.69.69,0,0,0-.86,1c7.88,9.76,13.95,20.87,18.91,32.37,12.94,30.48,17.94,63.61,19.5,96.63a175.6,175.6,0,0,0,.59,22.94"/><path class="cls-6" d="M354.17,613c25.33,18.61,24.44,56.66,27.26,85.09.08.88-1.44,1.08-1.56.21-6-26.86-11.17-57.14-30.73-77.76-12.06-11.84-30.22-10.07-45.67-12.37-1.57-.65.6-2.09,1.47-2.23,16.6-.65,35-2.93,49.23,7.06"/><path class="cls-1" d="M495.47,685.81c-.52-1-1.17-1.2-1.63-1.17-1.38.1-2.1,2.07-3.47,6.16-.92,2.75-2.31,6.91-3.51,7.47a.27.27,0,0,1-.23,0,1.18,1.18,0,0,0-.27-.06,127.7,127.7,0,0,0-15.88.09c-8.06.37-16.39.75-23.49-1.18a82.27,82.27,0,0,1-4.14-9.26,87.47,87.47,0,0,0-4.05-9.12.94.94,0,0,0-1.72.74,72.29,72.29,0,0,1,2.19,9.87c.87,5,1.78,10.18,4,14.21a.93.93,0,0,0,.82.48h.18c21.35-4.16,32.65-2.08,39.39-.83,3.76.69,6,1.11,7.73-.14,2.3-1.68,2.81-5.78,4.18-16.73a1,1,0,0,0-.09-.53"/><path class="cls-1" d="M396.9,739.52a.93.93,0,0,0-.89,1c.29,16.11,7.6,32.74,19.06,43.4,8.56,8,18.73,12.11,29.56,12.11.76,0,1.54,0,2.31-.06a.94.94,0,0,0,.33-1.79c-21.38-9.44-47.31-26.43-49.39-53.75a.93.93,0,0,0-1-.86"/><path class="cls-1" d="M536.78,739.43a.94.94,0,0,1,.9,1c-.3,16.11-7.6,32.74-19.07,43.4-8.55,8-18.72,12.12-29.55,12.12-.77,0-1.55,0-2.32-.07a.94.94,0,0,1-.33-1.79c21.39-9.44,47.31-26.43,49.39-53.75a.94.94,0,0,1,1-.86"/><path class="cls-1" d="M321.46,606.27c20.49.69,36.08,10.5,46.36,29.15,10.4,18.89,13.06,42.71,13.45,59.38.16,11.1.82,11.7,2,11.81h.16c1.37,0,1.95-1.91,4.26-13.21C388.75,688,390,682,391,679.56c7.57-20.13,14.21-43,6.16-59.83C393,610.9,385,604.48,373.38,600.65a.94.94,0,0,0-.85,1.65c18.54,13.51,20.9,46.18,14,64.88-.84-22.13-10-42.6-24.34-54.16-11.43-9.19-25.58-12.17-40.9-8.6a.92.92,0,0,0-.72,1,.94.94,0,0,0,.9.85"/><path class="cls-7" d="M613.7,329c-13.09,14.46-20.89,32.74-31.21,49.13-.39,2.36-11.12,15.6-7.27,15.16,7.27-6,16-11.44,20.5-19.94,5.69-14.9,12.2-29.5,18-44.35"/><path class="cls-1" d="M781.14,617c-8.8-37.24-29.47-73.29-58.27-101.66l3.61-1.56c11.91-5.14,26.73-11.54,32.51-20.12a1,1,0,0,0,.06-1,1,1,0,0,0-.81-.5c-17.48-.45-35.41-4.7-53.31-12.65,2.21-4,5.55-8,9.07-12.26,3.73-4.49,7.59-9.12,10.23-14,0,0,0-.07,0-.1a1.41,1.41,0,0,0-.2-1.45c-1-1.12-3.53-.69-10.11.72-2.11.45-4.58,1-6.17,1.17l.57-.95c10.66-17.74,23.93-39.82,23.23-63a.94.94,0,0,0-.41-.75.93.93,0,0,0-.84-.1c-2.45.89-5.91,3.65-9.91,6.85-6.75,5.38-15.06,12-20.62,11.18,2.82-40.82.17-76.74-7.88-106.79-10.75-40.1-31-68.65-60.24-84.85a.92.92,0,0,0-.91,0,1,1,0,0,0-.48.77c-1.23,22.21-10.84,47-25.71,66.39C588.75,302.93,569,315,548.68,316.58c8.21-8.49,18.91-15.79,33.46-22.85a.94.94,0,0,0,0-1.7c-20.19-8.91-50.58-6.52-90.34,7.09-1.6-11.25-7.88-23-17.35-32.49-9.86-9.84-21.57-15.45-32.21-15.45h-.36a.92.92,0,0,0-.82.5.94.94,0,0,0,.05,1c4.55,6.64,9.86,17.06,9.3,28.91-1.18,10.64-2.83,16-5.2,17s-6.39-2.46-11.48-6.77c-12.18-10.33-32.56-27.62-66.4-17.49a.94.94,0,0,0-.64.68.92.92,0,0,0,.27.9c28.33,26.69,26.48,36.14,25.23,38.4-1.66,3-6.75,3.71-14,1.87-11-2.81-29.67-12.61-46-31-12.31-13.89-27-37.06-27.14-68.54a.93.93,0,0,0-1.35-.84c-29.41,14.39-49.81,42.53-60.63,83.64-7.85,29.85-10.58,65.85-8.11,107-10-.52-21.14-11-28.57-18.07l-.12-.11a1.62,1.62,0,0,0-1.79-.29,1.58,1.58,0,0,0-1,1.47c-.55,22.81,12,44.72,22.17,62.32l.94,1.63a30.17,30.17,0,0,1-6.3-1.1c-3.83-.92-7.44-1.8-9.24-.05a.91.91,0,0,0-.12,1.16,242,242,0,0,0,19.14,25.23C218,487.45,201,489.19,189.67,490.35c-8.11.83-12.58,1.29-13,3.8-.53,2.94,4.27,6.68,35.15,22.06-27.07,24.06-47.16,58.92-58.12,100.91a1.62,1.62,0,0,0,2.81,1.46,74,74,0,0,1,23.92-18.05s-5.89,19.47-5.51,26.88c.12,2.22.21,4.44.14,6.67-1.46,48.39,27.32,111.11,61.63,138.11a.93.93,0,0,0,1.24-.08.92.92,0,0,0,.07-1.24c-8.06-10.17-14.08-24.94-15.7-38.53-1.77-14.9,1.7-27.14,9.79-34.72.95,16.66,2.9,30.17,6.13,42.36a.92.92,0,0,0,.44.58,1,1,0,0,0,.72.09c2.94-.83,5.74-3.34,8.7-6,2.79-2.51,5.67-5.09,8.76-6.33,20.32,55.55,52.54,105.18,90.77,139.81a.89.89,0,0,0,.58.24,1.93,1.93,0,0,0,1.92-.77c.54-1-.26-2.08-1.36-3.62a15.15,15.15,0,0,1-1.95-3.21l-.06-.12c-6.83-12.72-12.36-30.94-9.14-42.29,21.32,29.78,50.71,52.57,79.16,74.63l.82.63c31.44,24.13,40.88,40.68,44.91,47.74,1.74,3,2.53,4.43,3.92,4.49h.09c1.44,0,2.51-1.56,5-5.21,3.61-5.23,10.33-15,24.51-29.56,10.89-9.89,22.64-19.31,34-28.41,24.08-19.3,49-39.24,67.35-65.06,1.76,3.33-1.37,26.54-3.36,29.7a.79.79,0,0,0-.15.51c.12,1.77-2.52,6.35-4.63,10-3,5.24-4.56,8-3.86,9.5a1.53,1.53,0,0,0,1.2.85,1,1,0,0,0,.75-.25c41.24-38.89,72.39-87.22,90.09-139.8,1.61,0,7.64,5.13,10.91,7.92,5.5,4.67,6.56,5.46,7.55,4.87a1.1,1.1,0,0,0,.55-1c4.51-14.71,5.83-29.88,6.39-41.86,5.91,5.54,9.32,13,10.14,22.15,1.8,20.25-9.46,43.83-20.68,57.17a.94.94,0,0,0,1.34,1.3c37.35-33.29,65.42-89.42,70-133.24a70.78,70.78,0,0,0-9.32-43.65c-.33-.56-.68-1.13-1-1.69a84.29,84.29,0,0,1,25.14,18.39,1.63,1.63,0,0,0,2.75-1.53M694.78,429.76a3.45,3.45,0,0,0,.83-2.19c.14-1.15.26-1.48.83-1.61a25.31,25.31,0,0,0,4.32-2c2.24-1.14,6.62-3.4,8.29-3.67-6.38,13-14,23.86-22.69,32.53a94.59,94.59,0,0,0,8.42-23.05m-30.36,24.7c10.41-28.24,15.48-60.15,14.69-92.79a260.35,260.35,0,0,0-16.22-85.15c23.9,50.4,28.81,136.29,1.53,177.94M562.22,338.14a228.88,228.88,0,0,1,20.93-13.79c10.54-6.4,21.35-13,30.27-22-6.56,10.32-13.82,20.69-20.91,30.8-16.1,23-32.74,46.72-42.14,71-4.85-18.26-8.71-48.58,11.85-66M362,330.73c1.93,1.06,3.88,2.13,5.85,3.23,23.72,14.66,24.93,51.51,15.52,71.23-8.58-26.58-25-49.21-40.81-71.1-7.76-10.71-15.71-21.7-22.75-33.15,12.09,13.25,26.25,21,42.19,29.79M292.39,252.1c5.67,18.51,14.54,35.84,23.33,51.86,1.63,4.64,9,15.42,18.38,29.05,17.54,25.55,44,64.17,37.67,73.38-1.51,2.17-5.08,2.59-10.61,1.22a.93.93,0,0,0-1,.43,4.66,4.66,0,0,1-2.5,1h0a5.62,5.62,0,0,1-.78.11l-.17,0a4.93,4.93,0,0,1-4.47-2.56,1,1,0,0,0,0-.25c-.34-1.63-12.72-27.44-17-27.61a1.54,1.54,0,0,0-1.58,1.26.91.91,0,0,0,0,.67c4.78,10.09,9.43,20.82,9.84,32.13-21.74-34.44-48.09-89.94-53.23-137.42a.94.94,0,0,0-1.83-.17c-7.62,25.38-7.25,52.39,1,76.21a3.48,3.48,0,0,1-1.05-.51c-4-2.72-7.61-13.19-8.48-18.28a.9.9,0,0,0-.43-.64,1.73,1.73,0,0,0-2.31.12c-2.41,2.53,1.91,18.19,3.33,20.9.34,2.85,3.52,7.2,6.6,11.4a47.9,47.9,0,0,1,4.47,6.77c-3.61-1.59-6.88-5.67-9.11-8.45-2-2.48-2.82-3.51-3.88-3.17-.39.12-.86.48-.93,1.49v.14c1.73,20.39,7.47,39.19,16.66,54.55-7.21-3.62-17.54-21.88-21.83-31.11a.94.94,0,0,0-1.77.19c-3,13.64,14.69,35.68,22.44,44.53a64.25,64.25,0,0,0,8.87,8.18c1.21.94,2.35,1.84,2.36,2.23,0,.59-1.9,2.15-4.31,4.13-1.72,1.41-3.86,3.16-6.57,5.54a23.91,23.91,0,0,0-3.83,4c-1.31,1.55-3.95,4.66-5,5-5.94-10-10.44-22-13.76-36.55-12.47-65.84-4.44-129.11,21.44-169.8M251.92,373.62c.65-31.77,7.71-67.74,18.44-93.91a21.16,21.16,0,0,0,1.49-3.14c.45-1,1.14-2.6,1.81-4-23.83,63.59-24.58,129.49-2.19,182.42-16.94-22.42-20.06-56.15-19.55-81.39M225,419.86c13.62,4.57,14.1,7.31,15.19,13.55a49.41,49.41,0,0,0,7.06,19c-6.33-4.07-18.22-23.43-22.25-32.54m462.32,292.2c-6-4.64-10.64-8.49-14.11-11.35-7.19-5.94-9.88-8.17-11.94-7.33-1.82.72-2.13,3.43-2.75,8.83-1.68,14.53-5.58,48.37-44,104a160.93,160.93,0,0,1-3.85-18.19c-2.26-13-4.6-26.5-11.6-37.19a1,1,0,0,0-.2-.22,1.6,1.6,0,0,0-1.75-.31c-1.3.62-1.39,2.93-1.41,6.64,0,.51,0,1.11,0,1.62a1,1,0,0,0-.47.71c-5,41.48-39.19,71.81-72.27,101.14-22.26,19.75-43.32,38.43-56,60.2-13.85-23.26-35.65-42.47-56.74-61.06C376.36,829.81,341.43,799,338.69,751a.93.93,0,0,0-.62-.83.87.87,0,0,0-.32-.06.91.91,0,0,0-.68.3c-10.33,10.93-13.34,32.4-15.75,49.66-.35,2.49-.69,4.89-1,7.17l-3.09-5.15c-19.57-32.5-41.74-69.35-41.12-108.23a1,1,0,0,0-.12-.48,1.77,1.77,0,0,0-1.26-.86c-2.44-.43-8.19,3.33-19.22,12.61-.42.34-.75.63-1,.83a17,17,0,0,0-3.31,3.27,25.24,25.24,0,0,1-3.94,3.91c-.72-13.39-.66-27.55,4.2-40.76,4.46.9,8.95,1.93,13.31,2.92,7.66,1.75,15.57,3.56,23.51,4.7a58.87,58.87,0,0,1-6,4.39c-3.31,2.22-5.37,3.64-6,4.61a.94.94,0,0,0,.74,1.47c37.49,1.08,73.9,26.32,89.06,61.56-3.79-.55-8.56-3.51-13.19-6.39-3.91-2.43-7.95-4.95-11.62-6.17a1,1,0,0,0-.93.2.94.94,0,0,0-.28.91c2,8.51,11.79,17.53,20.39,25.48,3,2.76,5.8,5.37,8.16,7.81a18.33,18.33,0,0,1-4.18.67c-3.17.3-5.15.53-5.86,1.69a1.63,1.63,0,0,0-.1,1.49.89.89,0,0,0,.19.31c13.66,14.19,29.07,27.19,44,39.76,6.35,5.35,12.91,10.88,19.16,16.36,13.58,13.73,21.14,17,26.15,19.11,6.63,2.84,9.38,4,17.78,26.65a1,1,0,0,0,1.06.6c3.11-.59,4.95-5.84,7.08-11.91,1.94-5.54,4.14-11.81,7-12.85,14.13-3.87,40.62-28.74,64-50.67,12.62-11.86,23.52-22.09,30.1-26.71a.89.89,0,0,0,.33-.41,1.74,1.74,0,0,0-.08-1.59c-.73-1.23-3-1.5-5.54-1.8a18.32,18.32,0,0,1-3.68-.67c12.64-11.73,22.71-22.07,30.72-34.25a.93.93,0,0,0,0-1.08,1,1,0,0,0-1-.33c-4.22,1.37-8.81,4.17-13.25,6.87-5,3-10.13,6.18-14.3,6.92,17.47-36.47,50.75-60.21,85.18-60.64a.91.91,0,0,0,.32-.06,10.11,10.11,0,0,1,1.87-.06c2,0,3.8.07,4.48-1a1.71,1.71,0,0,0,0-1.77.88.88,0,0,0-.28-.33c-2.63-1.91-4.79-3.41-6.53-4.61a45.65,45.65,0,0,1-4.48-3.31,31.2,31.2,0,0,1,3.28-.71,109.52,109.52,0,0,0,11.34-2.64,39.81,39.81,0,0,0,9-1.93c3.71-1.08,7.54-2.19,10.72-2,4.43,13.49,4.77,27.74,4.44,39.06m-374.29-145a1,1,0,0,0-.83-.73,93.35,93.35,0,0,0-43.64,6.84c7.67-17.12,31.46-35,52.4-39.05l1.34,0c3.44-.06,9-.15,10.52.44-.48.45-2,1.52-7.2,3.55l-.13.06a1.65,1.65,0,0,0-.79,1.65,1.61,1.61,0,0,0,1.21,1.34.69.69,0,0,0,.2,0c16.15.46,23.69,11.36,31.68,22.89,6.76,9.76,13.73,19.84,26.34,23.42a7.65,7.65,0,0,1-3,.51c-7-.13-17.08-6.65-21-11.09a.79.79,0,0,0-.39-.26c-.62-.34-2.53-3.28-3.8-5.22-3.34-5.13-4.63-6.89-6-6.52-.44.12-1,.51-1,1.69a1,1,0,0,0,.07.38c5.33,13.9,18.26,30.12,37.13,30.1h.15c24-3.86,31.61,41.34,37.19,74.36,2.06,12.2,3.85,22.76,6.11,29.17a18.8,18.8,0,0,0,.94,4.41c.66,2.27,1.35,4.61.59,5.94a2.91,2.91,0,0,1-1.95,1.23C415.07,717,406.41,732,409,747.25c-.6,23.29,28.38,35.16,45.71,42.25,0,0,1.43.63,3.54,1.3a6.32,6.32,0,0,1,4,3.73c.05.12.1.24.14.36a6.42,6.42,0,0,1-6.4,8.51c-6.1-.29-10.69-.59-10.69-.59-40.08-2.19-53.63-38.46-63.39-73.46-9.49-34-19.29-69.22-59-76a1.63,1.63,0,0,0-1.09,3,77.51,77.51,0,0,1,27.7,22.23c-1.35-1.07-3.08-2.58-4.5-3.82-6.46-5.62-9.47-8-11.2-7.19a1.77,1.77,0,0,0-.92,1.81.94.94,0,0,0,.24.6c15,16.53,33,42.13,37.85,63.63-8.46-17.76-19-34.87-35.78-45.14-3.47-3.09-10.12-5.21-15.47-6.91a40,40,0,0,1-6.62-2.44c.89-.47,3.8-1.27,12.77-2.3a1,1,0,0,0,.41-.15,1.55,1.55,0,0,0,.79-1.55c-.25-1.71-3.56-3-11.37-5.33a41.21,41.21,0,0,1-4.23-1.39l-.34-.14c-9.36-2-12.52-3.11-13.58-3.68,2.19-.71,9.37-1.06,14.3-1.3,3.28-.16,6.38-.31,8.72-.53a.94.94,0,0,0,.66-1.49c-4.17-5.7-17-5.39-27.36-5.14-1.42,0-2.79.06-4.06.07,8.21-7.41,25.84-9.9,38.94-11.76,2.26-.32,4.41-.62,6.35-.92a1.64,1.64,0,0,0,.15-3.23c-22.17-4.45-49.67-4.29-81.75.47,7.24-28,29.25-55,59.14-72.65a1,1,0,0,0,.44-1m64.43-4a1.06,1.06,0,0,0,.12.34c3.48,6.09,7.6,4.19,10.06,3.06.78-.36,1.74-.8,2.07-.66.14.06.29.33.4.72a1.08,1.08,0,0,0,.16.3c3.08,4,4,7.12,2.62,9.06-1.81,2.58-7.8,3-14,1.08-6-1.92-12.4-6.26-12.35-12.7a.76.76,0,0,0,0-.21c-1.38-6.23-.79-10.54,1.62-11.82a3.82,3.82,0,0,1,1.78-.4c2.67,0,6.37,2.18,10,6,.08.56-.37,1.14-1.09,2s-1.63,1.91-1.45,3.22m51.84,37.07c0-6.92,0-14.08,2.13-18.42a22.66,22.66,0,0,0,2-3.13c.9-1.55,2.95-5.08,3.87-5.49,3,6.59,6.46,13.12,9.77,19.46,4.19,8,8.52,16.29,12.09,24.67a1.16,1.16,0,0,0,.29.37c.67.52,1.91,3.11,2.9,5.18,2,4.26,3.27,6.68,4.76,6.93a1.47,1.47,0,0,0,1.33-.44.76.76,0,0,0,.17-.23c4.44-8.61,8.69-17.49,12.81-26.09,4.75-9.9,9.66-20.14,14.85-30,1.29.66,4,5.57,4.9,7.27.66,1.2,1.23,2.24,1.67,2.88,2,6.61,2.21,13.82,2.44,20.79.13,3.67.26,7.46.63,11.12a1,1,0,0,0,.82.83,1.93,1.93,0,0,0,1.52-.45c1.69-1.41,2.07-5.82,2.5-12.92.25-4,.5-8.16,1.22-9.88a6.07,6.07,0,0,1,1.71,1,10.88,10.88,0,0,0,1,.68c-2.61,20.53-5.66,41.65-8.61,62.08-2.49,17.25-5.07,35.08-7.38,52.54-4.22-.17-8.63-.74-13.29-1.35-8.27-1.07-16.83-2.18-25-1.07a192.08,192.08,0,0,0-23.14,3l-.75.13c-4.93-19.69-7.41-40.84-9.82-61.3-2.08-17.74-4.23-36.08-8-53.58,1.39-1.59,2.07-1.55,2.25-1.49,1.93.62,2.5,9.31,2.84,14.5.27,4.15.5,7.73,1.18,9.33a.94.94,0,0,0,1.54.29c2.8-2.89,2.79-9.54,2.79-17.24m89-78.56c1.94,2,5.72,2.21,12.26.72,3.66-.4,5.82-.07,6.79,1s1,3.15.23,6.54c-2,4.21-2.94,11.62-3.92,19.46-1.51,12.2-3.22,26-9.36,30.56a8,8,0,0,1-6.39,1.4c-10.27-5.38-16.32-13.52-18-24.16-2.87-18.26,7.81-39.38,19.63-52.48-.34,1.52-.72,3-1.1,4.48-1.43,5.57-2.56,10-.15,12.46m36.79,37.63c-.58-.69-.83-1-.75-1.37.28-1.3,3.85-3.59,10.61-6.8A11,11,0,0,1,568.13,562c-1.57,7.37-8.52,14.75-15.83,16.79a12,12,0,0,1-12.22-3c3-9.85,3.92-9.63,6.84-8.92a16.94,16.94,0,0,0,6.25.53.89.89,0,0,0,.55-.26c4.1-4,2.93-6.08,1.37-7.91m-11.5,38.07,2.58-.17c-.12,3.84-.28,7.68-.46,11.53-5,4.82-9.5,11.41-10.72,15.73-5.26,16.59.55,33.1,6.16,49.06,3.73,10.59,7.58,21.54,8.2,32.45a1,1,0,0,0,.26.63,2,2,0,0,0,1.45.78,1.41,1.41,0,0,0,.48-.09c1.22-.48,1.29-2.33,1.31-5.31a15.54,15.54,0,0,1,.08-2c0-.06,0-.17,0-.23.8-38.77,9-65.73,24.39-80.11,9.29-8.69,21.35-12.76,35.81-12.08a.93.93,0,0,0,1-.75.92.92,0,0,0-.58-1.06c-12.07-4.64-25.36-3.13-37.44,4.27a53.19,53.19,0,0,0-9.08,7q9.86-26.37,19.58-52.79c1.07-2.92,5.46-5.56,2.33-9.09a7.5,7.5,0,0,0-5.33-2c.64-.82,1.29-1.62,2-2.39,5.15-5.44,13.16-7.16,18.45-8.3,3.62-.78,5.43-1.17,5.53-2.59s-1.12-2.25-8.09-4.92c8.36-2.68,18.69.71,26.15,4.22,16.83,7.9,33.87,23.5,38,34.45-12.39-4.75-32.91-11-44-5.82a.92.92,0,0,0-.53.86.93.93,0,0,0,.55.84c28.77,12.92,53.27,43.06,58.76,72.08-24-5.23-59.11-7.36-80.91.18a1,1,0,0,0-.63,1,1,1,0,0,0,.8.85l4.78.68c13.78,1.94,32.33,4.55,41,12.24l-1.35,0c-10.54-.38-26.48-1-31.15,5.12a.93.93,0,0,0-.09,1,.9.9,0,0,0,.86.51c4.61-.13,19.87.49,23.1,1.88a75.85,75.85,0,0,1-10.25,2.75c-7.54,1.69-15.34,3.43-18.11,7.78a1,1,0,0,0-.06.9.94.94,0,0,0,.73.53c8,1,11.08,1.77,12.11,2.25a44.35,44.35,0,0,1-6,2.2c-6.28,2-14.88,4.78-19.87,9.51-12,6.92-19.68,20.87-26.44,33.18-2.11,3.83-4.14,7.53-6.17,10.74,8.78-25.57,21.72-47.38,38.54-64.9a.94.94,0,0,0,.26-.59,1.78,1.78,0,0,0-.89-1.89c-1.7-.82-4.7,1.6-11.13,7.29-1.66,1.46-3.7,3.27-5.2,4.43A75.45,75.45,0,0,1,612,656.53a1.63,1.63,0,0,0-1.13-3c-41.1,9.79-51.46,46.72-61.46,82.43-3.7,13.17-7.51,26.79-12.83,38.42a1.59,1.59,0,0,0-.07.2c-3.08,15.16-36.83,27.86-55.3,29.15-1.25.09-2.69.15-4.26.18a6.4,6.4,0,0,1-6.37-7.91l0-.12a6.38,6.38,0,0,1,5-4.47c22.94-4.49,45.83-24.32,49.81-44.69,2.94-15.07-5-27.63-22.48-35.43.28-1.6.6-3.48,1-5.58,4.57-26.85,16.69-98,31.28-107.74,3-.32,5.73-.49,8.41-.65M578.41,535c4-17.48,7-17.63,19.63-18.24,2.55-.12,5.4-.26,8.7-.56-3.85,8.73-16.61,14-26,17.86l-2.28.94M484.68,824.45c3.67-2.07,7.12-3.49,10.47-5.84,0,0,20.1-11.84,24.35-12.3-20.29,22.92-37.3,33.45-53.51,33.17-15.77-.29-32-10.93-50.94-33.41,5.17,2.55,10.33,5.7,15.35,8.76,16.7,10.19,34,18.69,54.28,9.62M447,729.81c-1.28-4,.06-7.25,4-9.71,12.84-8,48.28-4.88,58.33,5.15,2.93,2.92,3.33,6,1.24,9.48-8.59,7.46-21.7,4.39-32.23,1.92l-3.14-.73a.68.68,0,0,0-.2,0h-.1c-9.47,1-21.17,1.15-27.9-6.09M705,576.2s40.83,39,13.46,111.67c-2.69-2-5.22-5.49-7.88-9.19-3.27-4.55-6.65-9.26-10.9-12a117.3,117.3,0,0,1-11.44-11.29c-.77-.84-1.53-1.67-2.31-2.5.44.05,1,.16,1.31.23a3.56,3.56,0,0,0,2.08.08,1.21,1.21,0,0,0,.51-.6c1.93-5.4-.25-12.35-2.18-18.5-.67-2.13-1.31-4.15-1.75-6l0-.12c-4.93-13.19-10.7-24.1-17.64-33.34a22.65,22.65,0,0,0-3.55-4.38c-1.39-1.5-3.82-4.16-4.35-5.37a71.61,71.61,0,0,1,24.51,10.41,1,1,0,0,0,1,.05.93.93,0,0,0,.5-.83c0-17.44-14.41-33.71-26.53-44.28-13.39-11.69-31.09-22.34-45.56-27.49,13-12.3,14.79-15.43,13.77-17.34-1.13-2.11-5.38-1.14-13.84.81-3.89.89-8.27,1.89-13.09,2.75.52-.8,1.42-2,2.19-3,2.91-3.75,6.89-8.89,7.14-13.12a1.62,1.62,0,0,0-2.74-1.42l-2.23,2.14c-5.58,5.4-10.47,10.12-17.78,13.84,2.94-7.75,3.44-12.29,1.65-14.59s-5.19-1.78-8.51-1.32c-3.06.42-6.23.86-7.61-.88-1.91-2.42-.82-9,3.26-19.66,4.43-2,5.09-2.81,4.82-3.81s-1.49-1.18-3.73-1c.33-3,2-7.7,3.81-12.67,3.57-9.93,7.27-20.2,3.49-24.28-1.68-1.82-4.49-2.15-8.6-1l-.11,0c-4.46,1.77-10.23,2.12-16.33,2.48-12.15.73-24.71,1.48-27.65,14l0,.15c-2.43,33.61-12.52,45.63-22.28,57.25-9.26,11-18,21.43-19.8,48.54,0,.07,0,.14,0,.21,2.34,15.21-5.29,28.82-12.66,42-3.6,6.41-7.3,13-9.87,19.8-5.58-7.09-10.17-17.2-14.62-27-2.94-6.46-6-13.13-9.22-18.76,3.17-24.36-4.78-48.17-22.39-67.07-16.29-17.49-39.89-29.63-64.73-33.32a1,1,0,0,0-.45,0,1.57,1.57,0,0,0-1.23,1.42c-.06,1.8,3.37,3.57,13.71,8a65.17,65.17,0,0,1,7.12,3.28l.19.11c46.25,19.95,59.41,54.82,56.63,78.62-1.43,12.24-7.22,21.31-14.42,22.58s-14.6-5-20.9-17.52c-7-15-22.19-20.73-36.92-26.26-13.16-4.94-25.63-9.61-31.86-20.46,7.12.92,30.27,2.92,32.73-.13a1.51,1.51,0,0,0,.17-1.69.94.94,0,0,0-.53-.47,81.29,81.29,0,0,1-33.7-22.39.93.93,0,0,0-.18-.16,1.56,1.56,0,0,0-2,0c-.89.76-.62,2.44-.29,3.16a66,66,0,0,0,7.91,13.15l.94,1.28c-.92-.16-2.38-.5-4-.87-4.11-1-11-2.57-21.47-4.31a.94.94,0,0,0-.72.19,1.8,1.8,0,0,0-.7,1.35c-.18,2.79,5.23,8.5,11.79,15.13l2.07,2.11c-32.18,11.39-67.26,39.21-73,71.12a.93.93,0,0,0,.31.87,1,1,0,0,0,.91.19,77.41,77.41,0,0,0,8-3.47c5.71-2.72,12.11-5.76,16.29-5-17.36,19.75-27.68,42.51-29.08,64.24a.92.92,0,0,0,.32.76c1.18,1.07,2.79.69,4.36.31a6.76,6.76,0,0,1,3.05-.29,142.53,142.53,0,0,1-13.42,13.18c-7.77,7-15.78,14.22-21,23.25,0,0-37.4-71.45,8.49-110.54a9.62,9.62,0,0,1,2.53-1.07.94.94,0,0,0-.08-1.74c-8.21-2.88-21.47,1.27-33.18,4.93-3.36,1.06-6.56,2.06-9.46,2.84,5.46-18.86,25.17-37.09,40.74-47.17,6.93-4.77,14.69-8.4,22.19-11.91,2.46-1.15,5-2.35,7.5-3.57a.54.54,0,0,0,.16-.1,1.41,1.41,0,0,0,.64-1.57c-.41-1.32-2.62-1.6-8.86-2a51.32,51.32,0,0,1-6.26-.67c1.78-1,7.23-2.75,11.34-4.05,11.12-3.51,14.36-4.81,14.45-6.6,0-.39-.13-1.11-1.24-1.58a1,1,0,0,0-.55-.06c-13.16,2.64-27.48,1.67-41.52-2.79,3.07-1.66,8.27-2.25,13.33-2.82,4.69-.53,9.54-1.07,13.15-2.48a192.11,192.11,0,0,0,30.74-10.35.94.94,0,0,0,.54-.61,1.71,1.71,0,0,0-.2-1.38c-.75-1.19-2.91-1.66-6.36-2.32-2.49-.48-5.55-1.07-6.83-2.1a31.08,31.08,0,0,1,5.44-.65,16.6,16.6,0,0,0,4.76-.63c9.75-1.67,18.71-5.78,27.38-9.76,7.42-3.41,15.09-6.93,23.16-8.85a.9.9,0,0,0,.56-.39,1.66,1.66,0,0,0,.14-1.7c-.74-1.43-3.86-2.82-21.4-3.33,8.57-11.75,29.15-22.08,35.41-25,10-4,21.18-3.88,30,.37a1.6,1.6,0,0,0,2-.6,1.57,1.57,0,0,0-.21-2c-5.73-5.95-14.12-7.71-21.53-9.26l-3.47-.75c0-.53,0-1.21-.09-2.07a15.41,15.41,0,0,0,4.86.81h0a30.8,30.8,0,0,0,5.48-.22c2.85-.27,5.81-.56,7.41.26l.3.11c9.12,1.48,20.82,4,30.47,10.06a1.6,1.6,0,0,0,2-.22,1.64,1.64,0,0,0,.26-2,1,1,0,0,0-.36-.34c-14.77-8.08-12.86-13.89-9.4-24.44S399.87,372.21,390,348a.54.54,0,0,0-.07-.13c-2.86-4.9-7.95-13.63-8.75-16.41,1.33.77,4.73,3.56,13.37,12.35l.14.11c1.93,1.31,4.26,6.7,6,10.63,2.23,5.14,3.08,6.92,4.4,6.83.43,0,1-.29,1.3-1.33a.93.93,0,0,0,0-.33,30.29,30.29,0,0,0-4.55-14.16c-2.27-3.94-3.52-6.11,1.16-12.94l.07-.1c9.29-18,2.55-32.82-.69-40a28.67,28.67,0,0,1-1.31-3.16c1.74.42,7.28,3.45,12.2,6.15,15.88,9.26,17.81,20.31,19,26.91.55,3.13.91,5.2,2.62,5.82,2.2.8,5.48-1.25,15.95-10,12.18-9.43,15.17-24.35,16.63-38.1,5.19,8.39,10.34,20.32,8.55,29.8a12.77,12.77,0,0,1-1.35,3.67c-1.13,2.12-3.1,5.79-3.53,6.56-.62,1.11-1.5,5.05,6,1.61,11.58-5.3,44.46-12.28,55.69-15.69,6.31-1.75,8.69-2.06,9.5-1.95-.53,1.1-3.43,3.91-6.24,6.63-9.58,9.27-27.43,26.53-34.36,49.88a1.62,1.62,0,0,0,2.64,1.77.27.27,0,0,0,.07-.08c5-6.17,19.63-24.45,32-23.86-3.21,4.08-6.75,9.32-8.29,15.38a1.71,1.71,0,0,0,.9,2,1.6,1.6,0,0,0,2-.63c6.93-11,14.84-19.09,23.52-24.12-.79,1.69-2.62,4.67-4.05,7-3.18,5.19-5.17,8.54-5.29,10.23-8.35,20.33-7.4,45.1,2.4,63.33-1.08,1.67-3.49,2.93-6,4.26-2.83,1.49-5.77,3-7.48,5.45a1,1,0,0,0-.12.23,1.58,1.58,0,0,0,.32,1.89c1,.89,2.83.07,7-2.14a23.63,23.63,0,0,1,3.71-1.76.78.78,0,0,0,.37-.06,85.08,85.08,0,0,1,36-5.36.93.93,0,0,0,1-.74,2.71,2.71,0,0,0-.71-2.49c-3.11-3.33-15.74-2.53-19.81-2.18,5.61-29.58,23.28-55.31,40.37-80.21,16.27-23.7,33.09-48.2,40.14-76.49,34.67,57.05,38.06,143.2,8,206.29-3.17-1.91-6.1-5-9.18-8.33-3.51-3.75-7.13-7.61-11.46-10,18.37-13.62,31.46-33.56,35.94-54.8a1.62,1.62,0,0,0-3.06-1l-1,2c-5,9.61-13,25.13-21.35,29.6a125.23,125.23,0,0,0,16.67-54.33.38.38,0,0,0,0-.15c-.09-1-.56-1.32-.94-1.43-1.08-.33-2,.77-3.94,3.18-2.41,3-6,7.33-9.95,8.79a62.13,62.13,0,0,0,16.27-35.37c.19-4.41,0-5.54-1.09-5.76-1.27-.26-1.86,1.26-3.78,6.31-1.73,4.54-4.43,11.65-7.06,14.13,4.82-24.87,8.84-53.08-.65-76.74a1.61,1.61,0,0,0-1.92-1.08,1.72,1.72,0,0,0-1.25,1.76,120.3,120.3,0,0,1-5.79,41.23c-3.69,17.26-38.91,89.37-45.58,96.51.19-2.21,1.91-9.27,10.26-31.58a1.63,1.63,0,0,0-2.74-1.71c-8.09,10-16.08,22.05-14.32,36.05-.82.23-2.14.56-3.61.92-10.23,2.51-19.51,5-20.68,8.36a2.27,2.27,0,0,0,.39,2.22,1,1,0,0,0,1.07.31c4.3-1.38,9.39-2.74,14.73-2.45,17.74.15,31.76,11.7,45.32,22.88,1.92,1.58,3.9,3.21,5.85,4.77-1.6.53-6.36.68-9.63.78-7.75.24-12.56.48-13.73,2.38a1.9,1.9,0,0,0-.07,1.81.94.94,0,0,0,.69.53c8.75,1.55,16.9,5.4,24.79,9.12,2.52,1.19,5.13,2.42,7.75,3.58,11.86,4.76,21.7,7,30.91,7.05-1.48,1.13-5.23,1.83-8.28,2.4-4.12.77-6.29,1.22-6.94,2.43a1.5,1.5,0,0,0-.06,1.31.94.94,0,0,0,.55.52l1.23.47c10.87,4.13,22.11,8.4,33.83,10.72,18.05,2.22,20.81,4.08,21.24,4.6-2,2.54-30.91,5.26-44.32,2.5a.94.94,0,0,0-.61,1.75c3.15,1.6,8.75,3.38,14.16,5.11s12.84,4.09,14.17,5.39c-.72.37-3.4,1.08-13.35,1.19a.85.85,0,0,0-.38.09,1.68,1.68,0,0,0-1.18,1.55c0,1.29,1.61,2.2,4.54,3.45l.65.28c26.49,11.31,57.25,33,65.37,60.5-11.86-4.33-25.1-7.23-41.53-9.11-.53,0-2.57.1-3,1.31a1.55,1.55,0,0,0,.72,1.85"/><path class="cls-5" d="M481.23,777.75s14.63-12.1,15.33-12.8c1.63-1.62.55-6.22-5.14-4.87s-12.17,13.26-10.19,17.67"/><path class="cls-4" d="M453.57,777.75s-14.63-12.1-15.33-12.8c-1.62-1.62-.54-6.22,5.14-4.87s12.17,13.26,10.19,17.67"/><polygon class="cls-4" points="628.56 36.82 621.82 36.82 623.1 28.6 632.91 28.6 628.56 36.82"/></g></g></svg>