<svg xmlns="http://www.w3.org/2000/svg" viewBox="0 0 805.84 938.45"><defs><style>.cls-1{fill:#1741f4;}.cls-2{fill:#fdfdfd;}.cls-3{fill:#e3e8e8;}.cls-4{fill:#476dfd;}.cls-5{fill:#fff;}.cls-6{fill:#0222ca;}.cls-7{fill:#03033d;}</style></defs><g id="Capa_2" data-name="Capa 2"><g id="Capa_1-2" data-name="Capa 1"><path class="cls-1" d="M27.33,529.55c.14,2.86.26,5.7.17,8.56-1.87,62.14,35.08,142.67,79.13,177.34a1.22,1.22,0,0,0,1.6-.1,1.21,1.21,0,0,0,.09-1.6c-10.35-13.06-18.08-32-20.16-49.48-2.28-19.12,2.17-34.84,12.57-44.57,1.21,21.4,3.72,38.74,7.86,54.4a1.19,1.19,0,0,0,.57.73,1.23,1.23,0,0,0,.92.12c3.78-1.06,7.37-4.28,11.17-7.69,3.59-3.22,7.29-6.53,11.26-8.12,26.09,71.32,67.45,135,116.55,179.51a1.13,1.13,0,0,0,.74.31,2.52,2.52,0,0,0,2.47-1c.69-1.27-.33-2.69-1.75-4.65a19.74,19.74,0,0,1-2.51-4.14,1,1,0,0,0-.07-.15c-8.77-16.32-15.88-39.73-11.74-54.29,27.37,38.23,65.12,67.5,101.64,95.82l1.05.81c40.37,31,52.5,52.23,57.67,61.3,2.23,3.91,3.25,5.69,5,5.77h.11c1.85,0,3.22-2,6.46-6.69,4.63-6.71,13.26-19.22,31.47-38,14-12.7,29.07-24.79,43.66-36.48,30.91-24.77,62.87-50.38,86.48-83.54,2.26,4.28-1.76,34.08-4.32,38.14a1.11,1.11,0,0,0-.2.65c.17,2.28-3.22,8.16-5.94,12.87-3.88,6.72-5.86,10.32-5,12.2a1.93,1.93,0,0,0,1.54,1.08,1.17,1.17,0,0,0,1-.32c52.94-49.93,92.94-112,115.67-179.49,2.07,0,9.8,6.58,14,10.16,7.06,6,8.41,7,9.7,6.26A1.47,1.47,0,0,0,697,674c5.79-18.89,7.48-38.38,8.2-53.76,7.59,7.12,12,16.68,13,28.45,2.32,26-12.13,56.27-26.54,73.4a1.2,1.2,0,0,0,1.72,1.67c48-42.74,84-114.81,89.9-171.09a91,91,0,0,0-12-56c-.43-.72-.87-1.45-1.33-2.18a108.25,108.25,0,0,1,32.28,23.62,2.09,2.09,0,0,0,3.54-2C794.47,468.29,767.93,422,731,385.59l4.63-2c15.29-6.6,34.32-14.82,41.74-25.83a1.2,1.2,0,0,0-1-1.88c-22.44-.57-45.46-6-68.45-16.23,2.84-5.18,7.13-10.32,11.64-15.75,4.8-5.76,9.76-11.72,13.14-18l.06-.13a1.77,1.77,0,0,0-.26-1.86c-1.22-1.44-4.53-.89-13,.92-2.7.58-5.87,1.26-7.92,1.5l.73-1.21c13.69-22.78,30.73-51.13,29.84-81a1.21,1.21,0,0,0-1.62-1.1c-3.13,1.14-7.57,4.69-12.72,8.8-8.66,6.91-19.33,15.44-26.47,14.36,3.62-52.41.22-98.54-10.12-137.11C677.43,57.6,651.41,21,613.89.15a1.22,1.22,0,0,0-1.17,0,1.2,1.2,0,0,0-.62,1c-1.59,28.51-13.93,60.38-33,85.25-20.36,26.52-45.75,42.07-71.81,44.05,10.54-10.91,24.28-20.28,43-29.34a1.19,1.19,0,0,0,.68-1.1,1.21,1.21,0,0,0-.72-1.08c-25.93-11.44-65-8.38-116,9.1-2.05-14.45-10.11-29.57-22.27-41.71-12.66-12.64-27.7-19.85-41.36-19.85h-.47a1.22,1.22,0,0,0-1,.65,1.2,1.2,0,0,0,.07,1.24c5.84,8.53,12.66,21.91,11.94,37.13-1.51,13.65-3.63,20.57-6.67,21.78s-8.21-3.16-14.74-8.7C344,85.3,317.83,63.11,274.38,76.12a1.18,1.18,0,0,0-.83.87,1.2,1.2,0,0,0,.35,1.16c36.37,34.26,34,46.4,32.4,49.3-2.13,3.88-8.68,4.76-18,2.39-14.14-3.59-38.08-16.18-59-39.81C213.5,72.19,194.62,42.45,194.46,2A1.19,1.19,0,0,0,192.73,1c-37.77,18.47-64,54.6-77.85,107.39-10.09,38.33-13.59,84.55-10.41,137.41-12.88-.67-27.15-14.18-36.69-23.21l-.15-.14a2.11,2.11,0,0,0-2.31-.38,2.06,2.06,0,0,0-1.22,1.9c-.71,29.28,15.46,57.41,28.46,80l1.2,2.1a39.39,39.39,0,0,1-8.08-1.41c-4.92-1.19-9.56-2.31-11.87-.06a1.19,1.19,0,0,0-.15,1.49,314.22,314.22,0,0,0,24.57,32.39c-15.6,11.4-37.4,13.63-51.92,15.12-10.42,1.07-16.16,1.65-16.74,4.89-.68,3.76,5.48,8.57,45.13,28.31C39.94,417.66,14.15,462.42.07,516.34a2.06,2.06,0,0,0,1.05,2.37,2.08,2.08,0,0,0,2.56-.5c7.84-9.2,18.17-17,30.72-23.18,0,0-7.57,25-7.07,34.52"/><path class="cls-2" d="M618.77,68.22c3.27-7.5,5.36-15.42,8.13-23.09a1.16,1.16,0,0,1,2.08-.19c24.58,41.32,35.59,91,39.17,138.48,3.63,48-8.71,92.14-30.56,131.8a1.17,1.17,0,0,1-1.82.28c-3.78-3.66-7.24-7.63-10.92-11.38a1.12,1.12,0,0,1,0-1.62,112,112,0,0,0,22.36-30.82,1.15,1.15,0,0,0-2-1.2c-7.47,9.73-16.95,20-26.8,27.41-3-2.23-6-4.43-9-6.69a1.14,1.14,0,0,1,0-1.83c21.77-16.16,40.18-41.76,46.14-68.45a1.15,1.15,0,0,0-2.16-.76c-8,16.67-18.27,32.93-33.55,43.49a160.42,160.42,0,0,0,25-74.31,1.15,1.15,0,0,0-2.1-.74c-4.82,7.12-11.26,13.14-19.73,15.64,12.71-13.5,24.12-32.18,23.68-51.26a1.15,1.15,0,0,0-2.28-.22c-2.17,10.14-6.58,20.11-15.4,25.88,11.17-32.16,12.68-67.61,2.35-100.12a1.15,1.15,0,0,0-2.24.39c1.35,40.53-16.77,78.58-34,114.47-10.91,22.56-20.93,45.64-34,67C559,244.18,566,229.3,573,215.09a1.15,1.15,0,0,0-2-1.21c-8.92,11.16-12.23,31-16.52,44.57-4-.19-11.2-7.64-15.06-8.77a1.16,1.16,0,0,1-.8-1.21c1.38-18.45-5.15-40,5.48-56,26.72-40.36,57-78.6,74.65-124.24M216.27,143c12.59,18.15,24.31,36.92,37,55,6.64,12.82,6,30.95,7,45.07-15.34-32-34.09-65.85-44-100.07m311,190.36a33,33,0,0,1,6.34-1.78c-8,9-18,16-25.52,25.38,8.3-2.35,16.31-5.72,24.89-7.05-11.46,9.08-23,19-29.83,32.16,26.13-12.44,54.64-18.73,82-28,0,0,0,0,0,.05-14.54,20.82-30.6,24.68-49.48,32.18,16.76,1.94,33.67,1,50.35-1.29-38.85,52.14-56.92,6.72-105.53,83.64h0c-5,5.85-15.93,4.19-19.93-2.11A95,95,0,0,0,456,454.83a58.05,58.05,0,0,1-3.42-37.58c1.84-9.25,7-17.25,12.06-25-4.33,2.54-8.87,4.7-13.37,6.91,2.41-9.25,9.3-14.4,15.86-20.46h0a130,130,0,0,1,17-17c10.15-14.71,27.13-21.23,43.06-28.28M325.68,361.84c19.79,17.34,37.09,42.32,38.24,69.17.74,14.77-18.55,50.65-36.19,40.53l-2.11-2.31c-23.75-25.34-20.07-44.31-60.46-55.36l-4.84-1c19.5-6.56,40.71-2.23,59.51,10.55a1.52,1.52,0,0,0,2.14-2.05c-5.43-8.83-13.66-15.57-21.45-22.33,11.39.3,21,6.4,30.26,12.43a2.46,2.46,0,0,0,3.76-2.51c-3-15-17.79-27.93-28.64-37.31,11.17.86,22.86,11.51,33.06,14.78-.16-10.08-8.78-16.4-13.28-24.56m246.47,48.72c24.59-14.26,76,22.46,89.63,52.76a131.74,131.74,0,0,0-40.59-10.91,5.53,5.53,0,0,0-3.46,10.19,140.14,140.14,0,0,1,61.72,87c-33.64-9-69.17-7.62-103.47-2.8a1.24,1.24,0,0,0,0,2.45c21.72,2.71,43.63,7.18,62.22,19.18-14.5-1.66-29.56-1.38-43.67,2.55a1,1,0,0,0,.29,2c10.51,0,21.92,2.11,32.26,4-11.08,3.57-24.37,6.18-35.3,10.21a2.91,2.91,0,0,0,.48,5.59c4.14.75,13.85-1.35,15.74,5.62-45.66,7.17-73.52,47.79-89.32,87C528,648.36,546,613.24,572,585.12a1.25,1.25,0,0,0-1.59-1.9c-9,5.92-16.84,13.52-24.58,21,8.65-15,21.55-26.61,36.28-35.29a1.56,1.56,0,0,0-1.25-2.84c-28.5,9.53-47.14,36.87-57.23,64.81-12.16,28.53-12.55,67.2-34.28,95.26-1.08,1.39,2.15-9.72,1.13-8.64-4.55,4.81-8.85,9.87-13.88,14.18-20.07,14.13-42.74,20.72-75.6,8.52,21.55-6.2,45.66-15.93,61.44-32.53,19.09-24.36,15.74-60.32-17.29-69.2,8.3-40.65,16.45-89.08,29.63-128.48,14.14,36.53,27,80,34.33,118.59a1,1,0,0,0,1.94-.14c.06-2.79-.7-5.52.53-6.24,5.89-19.46,8.73-43.51,16.9-63.3,9-27.91,26.13-47.83,57.51-50.62,31.85-2.83,25.33-1,5.42-18.26-8.52-7.65-16.83-16.18-21.24-26.93-6.76-14.7,5.45-32,21.83-28.22h0c12.58,1.27,23.82,7.32,35.54,11.64.84.31,1.39-.57,1-1.37-15.14-31.47-37.56-27.46-56.39-34.62M275.2,430c6.78,3,25.74,6.88,13.08,16.25h0c-8.88-.44-13.79-7.8-13.07-16.25m237.6,9.33c4.69-3.65,9.81-6.88,15.56-8.59,1,8-4.18,13.39-11.08,16.29a31.25,31.25,0,0,1-4.48-7.7M387.59,644.83s38.71.32,25,25.22,44.67,11.5,48.62-.52-.38-25.32-35.82-28.17-37.83,3.47-37.83,3.47"/><path class="cls-3" d="M295.41,356.67c-2.46-.38-22.52-9-20.42-4.4,10.35,7.68,19.76,16.86,26.48,27.89a.88.88,0,0,1-1.14,1.26c-25.72-12.15-54.1-17.13-80.33-28l.14.82c9,9.47,18.84,18.51,30.6,24.46,1.79,2,18.43,5.84,14.55,8.08-14.38,1.14-28.82,1-43.06-1.45a.88.88,0,0,0-.79,1.44c44.6,46.11,44.77,13.35,84.39,30.28,3,0,18.56,12.33,18.05,7.84-4.93-9.83-13.14-17.33-21.56-24.13a.89.89,0,0,1,.68-1.55c11.48,1.15,21.18,8,30.67,14.15a.89.89,0,0,0,1.36-.81c-.42-9.53-5.64-18-11.39-25.38-4.43-5.84-23.56-18.2-1.58-9.44,3.83.84,14.45,12.07,16.9,8.71-.82-9.36-9-16.74-13.27-24.56a18.5,18.5,0,0,0-4.48-4.39,186.46,186.46,0,0,0-50.87-26.55c2.31,2.49,30.69,25.6,25.07,25.77"/><path class="cls-3" d="M462.5,469.23c-29.76-58.1,32.24-103.09-7.54-78.6l-5.8,8.47c-16.24,23.06-8.44,55.7,13.34,70.13"/><path class="cls-3" d="M467.14,378.65c6.25-8.65,15.73-14.31,22-22.82,0-5.23-14,9.52-15.88,10.93-5.23,5.62-14.11,15.13-16.95,22.41,2.92-1.77,8.72-7.79,10.82-10.52"/><path class="cls-3" d="M490.48,717.54c-4.55,4.8-8.85,9.87-13.88,14.18-19.48,13.82-51.84,16.72-74.4,8.93-.11-2-.38-3.87-1.2-4.39-30.21-6.23-68.07-18.15-71.86-52.93-1.24-9.66,0-20,5.47-28.31,0,0,15-14.61,25.09-14.4L358.43,633,342,546.1c-1.84-11.38-7.61-23.49-11-34.49-.29-.79-1.16,6.61-1.64,7.3-17.18,24.66-20.63,51-27.84,77.13-3.27,11.09-3.35,22.44-5.56,33.79a.88.88,0,0,1-1.75-.13c-.93-26.22-3.59-52.74-11.8-77.77-8.24-34-42.5-54.75-76-51.4-1.68-.21-13.32,5.32-10.86,2,15.65-10,31.36-22.59,38.85-40.07,3-7.8,1.33-17.52-5.18-23.06-16.07-11.57-36.46,1.94-52.71,7a.89.89,0,0,1-1-1.37,119.38,119.38,0,0,1,42.76-35c2-2-2.3-1.88-3.45-1.43-29.8,5.56-58.49,26.52-70.53,52.35a.89.89,0,0,0,1.12,1.27,119.06,119.06,0,0,1,58.16-9.86c.88.08-6.37,1.34-7.15,1.74-7,3.62-8.73,6.59-15,11.4-28,19.78-46.22,49.85-55.91,82.48-.22.67,1.51,1.47,2.19,1.28,18-5,37.21-3.3,55.83-3.17,16.65.41,33-1.85,49.42,1.19a.89.89,0,0,1-.06,1.76c-21.11,2.22-44.31,5.46-62.87,16.25-.79.48,1.06,2.49,2,2.44,2.23-.65,14.38-.5,25.14.53a3.19,3.19,0,0,1-.08,6.35c-8.08.6-18.39,1.51-16.49,3.55,12.84,3.08,28.51,6.78,40.7,12,3.67,2.57-20.19,2.81-22.44,5.07a.89.89,0,0,0,.1,1.7c31.23,6.64,59.2,32.05,73,60,28.6,58.28-2.31-33.23-14.14-43.67-6-9.35-19.07-21.5-26.43-29.77-.71-5.82,20.06,13,21.73,14.94a.89.89,0,0,0,1.35-1.14c-9.66-13.64-23-24.29-38-31.58a.89.89,0,0,1,.61-1.66c12.05,2.76,23.82,8,32.91,16.31,58.67,54,29.55,174.11,124.33,178.65,11.09-.16,25.32,5.08,36,2a13.83,13.83,0,0,0-1.43-3c15.29-.28,35.87-5.69,48.32-8,16.08-3.16,34.6-13.62,34.6-32.35,0-.52-.94-.39-1.29,0"/><path class="cls-3" d="M609.85,503.13c-21.32-.83-44.94-3.75-63.22,9.06-32.52,23.91-31.38,72.76-35,109.27-.1,1.13,1.85,1.38,2,.26,7.67-34.49,14.34-73.36,39.46-99.84,15.49-15.19,38.8-12.93,58.64-15.88,2-.84-.77-2.69-1.88-2.87"/><path class="cls-3" d="M462.44,759c-6.13,5.28-56.54,20-69.2,20.37s-63.71-25.64-63.71-25.64c15,48.31,67.72,52.74,87.13,54.86S475.32,761.52,476,757.3s-7.38-3.59-13.51,1.68"/><path class="cls-3" d="M169,313.89c3-4.21,9.55-7.91,10.76-12.48a102.45,102.45,0,0,1-22.61-32.59.89.89,0,0,1,1.53-.89c6.06,8.21,12.38,16.27,20.35,22.7,4.66,3.49,11.06.9,16-.76a.89.89,0,0,0,.25-1.48c-21.7-17.55-40.22-41.58-45.39-69.49a.89.89,0,0,1,1.68-.51c7.14,15.92,17.09,31.27,30.47,42.62a.89.89,0,0,0,1.3-1.17c-13.62-21.57-20.69-46.81-22.83-72.15.39-4.67,8,11.72,17.66,14.59a.89.89,0,0,0,1.07-1.37c-11.47-13.75-21.1-31.11-20-49.53a.89.89,0,0,1,1.76-.06c1.75,9.93,5.84,19.84,13.76,26.15a.88.88,0,0,0,1.38-1c-11.42-31.6-11.54-66.65-1.9-98.74A.88.88,0,0,1,176,78c1.63,65.21,39.6,123.46,67.4,180.62a.89.89,0,0,0,1.63-.47c.58-16.17-5.89-31.42-12.76-45.89,1.81-6.61,21,30.41,21.53,33.72.92,7.35,7.24,3.91,12.39,3.41.33-15.38.89-30.79.37-46.18-14.94-32.18-41.91-57.43-57.29-89.51-12.13-22.1-23.56-44.66-30.67-68.94-20.06,24-27.39,64.65-32.9,97-7,57.25-6.34,120.2,21.92,172a.89.89,0,0,0,1.41.15M250.59,194c5.82,10.87,5.36,24.1,6.52,36.14-2.3,4.41-8.7-16.52-10.93-18.63-10-22.75-23.91-44.17-29.91-68.5,11.67,16.83,22.54,34.22,34.32,51"/><path class="cls-4" d="M644.45,59.52c39.46,59.73,54.32,198.2,7,256.05a.89.89,0,0,1-1.42-1c36.94-79.66,28.83-175.91-5.6-255"/><path class="cls-4" d="M571.72,410.75c20.49-8,53.76,16.57,56.82,34.42.15.88-.17,1.68-1,1.38-11.22-3.71-24.55-11.46-37-12-13-.53-23.71,10.5-21.76,23.38,2.69,17.76,25,35.09,38.7,43.62a.89.89,0,0,1-.43,1.65c-12.17,0-23.7-1.43-36.12-.43-32,2.57-56.57,27-61.1,58.22C508,563.77,508,590,505,585.34c-5.95-25.55-9.78-55.23,6.67-77.74.46-2.08,11.74-9.64,7.31-9.9-46.8,16-14.58,95.87-45.73,16.92-18.44-46.72,37.05-7.33,65.57-41.12,1.78-1.61,17-23.64,11-21.59-2.79,4.35-5.38,8.84-8.91,12.66-8.55,9.81-21.14,17.06-34.5,15.09a.89.89,0,0,1-.28-1.7c28-8.91,31.41-28,47.58-47.75,15.17-16,48.67-8,18-19.46"/><path class="cls-5" d="M268.19,424.31c9.3-1.54,3.75,12.58,23.19,14.18,8.11,11.07,12.07,9.33,23.6,4.38,5.36,2.58,1.06,16.82-2.9,20.06-23.65,22.37-52-14-43.89-38.62"/><path class="cls-5" d="M521.41,429.21c12.75-34,17.84,20.73,8,30.4-4.85,8.78-17.64,16.12-27.87,12.18-2.92-6.74-11.19-15-8.27-21.53,9.78-2.52,22.15-13.23,28.18-21.05"/><path class="cls-4" d="M428.27,478.17c3.09-4,9.37-22.48,12.51-19.81,16.39,13.9,11.18,36.05,12.81,55.16,3.31,5.19,2.17-25.84,3.79-28.81.11-.61,2.53-1.38,3.06-1.06,8.42,2.84,3.31,10.15,2.88,16.8-8.09,44.66-9.7,93.49-18.81,136.93-16.14-3.16-34-6.37-50.5-5.09-9.84-.56-22.65,6.64-31.63,4.22-3-24.2-4.71-50.39-6.48-74.71-3-16.58,5.59-51.65,26.67-30.68,6.13,6.59,9.06,15.08,12.2,23.36a.89.89,0,0,0,1.71-.39c.37-4.59-5.86-44.15-1.13-42.48,2.27,1.91,5.44,21.49,8.08,19.49,8.83-17.44,16.22-35.39,24.84-52.93"/><path class="cls-4" d="M416.06,521.53c-8.45,10.32-9.7,23.77-11,36.56,2.21,4.36,4.4-10.33,5.63-11.89,3.75-11.61,8.12-23.24,15-33.35-.08-5.18-8.57,7.37-9.64,8.68"/><path class="cls-4" d="M365.14,596c3.19,9.74,3.21,22.28,7.83,30.72,63.51-12.4,59.93,18.36,64.91-21.69-2.95-5.36-5.66,18.45-10.71,16.6-15.4.08-30.82,0-46.24.08-1.73-.2-4.19.31-5-1.66-4.33-7.66-6.6-16.3-10.77-24.05"/><path class="cls-6" d="M148.86,82.49c1.43-2.29,6.81-17.1,7.92-12-29.92,77.32-36.5,168.59-.87,245.06-.74,2.63-4.24-.37-7.67-4.27a58,58,0,0,1-10.66-18.07c-24.86-66.47-14.05-145.63,11.28-210.67M218.74,408c1.6-.19,18-1.06,16.73,4-.51,2-17.52,5.45-13.91,5.69,49.12,3.33,33.22,47.48,77.3,60.13a.89.89,0,0,1-.18,1.73c-19.87,2.77-36-11.84-45.05-28-.58-.9-1.38-.48-1,.51,4.35,10.61,10.29,19.77,19.3,27,27.14,22.62,46.22-10.84,59,39,.68,2.67-14.67,30-16.39,25.07-.63-7.11,1.13-12.41-1.77-19a49.18,49.18,0,0,0-27.16-26.49c-.9-.36-1.23.78-.53,1.46a57.84,57.84,0,0,1,10.32,12.73c13.49,22.51,10.33,50,4.28,74.52a.89.89,0,0,1-1.75-.12c-1.79-20.22-4.78-40.93-15.44-58.55-14.8-26.26-47.24-30.51-74.44-23.05-2.13-.23-14.57,1.29-12.51-2.16A127.24,127.24,0,0,0,221,482.14c10.81-10.71,22.43-30.09,8.21-42.77-16.09-11.6-36.43,2-52.71,7a.89.89,0,0,1-1-1.37c12-15.71,25.1-29.1,43.25-37.07m137,62.23c1.91-2.22,6.91-13.1,9.39-11.41,8,16.47,16.63,31.44,24.94,47.75,1.29,2.76,5.14,8,5.49,11.08a284.35,284.35,0,0,0,.91,36.47.89.89,0,0,1-1.71.39c-3.14-8.28-7-16.46-13.13-23-7.75-10.1-19.52-6.55-23,5.48-6.44,20.67-.13,42,1.09,63.05.75,11.59,3.08,21.42,4.4,32.95.57,1.58,4.77,1.92,6.09,2.25-2.87.69-7.67,5.45-9.69-1.62-12.78-44.94-12.42-95-21.42-141.35-1-5.92-1.17-5.74,5.07-8.27a.89.89,0,0,1,1.28.67c1.38,10.42,2.87,20.81,4.12,31.24a.88.88,0,0,0,1.76,0c1.86-15-.13-31.19,4.41-45.61m60.31,51.33c1.15-1.42,9.49-13.77,9.64-8.68-6.92,10.11-10.87,21.88-15.05,33.35-.87,2.4-3.53,16.4-5.62,11.89,1.33-12.79,2.58-26.24,11-36.56"/><path class="cls-4" d="M275.74,151.71a192,192,0,0,0-22.12-14.44c-19.26-10-36.52-23.13-49.42-40.47,17.78,34.47,44.65,62.88,64.68,95.93,10.52,17.23,19.63,35.43,25.9,54.65a.89.89,0,0,0,1.69,0c10.56-32.79,11.46-74.74-20.73-95.66"/><path class="cls-4" d="M530.9,150.4A191.17,191.17,0,0,1,553,136c19.25-10,36.52-23.13,49.42-40.47-17.78,34.47-44.65,62.88-64.68,95.93-10.52,17.23-19.63,35.43-25.9,54.65a.89.89,0,0,1-1.69,0c-10.56-32.8-11.46-74.75,20.73-95.67"/><path class="cls-4" d="M99.23,271.18c2.33.28,11.26,5.69,12.31,3.11-.09-1.61-2.64-4-4.35-4.59-2.69-.62-18-10.24-17.91-6.38,8.33,17,19.31,33.55,33.4,46.33.73-7.17-29-36.11-23.45-38.47"/><path class="cls-4" d="M196.5,286.49c-15,5.4-33.31-14.57-41.81-24,5.55,14.16,12,32.38,24.34,40.75,1.15-1.68,21.72-15.83,17.47-16.72"/><path class="cls-4" d="M474.25,648.08c4.32,1.29-2.58-7.09-3.06-8.52-2.26-3.68-3.73-11.12-3.73-15.39,0-18.78-2.55,9.87-3.14,11.42-.13,5.78,7,8.18,9.93,12.49"/><path class="cls-4" d="M637.57,279.9c-5.32,5.83-14.08,10.16-20.25,15.05-1.42.82,7.69,10,8.64,8.94,9.83-6.47,38.41-58.48,11.61-24"/><path class="cls-4" d="M696.77,269.7c-1.71.64-4.26,3-4.35,4.59,1,2.58,10-2.83,12.3-3.11,5.56,2.36-24.17,31.3-23.44,38.47,14.08-12.78,25.06-29.31,33.4-46.33.13-3.86-15.23,5.76-17.91,6.38"/><path class="cls-4" d="M338,624.17c0,4.27-1.46,11.71-3.72,15.39-.48,1.43-7.38,9.81-3.06,8.52,2.95-4.31,10.06-6.71,9.93-12.49-.59-1.55-3.15-30.2-3.15-11.42"/><path class="cls-4" d="M499.78,802.15c-17.23,13.7-32.84,29.25-48.88,44.28a.89.89,0,0,1-1.43-.94c.54-3,8.33-18.85,3.67-18.5-13.6,12.78-28.86,23.93-40.84,38.33-9.58,12.1-7.48,28.75-10.05,43.15,27.61-48.62,78.77-77.39,115.2-118.73,1.27-5.79-15.38,11.52-17.67,12.41"/><path class="cls-4" d="M403,487.57a314,314,0,0,0,1.22-34c2.69-40.88,10.22-81.77,26.24-119.5,6.36-14.76,14.16-29,24.27-41.56a.89.89,0,0,0-1.1-1.34C442,297.23,432.18,306,423.72,315.91a206.27,206.27,0,0,0,1.5-41.73A359.88,359.88,0,0,1,440,239c1.82-3.59,11.47-20.1,1.49-9.55-16.19,19.92-28.14,42.85-37.66,66.6-9.52-23.75-21.47-46.68-37.66-66.6-10-10.55-.33,6,1.49,9.55a359.88,359.88,0,0,1,14.81,35.15,206.27,206.27,0,0,0,1.5,41.73c-8.46-10-18.32-18.68-29.94-24.77a.89.89,0,0,0-1.1,1.34c10.11,12.53,17.91,26.8,24.28,41.56,16.61,39.14,23,81.68,25,124.08a226.05,226.05,0,0,0,.75,29.45"/><path class="cls-2" d="M257.53,511c32.53,23.9,31.38,72.75,35,109.27.11,1.13-1.84,1.38-2,.26-7.67-34.49-14.34-73.36-39.46-99.84-15.49-15.2-38.8-12.93-58.64-15.88-2-.84.78-2.69,1.89-2.87,21.31-.84,44.93-3.76,63.21,9.06"/><path class="cls-7" d="M439,604.53c-.67-1.31-1.5-1.54-2.09-1.5-1.78.13-2.7,2.66-4.46,7.92-1.18,3.53-3,8.87-4.51,9.58a.34.34,0,0,1-.29,0,1.05,1.05,0,0,0-.34-.08,167.39,167.39,0,0,0-20.39.11c-10.36.48-21.05,1-30.17-1.51a104.17,104.17,0,0,1-5.31-11.89,112.13,112.13,0,0,0-5.2-11.71,1.21,1.21,0,0,0-2.21.94,92.52,92.52,0,0,1,2.81,12.68c1.12,6.43,2.28,13.07,5.12,18.24A1.18,1.18,0,0,0,373,628l.23,0c27.42-5.34,41.93-2.66,50.59-1.06,4.82.89,7.72,1.42,9.92-.18,3-2.17,3.61-7.42,5.37-21.48a1.37,1.37,0,0,0-.12-.69"/><path class="cls-7" d="M312.4,673.5a1.2,1.2,0,0,0-1.15,1.22c.38,20.68,9.76,42,24.47,55.72,11,10.22,24,15.56,38,15.56,1,0,2,0,3-.08a1.2,1.2,0,0,0,.42-2.3c-27.46-12.12-60.74-33.93-63.41-69a1.21,1.21,0,0,0-1.26-1.11"/><path class="cls-7" d="M492,673.38a1.21,1.21,0,0,1,1.15,1.23c-.38,20.68-9.75,42-24.47,55.72-11,10.22-24.05,15.56-37.95,15.56-1,0-2,0-3-.08a1.21,1.21,0,0,1-.42-2.31c27.46-12.12,60.75-33.93,63.42-69a1.2,1.2,0,0,1,1.25-1.11"/><path class="cls-7" d="M215.53,502.4c26.31.89,46.33,13.49,59.53,37.44,13.36,24.25,16.76,54.84,17.26,76.24.22,14.25,1.06,15,2.52,15.16h.21c1.75,0,2.5-2.44,5.47-17,1.41-6.89,3-14.71,4.35-17.79,9.72-25.83,18.25-55.17,7.9-76.81-5.42-11.34-15.71-19.58-30.58-24.5a1.2,1.2,0,0,0-1.08,2.12c23.8,17.35,26.83,59.3,18,83.31-1.08-28.43-12.79-54.7-31.26-69.55C253.13,499.27,235,495.44,215.3,500a1.21,1.21,0,0,0,.23,2.38"/><path class="cls-3" d="M590.77,146.38C574,165,563.94,188.43,550.7,209.47c-.51,3-14.28,20-9.34,19.47,9.33-7.68,20.57-14.7,26.33-25.6,7.31-19.14,15.65-37.88,23.08-57"/><path class="cls-7" d="M805.77,516.12C794.47,468.3,767.93,422,731,385.59l4.63-2c15.29-6.6,34.32-14.82,41.75-25.83a1.23,1.23,0,0,0,.07-1.23,1.2,1.2,0,0,0-1-.65c-22.44-.57-45.46-6-68.45-16.23,2.84-5.17,7.12-10.32,11.64-15.75,4.8-5.76,9.76-11.72,13.14-18l.06-.13a1.77,1.77,0,0,0-.26-1.86c-1.22-1.44-4.53-.89-13,.92-2.7.58-5.87,1.26-7.92,1.5l.73-1.21c13.69-22.78,30.73-51.13,29.84-81a1.21,1.21,0,0,0-1.62-1.1c-3.13,1.14-7.57,4.69-12.72,8.8-8.66,6.91-19.33,15.44-26.47,14.36,3.62-52.41.22-98.54-10.12-137.12C677.43,57.61,651.41,21,613.89.15a1.22,1.22,0,0,0-1.17,0,1.2,1.2,0,0,0-.62,1c-1.59,28.51-13.92,60.38-33,85.25-20.36,26.52-45.75,42.07-71.81,44.05,10.54-10.91,24.28-20.28,43-29.34a1.19,1.19,0,0,0,.68-1.1,1.21,1.21,0,0,0-.72-1.08c-25.93-11.44-65-8.38-116,9.1-2.05-14.45-10.11-29.57-22.27-41.72-12.66-12.63-27.7-19.84-41.36-19.84h-.47a1.22,1.22,0,0,0-1,.65,1.2,1.2,0,0,0,.07,1.24c5.85,8.53,12.66,21.91,11.94,37.13-1.51,13.65-3.63,20.57-6.67,21.78s-8.21-3.16-14.74-8.69C344,85.3,317.82,63.11,274.37,76.12a1.19,1.19,0,0,0-.82.87,1.2,1.2,0,0,0,.35,1.16c36.37,34.26,34,46.4,32.4,49.3-2.13,3.88-8.68,4.76-18,2.39-14.14-3.59-38.08-16.18-59-39.81C213.5,72.19,194.62,42.45,194.46,2A1.19,1.19,0,0,0,192.73,1c-37.77,18.47-64,54.6-77.85,107.39-10.09,38.33-13.59,84.55-10.41,137.41-12.88-.67-27.15-14.17-36.69-23.21l-.15-.14a2.11,2.11,0,0,0-2.31-.38,2.06,2.06,0,0,0-1.22,1.9c-.71,29.28,15.46,57.41,28.46,80l1.2,2.1a39.39,39.39,0,0,1-8.08-1.41c-4.92-1.19-9.56-2.31-11.87-.06a1.19,1.19,0,0,0-.15,1.49,313.15,313.15,0,0,0,24.57,32.39c-15.6,11.4-37.4,13.63-51.92,15.12-10.42,1.07-16.16,1.65-16.74,4.89-.69,3.76,5.48,8.57,45.13,28.31C39.94,417.66,14.15,462.42.07,516.34a2.06,2.06,0,0,0,1.05,2.37,2.08,2.08,0,0,0,2.56-.5c7.84-9.2,18.17-17,30.72-23.18,0,0-7.57,25-7.08,34.52.15,2.86.27,5.7.18,8.56-1.87,62.14,35.08,142.67,79.13,177.34a1.22,1.22,0,0,0,1.6-.1,1.21,1.21,0,0,0,.09-1.6c-10.35-13.06-18.08-32-20.16-49.48-2.28-19.12,2.17-34.84,12.57-44.57,1.22,21.4,3.72,38.74,7.86,54.4a1.19,1.19,0,0,0,.57.73,1.23,1.23,0,0,0,.92.12c3.78-1.06,7.37-4.28,11.18-7.69,3.58-3.22,7.28-6.53,11.25-8.12,26.09,71.32,67.45,135,116.55,179.51a1.13,1.13,0,0,0,.74.31,2.51,2.51,0,0,0,2.47-1c.69-1.26-.33-2.68-1.75-4.65a19.43,19.43,0,0,1-2.51-4.13,1,1,0,0,0-.07-.15c-8.77-16.33-15.88-39.73-11.74-54.29,27.37,38.23,65.12,67.5,101.64,95.82l1.05.81c40.37,31,52.5,52.23,57.67,61.3,2.23,3.91,3.25,5.69,5,5.77h.11c1.85,0,3.22-2,6.46-6.69,4.63-6.71,13.26-19.22,31.47-38,14-12.7,29.07-24.79,43.66-36.48,30.91-24.77,62.87-50.38,86.48-83.54,2.26,4.28-1.76,34.08-4.32,38.14a1.11,1.11,0,0,0-.2.65c.17,2.28-3.22,8.16-5.94,12.87-3.88,6.72-5.86,10.32-5,12.2a1.93,1.93,0,0,0,1.54,1.08,1.17,1.17,0,0,0,1-.32c53-49.93,92.94-112,115.67-179.49,2.06,0,9.8,6.58,14,10.16,7.06,6,8.41,7,9.69,6.26A1.45,1.45,0,0,0,697,674c5.79-18.9,7.48-38.38,8.2-53.76,7.59,7.12,12,16.68,13,28.45,2.31,26-12.14,56.27-26.55,73.4a1.2,1.2,0,0,0,1.72,1.67c48-42.74,84-114.81,89.9-171.09a91,91,0,0,0-12-56c-.43-.72-.87-1.45-1.33-2.18a108.25,108.25,0,0,1,32.28,23.62,2.09,2.09,0,0,0,3.54-2M694.87,275.77a4.35,4.35,0,0,0,1.07-2.82c.18-1.48.34-1.9,1.07-2.07a33.25,33.25,0,0,0,5.55-2.57c2.87-1.48,8.5-4.37,10.64-4.72-8.2,16.63-18,30.63-29.13,41.77,4.64-9.35,8.65-19.09,10.8-29.59m-39,31.7c13.36-36.25,19.87-77.23,18.86-119.14-.92-38.17-8.07-75.54-20.82-109.33,30.68,64.71,37,175,2,228.47M524.66,158.12c8.48-6.53,17.84-12.21,26.88-17.7,13.54-8.22,27.41-16.66,38.88-28.22-8.43,13.24-17.76,26.56-26.86,39.55-20.68,29.5-42,60-54.11,91.17-6.23-23.45-11.18-62.38,15.21-84.8m-257-9.51,7.52,4.14c30.45,18.82,32,66.14,19.92,91.47C284,210.08,263,181,242.64,152.92c-9.95-13.75-20.17-27.86-29.2-42.56,15.52,17,33.71,27,54.17,38.25m-89.41-101c7.28,23.77,18.68,46,30,66.59,2.09,6,11.59,19.8,23.6,37.3,22.52,32.81,56.55,82.4,48.36,94.23-1.93,2.79-6.51,3.32-13.61,1.57a1.2,1.2,0,0,0-1.32.54,5.85,5.85,0,0,1-3.21,1.34h0a7.58,7.58,0,0,1-1,.15l-.22,0A6.33,6.33,0,0,1,255,246.1a1.13,1.13,0,0,0,0-.32c-.44-2.09-16.34-35.22-21.84-35.45a2,2,0,0,0-2,1.62,1.21,1.21,0,0,0,.06.86c6.14,12.95,12.11,26.74,12.64,41.25-27.92-44.21-61.76-115.48-68.35-176.44a1.2,1.2,0,0,0-2.35-.22c-9.79,32.59-9.31,67.26,1.34,97.86a4.94,4.94,0,0,1-1.35-.66c-5.18-3.5-9.78-16.94-10.89-23.48a1.21,1.21,0,0,0-.55-.82,2.22,2.22,0,0,0-3,.16c-3.09,3.25,2.45,23.36,4.27,26.83.44,3.67,4.52,9.24,8.48,14.64,2.15,2.95,5,6.81,5.74,8.7-4.64-2-8.84-7.29-11.7-10.86-2.55-3.18-3.62-4.5-5-4.06-.5.15-1.11.61-1.19,1.9v.18c2.21,26.19,9.59,50.33,21.38,70-9.25-4.64-22.52-28.08-28-39.94a1.2,1.2,0,0,0-2.27.25c-3.85,17.52,18.86,45.81,28.81,57.17a81.55,81.55,0,0,0,11.39,10.51c1.55,1.21,3,2.36,3,2.86,0,.76-2.44,2.76-5.53,5.3-2.21,1.81-5,4.07-8.44,7.11a32,32,0,0,0-4.91,5.12c-1.69,2-5.08,6-6.41,6.4-7.62-12.9-13.41-28.27-17.67-46.94-16-84.54-5.7-165.77,27.53-218m-52,156c.83-40.8,9.9-87,23.68-120.58a29.29,29.29,0,0,0,1.91-4c.58-1.31,1.46-3.34,2.32-5.11-30.6,81.66-31.56,166.27-2.81,234.24-21.74-28.8-25.76-72.11-25.1-104.51M91.7,263.05c17.49,5.87,18.1,9.39,19.5,17.4,1,5.57,2.28,13.05,9.07,24.38-8.13-5.22-23.39-30.08-28.57-41.78M685.32,638.24c-7.69-6-13.66-10.89-18.11-14.57-9.23-7.63-12.69-10.49-15.34-9.42-2.33.94-2.73,4.42-3.53,11.35-2.15,18.65-7.16,62.1-56.55,133.59-2.1-7-3.48-15-4.95-23.37-2.9-16.72-5.9-34-14.89-47.74a1.2,1.2,0,0,0-.26-.29,2.06,2.06,0,0,0-2.25-.4c-1.67.8-1.78,3.76-1.81,8.52,0,.66,0,1.43,0,2.1a1.19,1.19,0,0,0-.61.9c-6.41,53.26-50.32,92.21-92.79,129.87-28.59,25.36-55.62,49.34-72,77.3-17.79-29.87-45.77-54.54-72.85-78.41-43.37-38.24-88.22-77.77-91.74-139.4a1.2,1.2,0,0,0-.79-1.06,1.14,1.14,0,0,0-.41-.07,1.2,1.2,0,0,0-.88.38c-13.26,14-17.12,41.61-20.23,63.76-.45,3.21-.88,6.29-1.32,9.22l-4-6.62c-25.12-41.74-53.59-89-52.79-139a1.18,1.18,0,0,0-.16-.61,2.29,2.29,0,0,0-1.62-1.12c-3.12-.55-10.51,4.29-24.68,16.2l-1.27,1.07c-1,.56-2.29,2-4.25,4.2-1.39,1.57-3.85,4.36-5,5-.93-17.2-.85-35.38,5.39-52.34,5.72,1.15,11.49,2.47,17.08,3.75,9.84,2.25,20,4.57,30.2,6a75.93,75.93,0,0,1-7.74,5.63c-4.24,2.85-6.88,4.67-7.74,5.92a1.21,1.21,0,0,0-.08,1.23,1.23,1.23,0,0,0,1,.66c48.14,1.39,94.88,33.79,114.35,79-4.87-.7-11-4.51-16.94-8.21-5-3.12-10.21-6.34-14.92-7.91a1.2,1.2,0,0,0-1.19.25,1.23,1.23,0,0,0-.36,1.17c2.62,10.93,15.13,22.5,26.17,32.71,3.83,3.55,7.46,6.9,10.49,10a24.39,24.39,0,0,1-5.36.86c-4.08.37-6.62.68-7.53,2.16a2.12,2.12,0,0,0-.14,1.92,1.31,1.31,0,0,0,.26.4c17.53,18.22,37.31,34.91,56.45,51,8.15,6.88,16.58,14,24.6,21,17.43,17.63,27.15,21.79,33.58,24.54,8.52,3.65,12,5.16,22.83,34.22a1.22,1.22,0,0,0,1.36.77c4-.76,6.35-7.5,9.09-15.29,2.49-7.11,5.32-15.17,9-16.5,18.15-5,52.15-36.9,82.15-65.07,16.21-15.21,30.21-28.36,38.65-34.28a1.3,1.3,0,0,0,.43-.53,2.25,2.25,0,0,0-.11-2c-.93-1.59-3.8-1.93-7.11-2.32a22.09,22.09,0,0,1-4.73-.86c16.23-15.06,29.16-28.34,39.45-44a1.22,1.22,0,0,0-.05-1.4,1.2,1.2,0,0,0-1.32-.41c-5.43,1.75-11.32,5.35-17,8.82-6.41,3.91-13,7.93-18.37,8.88,22.44-46.82,65.16-77.31,109.37-77.86a1.19,1.19,0,0,0,.41-.08,13,13,0,0,1,2.4-.07c2.51,0,4.88.08,5.76-1.33a2.2,2.2,0,0,0,0-2.27,1.21,1.21,0,0,0-.36-.42c-3.38-2.46-6.15-4.38-8.38-5.92a61.83,61.83,0,0,1-5.76-4.25,39.05,39.05,0,0,1,4.21-.92,135.21,135.21,0,0,0,14.56-3.39c3.5-.12,7.43-1.26,11.59-2.47,4.77-1.39,9.68-2.82,13.76-2.53,5.7,17.32,6.13,35.62,5.7,50.15M204.73,452.11a1.2,1.2,0,0,0-1.07-.93,119.75,119.75,0,0,0-56,8.78c9.85-22,40.39-45,67.29-50.15l1.71,0c4.42-.08,11.59-.19,13.52.56-.62.58-2.64,2-9.25,4.56l-.17.08a2.09,2.09,0,0,0-1,2.11,2.06,2.06,0,0,0,1.55,1.73l.26,0c20.73.59,30.42,14.58,40.67,29.39,8.68,12.53,17.64,25.47,33.82,30.06a9.48,9.48,0,0,1-3.91.66c-9-.17-21.93-8.54-26.92-14.23a.91.91,0,0,0-.5-.34c-.79-.43-3.25-4.21-4.87-6.7-4.29-6.58-5.95-8.84-7.66-8.37-.57.15-1.26.66-1.32,2.17a1.27,1.27,0,0,0,.08.48c6.86,17.85,23.46,38.68,47.69,38.66l.18,0c30.8-4.95,40.6,53.09,47.76,95.48,2.65,15.67,4.94,29.22,7.85,37.46a23.89,23.89,0,0,0,1.2,5.65c.85,2.92,1.73,5.92.76,7.63a3.69,3.69,0,0,1-2.5,1.58c-18.13,6.12-29.26,25.45-25.93,45-.77,29.92,36.45,45.15,58.69,54.26,0,0,1.85.81,4.55,1.67a8.12,8.12,0,0,1,5.13,4.78c.06.16.12.31.17.47a8.24,8.24,0,0,1-8.21,10.92c-7.84-.36-13.73-.75-13.73-.75-51.46-2.82-68.87-49.39-81.39-94.33-12.18-43.7-24.78-88.88-75.81-97.62a2.09,2.09,0,0,0-.49-.05,2.06,2.06,0,0,0-1.94,1.36,2.09,2.09,0,0,0,1,2.6,99.72,99.72,0,0,1,35.58,28.54c-1.74-1.37-4-3.3-5.79-4.9-8.29-7.22-12.16-10.27-14.37-9.23a2.26,2.26,0,0,0-1.19,2.32,1.21,1.21,0,0,0,.32.78c19.29,21.22,42.31,54.09,48.6,81.7-10.87-22.8-24.36-44.78-45.95-58-4.45-4-13-6.69-19.87-8.87-3.26-1-7.22-2.29-8.49-3.14,1.14-.6,4.88-1.62,16.39-3a1.25,1.25,0,0,0,.53-.19,2,2,0,0,0,1-2c-.33-2.19-4.57-3.81-14.61-6.83a56.26,56.26,0,0,1-5.43-1.79l-.43-.18c-12-2.52-16.08-4-17.44-4.73,2.82-.91,12-1.36,18.36-1.66,4.21-.21,8.2-.4,11.19-.69a1.18,1.18,0,0,0,1-.71,1.2,1.2,0,0,0-.12-1.2c-5.36-7.32-21.87-6.93-35.14-6.61-1.82.05-3.58.09-5.21.1,10.54-9.52,33.18-12.72,50-15.1,2.9-.41,5.66-.8,8.16-1.19a2.09,2.09,0,0,0,.18-4.13c-28.46-5.72-63.77-5.52-105,.59,9.29-35.91,37.55-70.67,75.94-93.29a1.19,1.19,0,0,0,.56-1.3M287.46,447a1.11,1.11,0,0,0,.15.43c4.48,7.83,9.76,5.39,12.92,3.94,1-.47,2.24-1,2.66-.85.18.08.37.42.52.92a1.2,1.2,0,0,0,.2.39c3.95,5.12,5.11,9.14,3.37,11.63-2.33,3.31-10,3.91-17.92,1.38-7.71-2.46-15.92-8-15.86-16.3a1.24,1.24,0,0,0,0-.27c-1.77-8-1-13.54,2.08-15.17a4.81,4.81,0,0,1,2.27-.52c3.43,0,8.19,2.8,12.9,7.74.1.73-.48,1.47-1.39,2.54s-2.1,2.46-1.87,4.14M354,494.55c0-8.89,0-18.09,2.74-23.66a29.6,29.6,0,0,0,2.56-4c1.16-2,3.79-6.53,5-7.05,3.91,8.45,8.3,16.85,12.55,25,5.38,10.28,10.94,20.92,15.53,31.68a1.24,1.24,0,0,0,.37.48c.86.67,2.44,4,3.72,6.65,2.62,5.46,4.19,8.57,6.11,8.9a1.89,1.89,0,0,0,1.71-.57.93.93,0,0,0,.22-.3c5.69-11,11.16-22.46,16.45-33.49C427,485.44,433.34,472.3,440,459.63c1.64.85,5.1,7.16,6.29,9.34.84,1.53,1.58,2.88,2.14,3.7,2.52,8.48,2.83,17.74,3.14,26.69.16,4.71.32,9.57.81,14.28a1.19,1.19,0,0,0,1.05,1.07,2.48,2.48,0,0,0,1.95-.59c2.17-1.8,2.66-7.47,3.21-16.58.31-5.16.64-10.48,1.56-12.69a7.74,7.74,0,0,1,2.19,1.3c.43.32.86.63,1.26.87-3.34,26.36-7.26,53.48-11.05,79.72-3.2,22.15-6.51,45-9.47,67.46-5.43-.23-11.09-1-17.06-1.73-10.63-1.38-21.62-2.8-32.09-1.39-10,.5-20,2.22-29.72,3.89l-1,.16c-6.33-25.28-9.52-52.43-12.61-78.7-2.67-22.79-5.44-46.33-10.24-68.81,1.78-2,2.64-2,2.88-1.91,2.48.8,3.21,12,3.64,18.62.35,5.32.65,9.93,1.53,12a1.2,1.2,0,0,0,.89.71,1.21,1.21,0,0,0,1.08-.35C354,513,354,504.43,354,494.55M468.27,393.67c2.5,2.56,7.35,2.85,15.74.93,4.7-.51,7.47-.09,8.72,1.31s1.32,4,.3,8.39c-2.6,5.41-3.78,14.93-5,25-1.94,15.65-4.14,33.4-12,39.24a10.4,10.4,0,0,1-8.21,1.8c-13.18-6.92-20.95-17.36-23.1-31-3.68-23.43,10-50.56,25.21-67.38-.43,2-.93,3.88-1.41,5.76-1.84,7.15-3.3,12.81-.2,16M515.51,442c-.74-.88-1.06-1.31-1-1.76.36-1.67,4.94-4.61,13.62-8.73,4.88,4.45,4.94,10,4.09,14-2,9.46-11,18.93-20.33,21.55-4.24,1.19-10.35,1.45-15.69-3.82,3.86-12.64,5-12.35,8.79-11.45a21.82,21.82,0,0,0,8,.69,1.19,1.19,0,0,0,.71-.34c5.26-5.09,3.75-7.81,1.75-10.16m-14.76,48.88,3.31-.21c-.15,4.92-.36,9.85-.59,14.8-6.44,6.18-12.2,14.65-13.76,20.19-6.76,21.31.7,42.51,7.91,63,4.78,13.59,9.72,27.65,10.53,41.66a1.28,1.28,0,0,0,.33.81,2.57,2.57,0,0,0,1.86,1A1.71,1.71,0,0,0,511,632c1.56-.61,1.65-3,1.68-6.81a20,20,0,0,1,.1-2.62l0-.3c1-49.79,11.56-84.39,31.32-102.87,11.93-11.15,27.41-16.38,46-15.5a1.22,1.22,0,0,0,1.23-1,1.2,1.2,0,0,0-.74-1.37c-15.5-6-32.57-4-48.09,5.48a69.64,69.64,0,0,0-11.65,9q12.64-33.86,25.14-67.78c1.37-3.74,7-7.13,3-11.67-1.47-1.66-4.19-2.49-6.85-2.55.83-1.05,1.67-2.09,2.55-3.08,6.62-7,16.9-9.19,23.7-10.65,4.64-1,7-1.5,7.1-3.32.12-1.65-1.45-2.9-10.4-6.33,10.74-3.44,24,.92,33.59,5.42,21.6,10.15,43.48,30.18,48.78,44.23-15.92-6.09-42.26-14.16-56.51-7.46a1.2,1.2,0,0,0,0,2.18c36.94,16.59,68.39,55.29,75.45,92.55-30.86-6.71-75.9-9.45-103.89.23a1.2,1.2,0,0,0,.22,2.33q2.91.43,6.14.88c17.69,2.49,41.51,5.84,52.6,15.72l-1.73-.06c-13.54-.49-34-1.23-40,6.57a1.23,1.23,0,0,0-.12,1.29,1.19,1.19,0,0,0,1.11.65c5.91-.17,25.51.63,29.66,2.41a98.55,98.55,0,0,1-13.17,3.54c-9.68,2.16-19.69,4.39-23.24,10a1.18,1.18,0,0,0-.08,1.15,1.2,1.2,0,0,0,.94.69c10.29,1.33,14.22,2.27,15.54,2.89a57.5,57.5,0,0,1-7.75,2.83c-8.07,2.59-19.1,6.13-25.52,12.2-15.43,8.89-25.27,26.8-34,42.6-2.7,4.92-5.31,9.67-7.91,13.8,11.26-32.83,27.89-60.83,49.48-83.33a1.17,1.17,0,0,0,.33-.77,2.27,2.27,0,0,0-1.14-2.42c-2.18-1.05-6,2-14.3,9.36-2.12,1.88-4.74,4.19-6.67,5.69A96.67,96.67,0,0,1,588.59,567a2.1,2.1,0,0,0-1.46-3.9c-52.77,12.57-66.06,60-78.92,105.84-4.74,16.91-9.64,34.4-16.47,49.33,0,.09-.06.18-.08.26-4,19.47-47.29,35.77-71,37.43-1.61.12-3.46.19-5.48.23A8.21,8.21,0,0,1,407,746a.75.75,0,0,0,0-.16,8.19,8.19,0,0,1,6.42-5.73c29.45-5.76,58.85-31.23,64-57.39,3.78-19.34-6.47-35.47-28.85-45.48l1.22-7.17c5.88-34.47,21.44-125.8,40.16-138.34,3.8-.42,7.36-.63,10.81-.84m44.7-80c5.18-22.46,9-22.64,25.22-23.43,3.27-.16,6.92-.33,11.16-.71-4.94,11.2-21.32,17.94-33.45,22.93-1,.41-2,.81-2.93,1.21M425.11,782.55c4.7-2.66,9.14-4.48,13.44-7.5,0,0,25.81-15.2,31.27-15.79-26.05,29.43-47.9,42.94-68.72,42.59-20.24-.37-41.11-14-65.4-42.9,6.64,3.27,13.26,7.31,19.71,11.25,21.45,13.08,43.62,24,69.7,12.35M376.68,661c-1.66-5.12.07-9.31,5.13-12.47,16.49-10.29,62-6.27,74.9,6.6,3.75,3.75,4.27,7.73,1.59,12.17-11,9.59-27.86,5.64-41.39,2.47-1.37-.32-2.72-.64-4-.93l-.27,0h-.12c-12.16,1.25-27.18,1.47-35.82-7.81M708,463.79s52.43,50.14,17.29,143.39c-3.45-2.53-6.7-7-10.12-11.8-4.19-5.85-8.53-11.89-14-15.41a148.91,148.91,0,0,1-14.68-14.5c-1-1.07-2-2.14-3-3.21.57.07,1.27.21,1.69.3a4.55,4.55,0,0,0,2.66.11,1.58,1.58,0,0,0,.65-.77c2.49-6.93-.31-15.87-2.79-23.76-.86-2.74-1.68-5.33-2.24-7.72a.88.88,0,0,1-.05-.15c-6.33-16.94-13.74-30.95-22.64-42.81-.56-1.23-2.13-3-4.57-5.62-1.77-1.94-4.9-5.34-5.58-6.9A92,92,0,0,1,682.1,488.3a1.2,1.2,0,0,0,1.88-1c0-22.4-18.51-43.28-34.07-56.86-17.19-15-39.92-28.69-58.5-35.29,16.65-15.8,19-19.82,17.68-22.28-1.45-2.71-6.9-1.46-17.77,1-5,1.15-10.62,2.44-16.81,3.54.67-1,1.83-2.52,2.81-3.8,3.74-4.82,8.85-11.42,9.18-16.84a2.05,2.05,0,0,0-1-2.16A2.08,2.08,0,0,0,583,355l-2.85,2.75c-7.17,6.92-13.45,13-22.84,17.76,3.78-9.94,4.42-15.77,2.13-18.72s-6.67-2.3-10.94-1.71c-3.93.55-8,1.11-9.76-1.12-2.46-3.11-1.06-11.6,4.18-25.24,5.69-2.54,6.54-3.62,6.19-4.9s-1.91-1.52-4.8-1.27c.43-3.82,2.61-9.89,4.9-16.27,4.59-12.75,9.33-25.94,4.48-31.18-2.16-2.33-5.77-2.75-11-1.3l-.13,0c-5.73,2.27-13.13,2.72-21,3.18-15.6.93-31.73,1.9-35.51,17.94l0,.19c-3.12,43.16-16.08,58.59-28.61,73.51-11.89,14.15-23.11,27.52-25.42,62.33a2.44,2.44,0,0,0,0,.27c3,19.53-6.79,37-16.26,53.9-4.61,8.23-9.37,16.71-12.67,25.42-7.16-9.1-13.06-22.08-18.78-34.66-3.76-8.28-7.66-16.85-11.83-24.08,4.07-31.28-6.13-61.85-28.74-86.12-20.93-22.45-51.23-38-83.12-42.78a1.14,1.14,0,0,0-.58.05,2,2,0,0,0-1.58,1.82c-.08,2.31,4.33,4.58,17.6,10.23a81.12,81.12,0,0,1,9.14,4.22l.25.14c59.38,25.61,76.29,70.39,72.72,100.95-1.84,15.71-9.28,27.36-18.53,29s-18.74-6.38-26.83-22.5c-8.94-19.28-28.49-26.61-47.4-33.71-16.91-6.34-32.92-12.35-40.92-26.27,9.15,1.18,38.87,3.74,42-.17a1.94,1.94,0,0,0,.21-2.17,1.15,1.15,0,0,0-.68-.6,104.47,104.47,0,0,1-43.27-28.76,1.06,1.06,0,0,0-.23-.19,2,2,0,0,0-2.57,0c-1.14,1-.8,3.13-.37,4.06a85.82,85.82,0,0,0,10.15,16.89c.43.57.87,1.16,1.21,1.64-1.18-.2-3-.64-5.12-1.13-5.27-1.23-14.1-3.3-27.56-5.52a1.22,1.22,0,0,0-.94.23,2.33,2.33,0,0,0-.89,1.75c-.23,3.58,6.72,10.91,15.14,19.42,1,1,1.91,1.94,2.65,2.71-41.31,14.63-86.35,50.34-93.75,91.32a1.19,1.19,0,0,0,.39,1.12,1.21,1.21,0,0,0,1.17.23,94.32,94.32,0,0,0,10.27-4.45c7.34-3.49,15.56-7.39,20.92-6.43-22.29,25.36-35.54,54.58-37.34,82.48a1.21,1.21,0,0,0,.41,1c1.52,1.37,3.59.87,5.6.39a8.45,8.45,0,0,1,3.91-.37c-4.89,5.79-10.89,11.21-17.23,16.92-10,9-20.26,18.26-27,29.85,0,0-48-91.74,10.91-141.93.93-.79,2.23-.91,3.25-1.37a1.21,1.21,0,0,0-.1-2.24C85.06,457.77,68,463.1,53,467.81c-4.32,1.35-8.43,2.63-12.15,3.63,7-24.2,32.32-47.62,52.32-60.56,8.89-6.12,18.85-10.78,28.48-15.29,3.17-1.48,6.44-3,9.63-4.58a1.07,1.07,0,0,0,.21-.13,1.8,1.8,0,0,0,.82-2c-.52-1.7-3.37-2.05-11.38-2.62a64.76,64.76,0,0,1-8-.86c2.29-1.33,9.28-3.54,14.56-5.2,14.28-4.51,18.44-6.17,18.55-8.48,0-.49-.16-1.42-1.59-2a1.33,1.33,0,0,0-.71-.07c-16.9,3.39-35.28,2.15-53.3-3.59,3.93-2.12,10.62-2.88,17.11-3.61,6-.68,12.25-1.38,16.89-3.18a247.23,247.23,0,0,0,39.47-13.3,1.21,1.21,0,0,0,.69-.79,2.18,2.18,0,0,0-.27-1.76c-1-1.53-3.72-2.13-8.15-3-3.2-.62-7.13-1.37-8.77-2.69a38.11,38.11,0,0,1,7-.84c3.15-.2,5.08-.34,6.11-.81,12.52-2.14,24-7.42,35.15-12.54,9.53-4.37,19.38-8.9,29.74-11.36a1.18,1.18,0,0,0,.72-.5,2.1,2.1,0,0,0,.18-2.18c-.95-1.84-4.95-3.62-27.48-4.27,11-15.09,37.44-28.36,45.47-32.15,12.79-5.15,27.2-5,38.58.48a2.07,2.07,0,0,0,2.61-.77,2,2,0,0,0-.28-2.62c-7.35-7.64-18.14-9.9-27.64-11.9-1.52-.31-3-.63-4.46-1,0-.68,0-1.55-.12-2.65a19.81,19.81,0,0,0,6.25,1h0a41,41,0,0,0,7-.28c3.67-.36,7.47-.73,9.52.33l.39.13c11.71,1.91,26.73,5.1,39.12,12.92a2,2,0,0,0,2.56-.28,2.08,2.08,0,0,0,.34-2.57,1.14,1.14,0,0,0-.46-.44c-19-10.37-16.52-17.84-12.07-31.38s10.57-32.22-2.17-63.36l-.08-.16c-3.68-6.3-10.22-17.51-11.25-21.08,1.71,1,6.08,4.57,17.18,15.86l.18.15c2.47,1.68,5.46,8.59,7.64,13.64,2.87,6.61,4,8.88,5.65,8.77.56,0,1.31-.37,1.68-1.71a1.2,1.2,0,0,0,0-.42,38.86,38.86,0,0,0-5.85-18.18c-2.91-5.06-4.51-7.85,1.5-16.61l.08-.13c11.92-23.11,3.28-42.15-.88-51.3a36.58,36.58,0,0,1-1.68-4.06c2.23.54,9.34,4.44,15.66,7.89,20.38,11.89,22.86,26.08,24.35,34.56.7,4,1.16,6.67,3.35,7.48,2.83,1,7-1.62,20.49-12.86,15.64-12.11,19.48-31.26,21.35-48.93,6.66,10.79,13.28,26.1,11,38.28a16.24,16.24,0,0,1-1.74,4.7c-1.45,2.72-4,7.44-4.53,8.43-.79,1.43-1.92,6.49,7.75,2.06,14.88-6.8,57.1-15.76,71.51-20.14,8.11-2.24,11.17-2.64,12.2-2.5-.68,1.41-4.4,5-8,8.51-12.31,11.9-35.21,34.07-44.12,64.05a2.08,2.08,0,0,0,3.39,2.27.47.47,0,0,0,.1-.1c6.36-7.93,25.2-31.4,41.14-30.64-4.12,5.24-8.66,12-10.64,19.75a2.19,2.19,0,0,0,1.16,2.55,2.05,2.05,0,0,0,2.6-.8c8.9-14.1,19.06-24.51,30.21-31-1,2.16-3.37,6-5.21,9-4.09,6.67-6.64,11-6.79,13.13-10.72,26.11-9.5,57.91,3.09,81.32-1.4,2.14-4.49,3.77-7.75,5.48-3.64,1.91-7.41,3.89-9.61,7a1.82,1.82,0,0,0-.16.31,2.06,2.06,0,0,0,.42,2.43c1.33,1.14,3.64.09,9-2.75a27.47,27.47,0,0,1,4.77-2.26,1.09,1.09,0,0,0,.47-.08,109.05,109.05,0,0,1,46.24-6.88,1.2,1.2,0,0,0,1.25-1,3.47,3.47,0,0,0-.91-3.19c-4-4.27-20.21-3.25-25.44-2.79,7.21-38,29.89-71,51.84-103C597,115.37,618.57,83.92,627.62,47.6c44.52,73.24,48.87,183.86,10.27,264.88-4.08-2.46-7.84-6.48-11.8-10.7-4.5-4.81-9.16-9.78-14.71-12.88,23.59-17.49,40.39-43.1,46.15-70.36a2.09,2.09,0,0,0-3.93-1.29l-1.35,2.6c-6.39,12.35-16.69,32.28-27.42,38,12.13-20.49,19.52-44.52,21.41-69.76a.67.67,0,0,0,0-.2c-.11-1.25-.72-1.69-1.21-1.84-1.38-.42-2.54,1-5.06,4.09-3.09,3.79-7.67,9.41-12.77,11.28A79.74,79.74,0,0,0,648.08,156c.25-5.66,0-7.11-1.39-7.39-1.64-.34-2.39,1.61-4.86,8.1-2.22,5.82-5.69,14.95-9.06,18.14,6.18-31.94,11.34-68.16-.84-98.53A2.05,2.05,0,0,0,629.47,75a2.2,2.2,0,0,0-1.61,2.26,154.44,154.44,0,0,1-7.43,52.93c-4.74,22.17-50,114.76-58.52,123.93.24-2.84,2.45-11.91,13.16-40.56a2,2,0,0,0-.76-2.6,2.07,2.07,0,0,0-2.76.42c-10.38,12.81-20.63,28.31-18.38,46.28-1,.3-2.74.71-4.63,1.18C535.4,262,523.48,265.27,522,269.53a2.92,2.92,0,0,0,.51,2.86,1.24,1.24,0,0,0,1.37.4c5.52-1.77,12.06-3.53,18.91-3.15,22.78.19,40.79,15,58.2,29.37,2.46,2,5,4.13,7.5,6.13-2.05.69-8.15.88-12.36,1-10,.3-16.12.61-17.63,3.05a2.41,2.41,0,0,0-.08,2.32,1.2,1.2,0,0,0,.88.69c11.23,2,21.7,6.93,31.82,11.71,3.24,1.52,6.59,3.11,10,4.58,15.22,6.13,27.87,9,39.69,9.06-1.9,1.46-6.71,2.35-10.64,3.08-5.28,1-8.07,1.58-8.9,3.12a1.93,1.93,0,0,0-.08,1.69,1.24,1.24,0,0,0,.7.67l1.58.6c14,5.3,28.4,10.78,43.45,13.77,23.16,2.85,26.72,5.23,27.26,5.91-2.58,3.25-39.68,6.74-56.9,3.2a1.21,1.21,0,0,0-1.38.78,1.2,1.2,0,0,0,.59,1.47c4.05,2,11.23,4.34,18.18,6.55s16.49,5.26,18.2,6.93c-.93.48-4.36,1.39-17.14,1.53a1.17,1.17,0,0,0-.49.11,2.16,2.16,0,0,0-1.51,2c0,1.65,2.06,2.83,5.82,4.43.35.15.62.26.84.37,34,14.51,73.51,42.41,83.94,77.67-15.23-5.55-32.24-9.28-53.33-11.7-.68-.05-3.3.13-3.88,1.68a2,2,0,0,0,.92,2.38"/><path class="cls-1" d="M420.68,722.59s18.78-15.53,19.69-16.44c2.08-2.08.69-8-6.6-6.25s-15.64,17-13.09,22.69"/><path class="cls-6" d="M385.16,722.59s-18.78-15.53-19.69-16.44c-2.08-2.08-.69-8,6.6-6.25s15.64,17,13.09,22.69"/></g></g></svg>