<svg xmlns="http://www.w3.org/2000/svg" viewBox="0 0 1020.05 257.89"><defs><style>.cls-1{fill:#03033d;}.cls-2{fill:#fff;}.cls-3{fill:#0222ca;}</style></defs><g id="Capa_2" data-name="Capa 2"><g id="Capa_1-2" data-name="Capa 1"><path class="cls-1" d="M1006,25C997,13.61,980.4,0,952.2,0H845.75a69.87,69.87,0,0,0-26.42,5.15A31.88,31.88,0,0,0,802,0H703a31.93,31.93,0,0,0-25.26,51.45L705,86.75l-11,52.2a31.88,31.88,0,0,0-21.73-8.54h-30c.48-1.8,1-3.61,1.38-5.47l.06-.3,8.69-41.94c4.52-21.48.28-41.34-12.26-57.44C631.31,13.74,614.69,0,586.41,0H424.23a31.81,31.81,0,0,0-14.38,3.43A74.17,74.17,0,0,0,387,0H285.27a77,77,0,0,0-31,6.52A32,32,0,0,0,235,0h-203A31.93,31.93,0,0,0,6.66,51.45L37.32,91.13a31.67,31.67,0,0,0-5,11.61L7.91,219.43a31.93,31.93,0,0,0,31.25,38.46H92a31.94,31.94,0,0,0,31.26-25.39l10.86-51.95h51.14c-3.71,24.63,5,42,13.33,52.48,9,11.34,25.66,24.86,53.76,24.86h99.45a75.49,75.49,0,0,0,36.84-9.26,31.92,31.92,0,0,0,22.48,9.26h52.82a31.93,31.93,0,0,0,31.26-25.43l4.17-20.09L518,242.71a31.94,31.94,0,0,0,27.19,15.18h60.63a31.92,31.92,0,0,0,11.68-2.23,56.65,56.65,0,0,0,15.89,2.23H728a73.23,73.23,0,0,0,28.31-5.7,31.87,31.87,0,0,0,18.13,5.7h52.82a31.93,31.93,0,0,0,31.46-26.47l6.45-37.16h10.92l-4.56,26.24A31.93,31.93,0,0,0,903,257.89h52.82a31.94,31.94,0,0,0,31.26-25.41l31.24-149.84,0-.13c5.58-27.33-3.67-46.34-12.41-57.49"/><path class="cls-2" d="M122.73,78.82H225.14L235,31.93H40.21A4.06,4.06,0,0,0,37,38.48L68.16,78.82h54.57Z"/><polygon class="cls-2" points="205.85 109.27 158.05 109.27 116.38 109.27 63.56 109.27 39.16 225.97 91.98 225.97 108.16 148.62 197.64 148.62 205.85 109.27"/><path class="cls-2" d="M801,36.68a4,4,0,0,0-3.87-4.75H703l36.23,46.89h.07L719,175.57a3.76,3.76,0,0,1-4.1,3.5H671.27c-1.44,0-2-.71-1.82-2.15l2.9-14.59H620.6L613,200.09q-2.25,10.78,3.69,18.33T633.42,226H728q33.4,0,42.73-44.19Z"/><path class="cls-2" d="M987.08,76.12q3.79-18.59-6.24-31.39T952.2,31.93H845.75a37.53,37.53,0,0,0-36.61,29.24l-4,17.44L774.46,226h52.82l11.05-63.64h75.72L903,226h52.82ZM849.34,117.76l7.18-32.2c1-4.49,3.76-6.74,8.25-6.74H927q6.74,0,5.23,6.74l-7.18,32.2Z"/><path class="cls-2" d="M561.57,162.36s16.53,2.16,33.88-13.07c9.32-8.17,14.52-19.08,17.13-31.12l8.71-42q3.86-18.33-6.22-31.27T586.41,31.93H432.18a4.42,4.42,0,0,0-3.76,6.75L464.6,97.09h51.32L502.18,78.82h62.29q3.49,0,2.64,3.5l-6.61,31.8a3.76,3.76,0,0,1-4.09,3.51H432.1l-6.05,36.82L411.1,226h52.82l13.22-63.61h28.91L545.22,226h60.63Z"/><path class="cls-2" d="M421.83,76.12q3.8-18.59-6.24-31.39T387,31.93H285.27A45.37,45.37,0,0,0,240.7,68.87l-1.86,9.88-21.38,103q-4.07,18.58,6.11,31.39T252.33,226h99.45q18.6,0,31.33-12.8a62.52,62.52,0,0,0,16.8-31.39Zm-77.75,103h-69.8c-2.34,0-3.31-1.16-2.91-3.5l19.48-93.25a4.11,4.11,0,0,1,4.36-3.5H365c2.33,0,3.22,1.17,2.64,3.5l-19.48,93.25a3.75,3.75,0,0,1-4.09,3.5"/><polygon class="cls-3" points="196.63 129.06 193.59 143.63 104.11 143.63 87.94 220.98 45.31 220.98 64.53 129.06 196.63 129.06"/><path class="cls-3" d="M776.65,129.06l-10.78,51.69C760.17,207.81,747.78,221,728,221H633.43c-5.63,0-9.82-1.85-12.8-5.64s-3.93-8.5-2.73-14.23l6.79-33.79h41.59l-1.75,8.82a6.55,6.55,0,0,0,6.74,7.92h43.66a8.71,8.71,0,0,0,9-7.66l9.94-47.34Z"/><polygon class="cls-3" points="970.95 129.06 951.78 220.98 908.95 220.98 919.99 157.34 834.13 157.34 823.09 220.98 780.6 220.98 799.79 128.95 970.95 129.06"/><path class="cls-3" d="M604,129a45.51,45.51,0,0,1-11.84,16.59c-12.28,10.78-23.92,11.94-28.35,11.94a14.41,14.41,0,0,1-1.64-.07l-11-1.27,6.29,9.08L596.31,221H548l-39.17-63.6H473.08L459.87,221H417.24L431,155.25l4.3-26.19Z"/><path class="cls-3" d="M405.78,129,395,180.75a57.84,57.84,0,0,1-15.45,28.9C372,217.27,362.9,221,351.78,221H252.34c-10.89,0-19-3.56-24.86-10.91s-7.54-16.27-5.14-27.23l11.16-53.77H276l-9.5,45.49c-.61,3.52.49,5.67,1.51,6.87a7.79,7.79,0,0,0,6.28,2.64h69.8a8.73,8.73,0,0,0,9-7.66L363,129Z"/></g></g></svg>