<svg xmlns="http://www.w3.org/2000/svg" viewBox="0 0 356.56 349.92"><defs><style>.cls-1{fill:#03033d;}.cls-2{fill:#fff;}.cls-3{fill:#0222ca;}</style></defs><g id="Capa_2" data-name="Capa 2"><g id="Capa_1-2" data-name="Capa 1"><path class="cls-1" d="M347.31,15.27A41.33,41.33,0,0,0,315.24,0H47A46.93,46.93,0,0,0,9.84,75.62L46.29,122.8a41.22,41.22,0,0,0-7.6,16.61L5.09,300.15a41.32,41.32,0,0,0,40.45,49.77H118.3a41.31,41.31,0,0,0,40.44-32.86l15.41-73.67h89.67a41.34,41.34,0,0,0,40.46-32.89l11.31-54.2a41.44,41.44,0,0,0,.73-11.73,41.32,41.32,0,0,0,25.84-30.19l13.52-64.59A41.31,41.31,0,0,0,347.31,15.27Z"/><path class="cls-2" d="M160.65,105.92H301.71l13.53-64.6H47a5.61,5.61,0,0,0-4.44,9l42.93,55.57h75.18Z"/><polygon class="cls-2" points="275.13 147.86 209.3 147.86 151.89 147.86 79.14 147.86 45.54 308.6 118.3 308.6 140.58 202.06 263.82 202.06 275.13 147.86"/><polygon class="cls-3" points="262.44 175.12 258.25 195.19 135 195.19 112.72 301.73 54 301.73 80.47 175.12 262.44 175.12"/></g></g></svg>