<svg xmlns="http://www.w3.org/2000/svg" xmlns:xlink="http://www.w3.org/1999/xlink" viewBox="0 0 371.52 481.43"><defs><style>.cls-1{fill:none;}.cls-2{clip-path:url(#clip-path);}.cls-3{font-size:11.93px;fill:#fff;font-family:DelaGothicOne-Regular, Dela Gothic One;}.cls-4{letter-spacing:-0.01em;}.cls-5{letter-spacing:-0.03em;}.cls-6{letter-spacing:-0.07em;}.cls-7{letter-spacing:0em;}.cls-8{letter-spacing:0.01em;}.cls-9{letter-spacing:0em;}.cls-10{letter-spacing:-0.01em;}.cls-11{letter-spacing:-0.08em;}.cls-12{letter-spacing:-0.02em;}.cls-13{letter-spacing:0.03em;}.cls-14{letter-spacing:0.02em;}.cls-15{letter-spacing:0.01em;}.cls-16{letter-spacing:-0.01em;}.cls-17{letter-spacing:0em;}.cls-18{letter-spacing:0.02em;}.cls-19{letter-spacing:0em;}.cls-20{letter-spacing:0em;}.cls-21{letter-spacing:-0.01em;}</style><clipPath id="clip-path" transform="translate(0 81.47)"><rect class="cls-1" width="371.52" height="338.16"/></clipPath></defs><g id="Capa_2" data-name="Capa 2"><g id="Capa_1-2" data-name="Capa 1"><g class="cls-2"><image width="480" height="622" transform="translate(0) scale(0.77)" xlink:href="../../proyectos/forja/benefit-2.png"/></g><text class="cls-3" transform="translate(109.22 100.29)"><tspan class="cls-4">L</tspan><tspan class="cls-5" x="9.48" y="0">O</tspan><tspan class="cls-6" x="20.69" y="0">V</tspan><tspan class="cls-7" x="30.63" y="0">A </tspan><tspan class="cls-8" x="44.27" y="0">R</tspan><tspan class="cls-9" x="54.96" y="0">E</tspan><tspan class="cls-10" x="65.27" y="0">S</tspan><tspan class="cls-11" x="76.22" y="0">T</tspan><tspan class="cls-12" x="86.52" y="0">A</tspan><tspan class="cls-13" x="97.48" y="0">U</tspan><tspan class="cls-14" x="108.77" y="0">R</tspan><tspan class="cls-15" x="119.5" y="0">A</tspan><tspan x="130.92" y="0">NT</tspan><tspan class="cls-16" x="8.22" y="14.32">(</tspan><tspan class="cls-17" x="12.41" y="14.32">9 </tspan><tspan class="cls-8" x="25.01" y="14.32">D</tspan><tspan x="35.81" y="14.32">E </tspan><tspan class="cls-18" x="48.54" y="14.32">J</tspan><tspan class="cls-13" x="59.39" y="14.32">U</tspan><tspan x="70.69" y="14.32">L</tspan><tspan class="cls-19" x="80.28" y="14.32">I</tspan><tspan class="cls-7" x="88.14" y="14.32">O </tspan><tspan class="cls-20" x="102.11" y="14.32">1</tspan><tspan x="109.14" y="14.32">6</tspan><tspan class="cls-9" x="119.35" y="14.32">8</tspan><tspan class="cls-21" x="129.77" y="14.32">0</tspan><tspan x="140.6" y="14.32">)</tspan></text></g></g></svg>